<svg xmlns="http://www.w3.org/2000/svg" width="244.333" height="93.474" viewBox="0 0 244.333 93.474">
  <g id="Logo_bottom" transform="translate(-782.032 -188.734)">
    <path id="Path_38" data-name="Path 38" d="M893.431,245.341v-4.135h1.977v-.833h-1.977V237.3h-.9v3.069h-2.588V237.16h-.858v3.213h-2.46v-2.914h-.911v2.914H883.8v.833h1.912v6.869h9.315v-.835h-8.4v-6.034h2.46v4.135Zm-.9-4.135v3.33h-2.588v-3.33Zm-18.4,3.186.662-.025a8.691,8.691,0,0,1,.625.664l.611-.443a11.4,11.4,0,0,0-1.7-1.547h.963v-3.448h-3.149v-.78h3.708v-.676h-3.708v-.924H871.3v.924h-3.6v.676h3.6v.78h-3.083v3.448H871.3v.792c-1.417.039-2.732.052-3.722.066l.079.715c1.508-.025,3.551-.1,5.632-.182v.924h-5.958v.7h5.958v1.965c0,.155-.052.2-.26.208s-.911.014-1.7-.012a3.25,3.25,0,0,1,.285.806,7.449,7.449,0,0,0,2.017-.144c.39-.117.509-.365.509-.858v-1.965h1.819v-.7h-1.819Zm.324-1.938h-2.316v-.872h2.316Zm0-2.289v.872h-2.316v-.872Zm-5.438,0H871.3v.872h-2.277Zm0,2.289v-.872H871.3v.872Zm3.122.586h1.367l-.157.1c.248.181.52.4.782.623l-1.992.052Zm-3.4,3.487a10.3,10.3,0,0,1,1.666,1.806l.639-.519a10.538,10.538,0,0,0-1.691-1.73Zm-1.664-9.354a14.74,14.74,0,0,1-3.291,5.215,5.773,5.773,0,0,1,.546.782,14.228,14.228,0,0,0,1.392-1.693v7.455h.819V240.19a18.726,18.726,0,0,0,1.34-2.784Zm-14.043,10.406v-4.215h2.848v-.833h-2.848v-3.706h3.188v-.833h-7.012v.833h2.953v3.706h-2.64v.833h2.64v4.215h-3.578v.833h7.832v-.833Zm-4.372-1.118v-8.4h-3.6v9.4h.808v-1Zm-2.8-.794v-3.083h1.976v3.083Zm1.976-6.816V241.8H845.87v-2.953Zm-12.1,6.2c.1-1.99.194-5.1.22-7.362h-2.419v.728h1.64c0,.573-.013,1.2-.027,1.821H833.6v.73h1.547c-.012.571-.039,1.144-.052,1.7h-1.547v.728h1.522c-.026.6-.052,1.159-.078,1.652h-1.821v-7.284h-4.436v7.284h-1.782l-.052-1.691h1.5v-.728h-1.51l-.064-1.7h1.509V240.2h-1.52l-.054-1.6c.625-.169,1.314-.377,1.86-.586l-.416-.74a19.736,19.736,0,0,1-2.225.818l.208,6.96h-1.066v.807H836.77v-.807Zm-6.348-6.581h3.095v6.581h-3.095Zm.377.949v.612h2.277v-.612Zm.183,4.526h2v-2.99h-2Zm.481-2.406h1.027v1.821h-1.027Zm1.808,5.127a29.741,29.741,0,0,1,3.695,2.171l.559-.65a30.213,30.213,0,0,0-3.772-2.12Zm-3.4-.508a15.236,15.236,0,0,1-3.617,2.12,4.521,4.521,0,0,1,.522.65,20.648,20.648,0,0,0,3.863-2.25Zm-22.893-2.056a.847.847,0,1,0-.794-.833A.808.808,0,0,0,805.954,244.106Zm-23.9,3.76c-.872,0-1.041-.171-1.041-.873V242.4l1.872-.794v4.477h.821V241.27l1.938-.819a37.34,37.34,0,0,1-.1,3.98c-.064.3-.208.365-.4.365-.143,0-.586,0-.911-.025a2.837,2.837,0,0,1,.208.755,5.989,5.989,0,0,0,1.2-.079.843.843,0,0,0,.7-.819,45.7,45.7,0,0,0,.144-4.918l.039-.169-.612-.248-.155.144-.194.171-1.848.78V237.1h-.821v3.629l-1.872.794v-3.227H780.2v3.578l-1.431.6.338.755,1.093-.47v4.24c0,1.328.4,1.652,1.846,1.652h3.279c1.326,0,1.6-.559,1.743-2.314a2.237,2.237,0,0,1-.782-.351c-.09,1.536-.221,1.887-.988,1.887Zm-4.358-6.818h1.561v-.819H777.7v-2.978h-.819v2.978H775.19v.819h1.691v4.228c-.677.286-1.3.547-1.8.716l.34.858c1.13-.495,2.588-1.145,3.98-1.782l-.182-.769c-.52.21-1.027.431-1.522.652Zm-11.91,6.191V243.1h-8.3v4.135H759.6a16.492,16.492,0,0,1-3.811,1.093,7.427,7.427,0,0,1,.52.6,16.083,16.083,0,0,0,4.189-1.314l-.625-.378h3.1l-.481.419a33.339,33.339,0,0,1,3.994,1.313l.753-.546a34.463,34.463,0,0,0-3.875-1.186Zm-7.467-3.576h6.6v.637h-6.6Zm0,1.172h6.6v.649h-6.6Zm0,1.182h6.6v.664h-6.6Zm-1.99-3.318c1.26-.078,3.044-.208,4.772-.338l.013-.612c-.612.039-1.221.078-1.808.118v-.639h1.561v-.546h-1.561v-.65h1.757v-.573H756.88v.573h1.677v.65H757.01v.546h1.547v.691c-.884.051-1.666.089-2.3.128Zm10.381-1.509v-.534h-2.329v-.6h1.691v-.546h-3.238c.1-.169.194-.338.286-.52l-.664-.1a4.508,4.508,0,0,1-1.13,1.456,2.145,2.145,0,0,1,.48.313h-.48v.534h2.314v.9h-1.223v-.664h-.662v1.21h4.578v-1.21h-.689v.664h-1.262v-.9Zm-4.8-.534a5.582,5.582,0,0,0,.559-.6h1.171v.6Zm-5.073-1.938h9.392v1.041h.819v-1.755H762.2a4.234,4.234,0,0,0-.532-.988l-.833.208a7.378,7.378,0,0,1,.4.78h-5.191v1.742h.794Zm-9.191,1.027h-3.565V237.1h-.924v2.652h-6.737v.885h5.892a17.351,17.351,0,0,1-6.3,5.958,3.644,3.644,0,0,1,.652.767,19.734,19.734,0,0,0,6.49-6.426v6.609c0,.26-.1.338-.363.351s-1.145.013-2.081-.025a3.743,3.743,0,0,1,.313.9,9,9,0,0,0,2.444-.155c.429-.157.611-.417.611-1.068v-6.908h3.565Zm-19.586.911v-.779h-5.2v-1.458a31.769,31.769,0,0,0,3.916-.612l-.65-.664a53.639,53.639,0,0,1-8.6.924,2.745,2.745,0,0,1,.2.7c1.365-.052,2.848-.144,4.279-.274v1.38h-5.178v.779h4.151a11.909,11.909,0,0,1-4.553,2.759,4.854,4.854,0,0,1,.559.7,12.82,12.82,0,0,0,5.009-3.461H722v2.564h.858v-2.564h.027a12.187,12.187,0,0,0,4.956,3.306,4.952,4.952,0,0,1,.571-.716,11.666,11.666,0,0,1-4.526-2.59Zm-3.745,4.4c.155-.481.338-1.027.481-1.522h-6.335v.755h1.951a4.531,4.531,0,0,1-3.539,3.98,2.116,2.116,0,0,1,.507.7,5.353,5.353,0,0,0,3.929-4.683h2.433a11.157,11.157,0,0,1-.507,1.522h2.953c-.157,1.34-.312,1.924-.534,2.12a.776.776,0,0,1-.507.1c-.287,0-1.054-.014-1.835-.079a1.89,1.89,0,0,1,.285.794c.755.052,1.483.066,1.835.052a1.305,1.305,0,0,0,.911-.324c.351-.326.547-1.134.742-3.044a3.454,3.454,0,0,0,.039-.378Z" transform="translate(95.181 33.184)" fill="#fff"/>
    <rect id="Rectangle_23" data-name="Rectangle 23" width="23.117" height="0.78" transform="translate(782.032 275.814)" fill="#fff"/>
    <rect id="Rectangle_24" data-name="Rectangle 24" width="23.117" height="0.78" transform="translate(1003.248 275.814)" fill="#fff"/>
    <path id="Path_292" data-name="Path 292" d="M292.43,546.034l-.628-.472-2.412-.466-.709-.081h-.311l-.311.081-.4.155-.23.236-.472-.081h-.391l-.311.081-1.02.466-1.1.864-1.256.7-.311.08h-.392l-.392.317-.472.23-2.021.708-.392.311-.311.392-.081-.075V549.4l.081-.155v-.156l-1.1.622-.311.317h-.391l-.236.081-.472.229-.473.317-.311.075h-.311q-.473.286-.945.553l-6.018,2.742-.864.547-1.331.317-2.275,1.095-1.175.236-.311.081-.156.155-.864.628-.317.075h-.311l-.7.547-1.555.864-2.586,1.02-1.8.473-6.254,2.6-3.295,1.1-3.369.857v.318l.155.31.236.317.081.237v.23l.392.316.864.311,1.33.236.784.317.628.155h.311c2.816-.8,5.672.877,7.8-.036,3.622-1.556,4.507-1.4,9.318-3.791,2.576-1.28,4.741-2.364,6.128-3.166,6.536-2.731,7.715-3.666,12.583-6.037l.316-.392.392-.311,1.411-.783.391-.317.311-.392.628-.155,1.1-.628.466-.391c1.793-1.964,1-1.42,2.9-2.35l.547-.547.609-.318.237.081h.155l1.181-.317.23-.156.237-.237.081-.311v-.391Zm-4.768,40.378-7.206-1.013-2.493-1.729-7.528-4.7-.155-.473-.08-.391.08-.391.155-.391.236-.317,1.02-.939.548-2.505.161-2.667-.081-2.742.081-2.823h-.236l-1.02,1.02-1.709,2.35-3.761,6.428-1.336.081-.622-.081-.553-.155-2.269-1.02-1.492-.08-2.885-1.02-1.566-.392-.547-.311-1.256-.392-8.6-.547-.783-.162-.945.162-2.978.155-.858.155-.379.236-.391.155-.392.311-.547.708-.156.547.7.081.783-.081.846-.236.709-.311.466.783.554.081c4.352,0,11.431,3.271,13.857,6.266,3.064,2.233,2.561,1.358,4.071,3.295v.466l-.311.628-1.337,1.337-2.816,3.525-.628.628-1.728,1.33-2.35,2.194-1.785,1.256-1.02.466-.391.081-.236.156-.708.709-.23.155-.317.081h-.311l-.628.547-1.566.7-3.295.864-.7.311H234.6l-1.331-.23-.628.075H232.1l-1.1-.311-1.094-.473-1.181-.311.945.784.236-.081.547.237.938.939.709.391h.23c.7-.22,7.6,2.887,13.546-.074l2.275-.709.7-.391.609-.466.236-.236.237-.392.708-.08.547-.156,1.877-1.566.473-.317.472-.237.075-.311.08-.155.156-.155.472-.237.155-.155v-.162l3.059-2.586,2.884-2.9.075-.472.081-.075.081.075.392-.075.311-.162.236-.23.074-.317h.317l.392-.081,1.33.163h.317a11.357,11.357,0,0,1,1.641,1.175c1.036-.681,6.3,4.555,7.355,5.408l.783.783.391-.236h.156l.236.236.155.311.081.317.156.311.236.236h.237l.236.547.311.391.317.156.391.081.783.31c1.765,1.8,5.261,3.061,7.932,3.844a6.12,6.12,0,0,0,3.73.234h.311l.3.156c.328-.108,4.872.136,7.1.289,1.286.089,15.821.413,16.141.339l.236.08.081.155.081.081.311-.162h.155l.709.391.391-.075.392-.155.7-.162.317-.155.23-.156.236-.31.155-.4-.074-1.014-.628-3.059-1.174-1.492a50.872,50.872,0,0,0-11.034-7.049h-.554l-.466.155h-.156l-.236-.081-.156-.155-.08-.156-3.276-.472h-3.133l-.628-.236-1.256-.23h-2.35l-.547-.081ZM255.5,539.134l-.7.161-2.039.784-.7.155h-.708l-.236.237v1.174l.547.628,1.181.939.7.391.236-.783.472,1.019.858.392,3.686,1.175,1.157.783.553.709.155.466-.155.472-.081.473-.081.23v.236l-.155.155-.236.161.236,1.02.081.155.391.391.236.075.311.317.783.155h.784l.391.08.317.156.311.236.391-.081h.317l.783.081h.311l.317-.081.311-.236.156-.391v.236l.391.08.318-.08.236-.155.074-.317h.547l.473-.155a3.366,3.366,0,0,0,.391-.237l.392-.311.535-.708.467-.466h.161l.074.075v.161l.391-.081.317-.155,1.175-1.1a3.346,3.346,0,0,0,.391-.236l.392-.156.311-.074.162-.162.074-.155.081-.237.156-.783.155-.237.473.473,1.174-2.269V543.6l-.547-.864-.708-.783-.784-.628-.858-.466-1.02-.392-1.02-.237-1.1-.08-1.082.08-.155.237-.155.155-.155.081h-.081l-.311-.081-.391-.155-.317-.237-.392-.08H266.3l-.161.161-.23.156-5.881-.628-.783-.317-.3.08h-.311l-.553-.155-.311-.156h-.547l-.317.23-.392-.23-.7-.161Z" transform="translate(590.332 -343.737)" fill="#fff"/>
    <path id="Path_293" data-name="Path 293" d="M423.327,566.343l.644-.092.322-.092h.691l.368.046.092.184.092.263v.138l-.046.322-.092.276-.46.828-.093.322-.092.046-.092.184v.322l-.092.092-1.1,2.44-.921,1.7-.414.553-.507.23-.506.322-.277.092h-.362l-.138-.046-.138-.093-.092-.138-.23-.23-.184-.277-.277-.6-.184-.6-.092-.644.184-1.1.046-3.545-.046-.23v-.184l.322-.816.276-.368,2.066.553.967.138ZM420.564,547.9l.092.184.138.184.093.184v.093l-.047.092-.046.184-.092.092-.138.092-.454.139-3.223.638-.921.368h-.276l-.277.046-.46.138-.093.277-.138-.139-.184-.045-.409.092-.138.092-.184.046-.922.138-.875.414-.414.138-.23.046-.231-.046-1.8.645-.276.138-.276.184h-.322l-1.191.415-.322.046-.276-.046-.323-.139-.184-.506v-.461l.046-.23.277-.644.875-1.289.184-.454,1.329-.829,1.29-1.013,2.947-1.612,1.513-.737,1.612-.461m14.352,5.565h.322l.368.046.322.139.139.092.138.138v.185l-.092.184-.185.276-.184.046-.276.276-.093.138-.046.322v.138l-.138.138h-.092l-.046-.092-.092-.138-.092-.093-.507.093-.138.046-.276-.092-.092-.138-.092-.092-.046-.092-.047-.23.047-.276-.047-.322.231-.23.644-.368Zm11.774-4.828-1.059-.46H440.8l-2.112-.184-1.013.046-.46.139-.323.184-1.243,1.243-.6.461-4.23.368-.23-.046-.414-.184-.184-.184-.276-.369-.184-.46-.092-.553v-.138l.046-.185.092-.138.138-.093-.046-.355-.415-.921-.828-1.059-2.2-1.151-.322-.23-.277-.322-.184.046-.736-.46-.138-.046h-.184l-.138-.184-1.7-.914h-.368l-.368-.046-.69-.322h-.461l-.177-.046-.046-.046-.046-.092-.782-.184-1.75-.783-3.269-1.013-2.526.092-.829-.092-.092.092v.184l.138.276.138.184.092.276.138.23.828.921.461.415.184.23.23.5.047.23-.047.23-.092.276-.185.277-.276.276-.092.046-.046.045-.046.138-.046.093-.046.045h-.185l-.368.322-1.611,1.934-.415.368-.414.276-.276.4-.092.092-.138.046h-.23l-.138.139-.776.506-.138.138-.046.139h-.277l-.69.138-1.289.553-.414.138-.507.046h-.507l-.966.921-2.158,2.434-.507.461-.046.138-.092.184-.461.644-.046.138-.414.184-.185.138-.092.184-.467.829-.552.736-.184.414-.553,2.3-.23.276-.231.736-.184,1.8v.323l-.277,1.565v.322l.368,1.329.092.553.184.553.047.368.092.322.553,1.2.092.322.046.322,1.105,1.322.513.369.276.046.23.092.828.553.231.092.506.092.138.046.316-.092.23-.184.185-.23.321-.645.369-.507.276-.816.185-.368.737-1.059.552-.645,2.533-2.256.092-.369.092-.132.231-.23.138-.046.315-.046,2.993-2.257.276-.138.276-.046h.138l.138.046.092.092.092.138.139.783-.047.783-.138.322-.047.322v.638l.092.644v1.013l-.138.967-.138.6.092.645-.092.231v.539l-.046.414-.046.184-.092.23.092.322-.092,1.8.092.322.046.6-.368,2.986v.553l.138.6-.092,4.6.046.231v.461l-.322.921v.23l-.276.6-.047.322v.138l.047.184.276.506.092.323.092.644v.315l-.092.645.138,4.5-.046,2.3.092,2.348-.046,1.052.184,2.119-.047,1.013,1.98,3.355,1.006,1.2.553.507.644.415.691.23h.737l.737-.092.553-.368.921-.875.368-.552.6-1.151.177-.638.138-.967V598.8l-.092-.645-.316-1.2.362-1.934.276-.6-.092-.322-.546-.683v-.369l-.092-.276-.461-.876-.092-.322v-.322l.092-.368-.138-.552-.184-2.7-.139-1.059.276-.414.184-.138.415-.092,1.973.414h.276l.231-.046L423,586.2l.507-.276,2.624-1.013,2.572-.69.6-.27.736-.184h.737l.644.092.461.362.092.276v.323l-.184.184-.138.184-.185.414-.368.553-.184.138-.461.507-.506.782-.461.414-.323.185-1.473,1.782-1.605,1.566-.828.322-.23.046-.368.184-.185.185-.69,2.526L423.7,595.9l.046.6.6.46.691.369.46.138.415.184,1.6.967.415.184.507.092.23.276.322.184.645.184a16.2,16.2,0,0,0,3.677-.414l.691-.875.46-.368.276-.139.6-.184.276-.138.23-.184.092-.092.047-.138.092-.138v-.184l-.092-.276-.185-.231-.368-.368-.507-.276-2.25-.783-1.842-.507-.368-.276v-.132l-.046-.184.092-.23.322-.415.737-.46.231-.184.092-.368.184-.276.276-.276.276-.184.639-.322.552-.415.369-.507,1.289-1.184,1.381-1.151.461-.46.184-.046.138-.139.231-.322.184-.415.276-.276.093-.23.138-.184.684-.644.783-.6.414-.546.184-.506.046-.276-.368-.691-.552-.6-.961-.645-.368-.139h-.184l-.6-.414-.138-.046h-.138l-.138.093-.368-.276-.829-.414-.23-.092-.184-.138-.276-.092-.277-.046-.276.046-.829.276-.6.092-.138.138-.546.276-1.519.185-.691.322-4.138.829-3.177.829-.6.23-.368.046-1.428.369-.362.046h-.322l-.322-.092-.185-.23-.276-.875-.093-3.039-.046-.276-.093-.276.047-.138V577.6l.046-.139.092-.138.23-.092.092-.23.139-.184.322-.322.822-.461,1.382-.461.414-.23,2.21.967.876.184.322.092h.868l.185.091,1.8-.506,2.256-1.105.552-.368.139-.23.184-.185.461-.369.184-.184.092-.23v-.092l-.046-.139-.046-.092-.138-.138-.967-.276-.921-.415-.967-.276h-.507l-.828.139-.691.276-.23.046h-.23l-.23-.092-.231-.184-.085-.138-.092-.185v-.276l.046-.132.092-.092.223-.276.6-.414.415-.507,3.96-3.5,1.191-1.276.368-.782.046-.23v-.23l-.092-.23-.276-.414-.185-.184-1.329-.921-1.888-.645-.6.092-.875-.138h-.322l-.276.046-.276.092-.184-.138-.138-.046-.684.184h-.139l-.138-.092-.276.092-1.382.276-.23.093-.368-.047h-.783l-.368.047-1.474.368-.461-.092-.454.092-.415.138h-.23l-.184-.046-.23-.092-.138-.138-.138-.185-.276-.506-.092-.362-1.428-1.612-.322-.276-.691-.461-.093-.184-.414-.414-1.013-.507-.276-.184-.131-.138-.093-.138-.092-.415V557l.092-.276.638-.6.691-.322,1.565-1.1.369-.184.368-.322.829-.507,1.842-.782.408-.231,2.164-.507,2.026-.644,1.151.368.138.23.684.414.368.369.092.23v.277l-.506.552-.5.322-.184.046.322.092h.315l.691-.138.691-.092h.322l.368.046,1.75-.046,3.309-.276,1.75-.23.277-.138.276-.092.277-.046,1.611.092.914.322.875.552,1.566,1.375,1.335.968.6.276.322.046h.6l1.157-.322.507-.276.875-.783.776-1.052.23-.139.276-.414.184-.737.184-.46-.046-.553-.276-.967-.461-.828-.915-1.105-.276-.178-.184-.23-.184-.184h-.276l-1.48-1.428-1.7-1.934Z" transform="translate(504.825 -342.347)" fill="#fff"/>
    <path id="Path_294" data-name="Path 294" d="M526.443,567.8a17.983,17.983,0,0,1-1.223,2.312q-.962,1.972-1.749,3.428-1.136,2.053-1.224,2.137a2.434,2.434,0,0,1-1.224.039,20.723,20.723,0,0,0-2.272-.178q-1.224-.049-1.224-.311l.262-.6a1.225,1.225,0,0,0,.35-.685l.437-.42a2.759,2.759,0,0,0,.612-1.112,1.377,1.377,0,0,1,.438-.595.222.222,0,0,0,.262-.252q0-.262.437-.682a5.966,5.966,0,0,0,.787-1.193q.437-.77.612-1.025a5.373,5.373,0,0,1,.612-.325,5.1,5.1,0,0,1,.961-.573,13.04,13.04,0,0,1,1.311-.3q.525-.066,1.486-.116l.524.021Zm18.1-42.266a.493.493,0,0,0-.349.073q-.088.259-.35-.013a.886.886,0,0,0-.349.03c-.058.027-.088.127-.088.3l.175.181-.437-.192a3.2,3.2,0,0,0-.874-.385s.029.118.087.353a5.443,5.443,0,0,1,.088.7q0,.175-.438-.018c-.116-.238-.175-.3-.175-.181a.6.6,0,0,1-.044.26c-.029.057-.1.084-.218.079s-.291.163-.525.5a3.5,3.5,0,0,0,.35,1.937,9.508,9.508,0,0,1,.393,1.633,21.421,21.421,0,0,1-.044,2.227,8.569,8.569,0,0,1-.087,1.22,7.3,7.3,0,0,0-.087,1v.393q-.088,0-1.574.55a14.155,14.155,0,0,1-2.535.511,5.568,5.568,0,0,1-.961.312,1.914,1.914,0,0,0-.787.318q-.874.228-1.573.375-.786.144-3.235.921-2.185.526-2.622.6c-.058.114-.146.11-.262-.011l-.787-.818a14.766,14.766,0,0,0-1.485-1.632,2.476,2.476,0,0,0-1.224-.835,1.07,1.07,0,0,0-.962-.213c-.116.112-.262.077-.437-.1q-.087-.091-.131-.093c-.029,0-.015.028.044.089l.262.36c0,.058-.087.084-.262.077a1.208,1.208,0,0,0-.437.245q-.088.345-.262.339c-.116-.063-.2-.008-.262.165a.649.649,0,0,1-.087.259,7.53,7.53,0,0,0,.087,1.926,15.457,15.457,0,0,1,.262,1.672q0,.524-1.136.829a5.933,5.933,0,0,1-1.049.22q-.437.157-1.4.469a6.566,6.566,0,0,1-1.486.291,1.189,1.189,0,0,0-.524.067,3.528,3.528,0,0,1-1.137.217,10.513,10.513,0,0,1-2.535-.013,7.448,7.448,0,0,0-1.923-.076,2.492,2.492,0,0,1-.349.248l-.525-.021a.367.367,0,0,0,.087.265q.175.095,0,.349-.175.169-.175.081-.35-.014-.524.416c-.291.339-.466.535-.525.591q-.175.168.612.811.35.363.35.538a5.393,5.393,0,0,0,.262.8,1.977,1.977,0,0,1,.874,1.259,2.054,2.054,0,0,0,.219.8,3.426,3.426,0,0,0,.306.362,1.019,1.019,0,0,1,.874.559,2.871,2.871,0,0,0,1.049.216,7.871,7.871,0,0,0,1.137.22,4.57,4.57,0,0,1,.961.606,2.578,2.578,0,0,0,1.18.528,1.776,1.776,0,0,1,1.005.477,1.422,1.422,0,0,0,.48.194.463.463,0,0,0,.306-.163,1.576,1.576,0,0,1,.962-.4q.874-.228.961-.4a1.446,1.446,0,0,1,.35-.074,4.66,4.66,0,0,0,1.049-.308,3.054,3.054,0,0,0,1.312-.822,3.885,3.885,0,0,1,.786-.143q.175.007.787.731a5.9,5.9,0,0,1,.962,1.524,2.515,2.515,0,0,0,1.311.926,5.255,5.255,0,0,0,1.487.846,4.489,4.489,0,0,0,1.311.489l.962.3.611-.326q.875-.4.875-.664.087-.434-.087-.528c-.058-.061-.088-.106-.088-.135s.058-.1.175-.211l.262-.252-.262-2.2a11.629,11.629,0,0,0-.875-3.706,8.1,8.1,0,0,1-.262-1.321.493.493,0,0,1,.088-.347,4.371,4.371,0,0,0,.874-.664q.525-.5.7-.5a1.688,1.688,0,0,0,.786-.144,1.038,1.038,0,0,1,.612-.238.727.727,0,0,0,.306-.119,1.748,1.748,0,0,0,.481-.462,4.187,4.187,0,0,1,1.136-.567q.875-.228.875-.49c0-.117.029-.173.087-.172a4.675,4.675,0,0,0,.962-.224q.961-.224,1.311-.3a4.021,4.021,0,0,1,.786-.056q.262.01.175.181,0,.088-.087.871a17.4,17.4,0,0,0-.437,2.168q-.176,1.916-.525,4.088a31.677,31.677,0,0,1-.262,3.312q-.087,1.133-.175,2.265-.175.868-.349,1.91-.175,1.129-.262,1.65a1.881,1.881,0,0,0-.262.689v.35h0l.262-.426c.116-.346.262-.456.437-.333.117.121.058.323-.174.605v.219q0,.044.174.138a.526.526,0,0,1,.175.357c0,.058.059.09.175.095s.35-.249.7-.759l.437-.813q.437-.814.612-1.156a13.214,13.214,0,0,1,1.049-1.619,3.372,3.372,0,0,1,.874-.752,3.45,3.45,0,0,1,.525-.679,3.632,3.632,0,0,0,.875-1.1,7.214,7.214,0,0,1,.961-1.1q.7-.672,1.224-1.262a4.784,4.784,0,0,0,.962-1.448,2.351,2.351,0,0,1,.612-1.287,4.3,4.3,0,0,1,.612-.937,7.48,7.48,0,0,0,1.137-1.878,11.583,11.583,0,0,0,.612-1.549,4.85,4.85,0,0,0,.524-.679.958.958,0,0,0,.087-.434,2.032,2.032,0,0,1,.262-.689,1.617,1.617,0,0,1,.088-.521l.262-.339a.979.979,0,0,1,.612-.5,5.707,5.707,0,0,1,1.486.409q1.049.391,1.661.678a4.048,4.048,0,0,0,.786.206,3.5,3.5,0,0,1,.962.3,1.561,1.561,0,0,0,1.312.314,3.6,3.6,0,0,1,1.049-.308,1.247,1.247,0,0,0,.786-.755v-.962a2.878,2.878,0,0,1-.175-1.056,1.561,1.561,0,0,0-.131-.748,4.692,4.692,0,0,0-1.093-.874q-1.136-.833-2.01-1.566a7.336,7.336,0,0,1-1.136-.744.4.4,0,0,0-.175-.313,1.591,1.591,0,0,0-.437-.236q-.524-.2-.524-.37c0-.058-.029-.03-.087.084a1.8,1.8,0,0,1-.394.246c-.029,0-.044-.089-.044-.263-.058-.12-.175-.124-.349-.014q-.35.073-.437-.018a2.546,2.546,0,0,0-.437.07,1.281,1.281,0,0,1-.7.235,1.877,1.877,0,0,1-.656.017.578.578,0,0,1-.219-.14,2.349,2.349,0,0,0-.349-1.325,10.212,10.212,0,0,1-1.05-1.79,11.136,11.136,0,0,0-2.01-2.44q-1.224-1.185-2.185-2.01A4.836,4.836,0,0,0,544.546,525.539Zm8.809,30.828a1.349,1.349,0,0,0-.874.315,1.751,1.751,0,0,1-.787-.031,1.457,1.457,0,0,0-.612-.2,1.953,1.953,0,0,0-.612.151,2.38,2.38,0,0,1-.524.154q-.087,0-.263.252a4.893,4.893,0,0,0-.087.958v.524l-2.1.878a6.607,6.607,0,0,0-1.093.525,4.044,4.044,0,0,1-.568.327.552.552,0,0,1-.393.072l-.131-.049a2.775,2.775,0,0,0-.35-1.063,3.029,3.029,0,0,0-1.136-1.094q-.875-.471-1.049-.391a.754.754,0,0,1-.349.073,2.211,2.211,0,0,1-.787-.118c-.058-.061-.087-.062-.087,0s-.175.08-.525.067q-.349.074-.349.161a.941.941,0,0,0,.175.357,3.022,3.022,0,0,0,.131.442c.029.059-.014.174-.131.344a.459.459,0,0,0-.175.3.879.879,0,0,0,.175.4,7.254,7.254,0,0,1,.174,1.843,8.85,8.85,0,0,1-.044,1.135,1.425,1.425,0,0,1-.306.6,10.139,10.139,0,0,1-1.4.819,4.042,4.042,0,0,1-1.049.483,3.62,3.62,0,0,1-.874.053,1.423,1.423,0,0,0-.7.06,1.394,1.394,0,0,1-.787.144q-.349-.013-.349.074v.017q-.359-.09-.862-.222a4.536,4.536,0,0,0-1.049-.479,1.186,1.186,0,0,1-.7-.553c-.117-.179-.234-.271-.35-.276a.977.977,0,0,1-.481-.237q-.306-.23-.394-.147a.922.922,0,0,1-.786.144q-.438-.017-.438-.192l-.436-.105a4.948,4.948,0,0,0-.962-.125.942.942,0,0,0-.306.032c-.087.025-.131.067-.131.125q0,.35-.263.427-.262.251-.349.161a1.59,1.59,0,0,0-.612-.287,1.035,1.035,0,0,0-.875.315,2.212,2.212,0,0,0-.437.595q-.262.076-1.224.388l-1.049.221.786-1.368a6.278,6.278,0,0,1,1.049-1.969,1.457,1.457,0,0,0,.438-.77,2.722,2.722,0,0,1,.174-.78.624.624,0,0,0,.175-.473,2.72,2.72,0,0,0-.262-.928,2.091,2.091,0,0,0-.393-.933,9.875,9.875,0,0,0-1.093-1.136,5.029,5.029,0,0,0-1.573-1.549,1.438,1.438,0,0,0-.875-.209.738.738,0,0,1-.787-.119l-.088-.092h-.044c-.029,0-.043.027-.043.086v.262a.161.161,0,0,1-.175-.182h0q0-.088-.175-.094t0,.263c0,.116-.029.188-.087.215a.887.887,0,0,1-.35.029c-.117,0-.263.165-.437.508a1.215,1.215,0,0,0-.612.762,14.633,14.633,0,0,1-1.4,3.179q-1.4,2.48-1.661,2.906l-.088.259a3.879,3.879,0,0,1-.306.643,2.961,2.961,0,0,0-.306.731q-1.049,2.144-1.661,3.343-1.137,2.315-1.224,2.486a17.251,17.251,0,0,0-1.136,2.315q-.7,1.371-1.049,2.144a1.5,1.5,0,0,0-.044.611,2.5,2.5,0,0,0,.393.8,7.508,7.508,0,0,1,.612,1.336,5.727,5.727,0,0,1,.437.979q.262.623.35.8c.058.119.233.125.524.021a.581.581,0,0,1,.612.286q.525.371.787.206.175-.081.175-.431t.263-.339a1.807,1.807,0,0,1,.7-.322q.262-.252.35-.248a1.863,1.863,0,0,1,.524.37q.438.454.7.464a8.579,8.579,0,0,1,1.137.657q1.224.923,1.049.916a6.036,6.036,0,0,1-.436.944l-1.574,2.036q-.873,1.1-2.36,2.966a25.444,25.444,0,0,0-1.836,2.112,15.2,15.2,0,0,1-1.661,1.508,22.909,22.909,0,0,0-2.622,2.343q-1.4,1.256-1.4,1.431t-.437.332a4.334,4.334,0,0,0-.874.664,1.2,1.2,0,0,0-.087.74c.058.148.117.179.175.094a.38.38,0,0,1,.349-.117q.35.014.35.145c0,.088-.073.157-.218.21s-.131.083.044.089a1.629,1.629,0,0,0,.524-.067,2.915,2.915,0,0,1,1.049-.658q.525-.592.786-.581.35.1,1.224-.564a5.8,5.8,0,0,1,1.486-.9.653.653,0,0,0,.611-.238q.175-.255.175-.124a1.374,1.374,0,0,1-.087.39q-.088,0,.437-.245a1.414,1.414,0,0,0,.437-.419,12.157,12.157,0,0,0,1.136-.654,1.348,1.348,0,0,1,.525-.416l.524-.329c0-.059.058-.085.175-.081.059,0,.088.018.088.048v.044l-.088.084.175-.08q.087-.171.437-.07.175.094.787-.232a5.54,5.54,0,0,0,.962-.311,5.049,5.049,0,0,1,1.049-.57q.874-.4.874-.665,0-.087.524-.242a1.672,1.672,0,0,0,.961-.486l.525-.5a.491.491,0,0,1,.35-.074.493.493,0,0,0,.438-.245,5.921,5.921,0,0,1,.612-.413,1.626,1.626,0,0,1,.787-.319,8.2,8.2,0,0,0,1.661-1.463,14.993,14.993,0,0,1,1.967-1.758,1.509,1.509,0,0,1,.743-.276,3.766,3.766,0,0,0,.961-.312,2.047,2.047,0,0,0,.481-.374,3.653,3.653,0,0,0,.481-.55l.262-.645q.087-.215-.175-.313a2.26,2.26,0,0,0-.436-.8,5.729,5.729,0,0,0-.175-.794,1.115,1.115,0,0,1,.262-.864,9.15,9.15,0,0,0,.611-1.025,1.12,1.12,0,0,1,.525-.766,5.491,5.491,0,0,0,.962-1.011q.525-.853.612-.85a.7.7,0,0,1,.262.1q0,.087.175-.168l.088,0a9.285,9.285,0,0,1,.961-1.885,7.935,7.935,0,0,0,.962-2.147,5.062,5.062,0,0,1,.874-1.538,6.045,6.045,0,0,0,.909-1.406,2.661,2.661,0,0,0,.828.159,2.092,2.092,0,0,0,.787-.143,1.8,1.8,0,0,0,.306-.032,2.107,2.107,0,0,1,.262-.033l.044,0,.088,0a.709.709,0,0,0,.219-.035.808.808,0,0,0,.306-.206l.612-.15-.087.7-.175,1.654a14.771,14.771,0,0,1-.349,1.734q-.262,1.039-.349,1.56a3.959,3.959,0,0,1-.35,1.385v7.649a2.338,2.338,0,0,0,.263,1.191,16.354,16.354,0,0,0,.786,1.78,3.93,3.93,0,0,0,.7.989,8.155,8.155,0,0,1,.7.814,15.369,15.369,0,0,0,1.4,1.455,10.544,10.544,0,0,1,.918.91,6.193,6.193,0,0,0,1.267.575q.963.737,1.487,1.2.611.461.786.293.088-.084,1.224.573a6.63,6.63,0,0,0,1.66.765q.613.112,2.273.352a18.722,18.722,0,0,0,2.1.258,2.779,2.779,0,0,1,.524.2q.35.1,5.42.3a40.269,40.269,0,0,0,5.507.044q.611-.064,1.4-.207a2.334,2.334,0,0,0,1.224-.213,15.546,15.546,0,0,1,1.748-.368q1.224-.3,1.487-.378.087-.172.961-.268a2.365,2.365,0,0,0,.918-.183q.044-.085.349-.073c.2.008.422-.144.656-.455a1.4,1.4,0,0,1,.611-.544.5.5,0,0,0,.35-.336c.058-.231.117-.315.175-.255a.169.169,0,0,0,.262-.077,2.349,2.349,0,0,0,.087-.521,1.469,1.469,0,0,1,.438-.682,1.124,1.124,0,0,0,.175-.649.855.855,0,0,1,.262-.645,1.782,1.782,0,0,0,.088-.3c0-.029-.029-.073-.088-.134q-.262-.185-.262-.01a.148.148,0,0,1-.175.168q-.087,0,0-.524v-.612q.088,0,.087-.608v-.525a.162.162,0,0,0-.175-.182l-.437-.017q-.088,0-.088-.353V584.9h0q-.262.165-.262-.01a.563.563,0,0,1,0-.437.4.4,0,0,0-.088-.441q-.087-.091,0-.437c.058-.23.029-.378-.087-.44q-.35-.189-.175-.444a1.054,1.054,0,0,0-.35-.713,1.9,1.9,0,0,1-.175-.968V579.7a3.831,3.831,0,0,1,.874-1.627,15.892,15.892,0,0,0,.961-1.447l.438-.857v-.088l-.088,0c0,.058-.015.087-.044.086l-.044,0h0a.646.646,0,0,1,.087-.259c.058-.289.088-.433.088-.433q-.088,0-.612.5a11.95,11.95,0,0,0-1.486,1.077q-.612.588-1.311,1.172-.875.578-2.361,1.742a22.261,22.261,0,0,1-2.709,1.816,17.918,17.918,0,0,1-3.322,1.355,24.163,24.163,0,0,1-2.885.847,14.581,14.581,0,0,0-2.71.5,15.372,15.372,0,0,1-4.808.421q-2.8-.111-5.682-.138a20.89,20.89,0,0,1-3.758-.237q-.788-.293-1.749-.681a4.636,4.636,0,0,1-1.4-1.367,3.081,3.081,0,0,1-.786-.9q0-.437-.175-1.93-.087-1.752-.087-3.15a11.7,11.7,0,0,1,.349-2.871,13.264,13.264,0,0,0,.7-2.77q.175-1.216.35-2.259a7.925,7.925,0,0,1,.437-1.294,1.718,1.718,0,0,0,.35-.685,4.357,4.357,0,0,1,.175-1.217,4.586,4.586,0,0,1,.961-1.011q.787-.494,2.361-1.3,1.748-.805,1.835-.889.525-.154,1.224-.3c.525-.038.787-.027.787.031t-.087,1.57a23.776,23.776,0,0,1-.874,4.861q-.525,3.3-.525,3.651a.514.514,0,0,1-.131.388,1.021,1.021,0,0,1-.481.2,4.092,4.092,0,0,1-.787.056c-.175-.007-.32.119-.437.376a.561.561,0,0,1-.568.371c-.262-.011-.393.014-.393.072-.058.172-.058.289,0,.349a1.344,1.344,0,0,0,.7.028l.175.007q.087,0,0,.087t.262.36l.262.273-.262.164a1.207,1.207,0,0,1-.7.147.893.893,0,0,0-.35.03c-.058.026-.029.1.087.222a1.334,1.334,0,0,0,.787.294,1.091,1.091,0,0,1,.7.246,1.835,1.835,0,0,1,.437.586,1.76,1.76,0,0,1,.437.716c0,.117.117.266.35.451a3.262,3.262,0,0,1,.612.724.7.7,0,0,0,.087.266q.087.178.525.283l.524.021a.393.393,0,0,0,.613.112.656.656,0,0,1,.612.373q.087.266.611.112a4.21,4.21,0,0,1,.525-.067.7.7,0,0,1,.262-.689,5.038,5.038,0,0,0,.481-.243q.131-.082.568.109l.524.109.437-.857q.525-.765.35-1.122,0-.087.612-2.337.612-2.161,1.049-3.28a11.089,11.089,0,0,1,.525-1.728,1.815,1.815,0,0,0,.438-.944q0-.175.262-1.825a5.352,5.352,0,0,1,.306-1.124c.087-.172.306-.279.656-.324a2.547,2.547,0,0,0,.393-.29,1.14,1.14,0,0,0,.219-.56,2.057,2.057,0,0,0-.175-1.144,6.42,6.42,0,0,1-.437-1.241.431.431,0,0,1-.306-.274c-.029-.118-.058-.25-.088-.4l-.043-.22a.788.788,0,0,1,0-.524l-.044-.046c-.029-.03-.044-.016-.044.042a6.873,6.873,0,0,1-1.574-.674q-1.486-.846-1.573-.937a4.843,4.843,0,0,1-.787-.556.924.924,0,0,1-.7-.465,1.439,1.439,0,0,0-.393-.1,3.6,3.6,0,0,1-.83-.383Q553.618,556.378,553.356,556.367Z" transform="translate(448.97 -336.802)" fill="#fff"/>
    <path id="Path_295" data-name="Path 295" d="M163.839,585.664v-3.105h8.519v-4.512h5.012v4.512h8.519v3.105h-8.519q1.3,9.224,9.019,12.628V601q-8.718-2.706-11.427-8.42-3.207,6.017-11.624,8.42v-2.707q7.916-3.5,8.921-12.628Zm8.608-22.074V551.265h-9.023v-3.011h9.023v-7.715h4.811v7.715h9.019v3.011h-9.019V563.59Z" transform="translate(623.682 -344.454)" fill="#fff"/>
  </g>
</svg>
