<svg xmlns="http://www.w3.org/2000/svg" width="100" height="22.714" viewBox="0 0 100 22.714">
  <g id="logo-s" transform="translate(-13 -621.336)">
    <path id="Logo-mobile" d="M627.507,264.355a9.774,9.774,0,0,0,0-15.673Zm-11.678-15.673a9.773,9.773,0,0,0,0,15.673Zm5.349,17.6v-2.24h-4.368V265A9.714,9.714,0,0,0,621.177,266.279Zm.981-2.24v2.24A9.712,9.712,0,0,0,626.526,265v-.96ZM621.177,249v-2.239a9.714,9.714,0,0,0-4.368,1.279V249Zm.981-2.239V249h4.368v-.96A9.711,9.711,0,0,0,622.158,246.759Zm-3.276,16.3v-5.443l1.831-1.1-1.831-1.1v-5.444h-2.073v13.079Zm4.591,0V258.17l-1.805-1.08-1.805,1.08v4.888Zm.981-13.079v5.444l-1.831,1.1,1.831,1.1v5.443h2.072V249.979Zm-4.591,0v4.888l1.805,1.08,1.805-1.08v-4.888Zm1.805-4.213a10.753,10.753,0,1,1-10.753,10.752A10.752,10.752,0,0,1,621.668,245.766Z" transform="translate(-597.915 376.181)" fill="#d6b686"/>
    <g id="Title" transform="translate(38.204 621.336)">
      <path id="Path_1" data-name="Path 1" d="M248.631,541.29l-.2-.148-.754-.146-.222-.025h-.1l-.1.025-.124.049-.072.074-.148-.025H246.8l-.1.025-.319.146-.344.27-.392.22-.1.025h-.122l-.122.1-.147.072-.631.221-.122.1-.1.122-.025-.023v-.025l.025-.048v-.049l-.344.194-.1.1h-.122l-.074.026-.148.072-.148.1-.1.023h-.1q-.148.089-.3.173l-1.881.857-.27.171-.416.1-.711.342-.367.074-.1.026-.049.048-.27.2-.1.023h-.1l-.219.171-.486.27-.808.319-.563.148-1.954.812-1.03.344-1.053.268v.1l.049.1.074.1.025.074v.072l.123.1.27.1.416.074.245.1.2.049h.1c.88-.25,1.772.274,2.439-.011,1.132-.486,1.408-.437,2.912-1.185.8-.4,1.481-.739,1.915-.99,2.043-.854,2.411-1.146,3.932-1.886l.1-.123.122-.1.441-.245.122-.1.1-.122.2-.049.344-.2.146-.122c.56-.614.314-.444.907-.734l.171-.171.19-.1.074.025h.049l.369-.1.072-.049.074-.074.025-.1v-.122Zm-1.49,12.618-2.252-.317-.779-.54-2.353-1.469-.049-.148-.025-.122.025-.122.049-.122.074-.1.319-.294.171-.783.05-.833-.025-.857.025-.882H242.3l-.319.319-.534.734-1.175,2.009-.418.025-.194-.025-.173-.049-.709-.319-.466-.025-.9-.319-.489-.122-.171-.1-.393-.122-2.689-.171-.245-.051-.3.051-.931.049-.268.049-.119.074-.122.049-.122.1-.171.221-.049.171.22.025.245-.025.264-.074.222-.1.146.245.173.025a7.041,7.041,0,0,1,4.33,1.958c.958.7.8.424,1.272,1.03v.146l-.1.2-.418.418-.88,1.1-.2.2-.54.416-.734.686-.558.392-.319.146-.122.025-.074.049-.221.221-.072.048-.1.025h-.1l-.2.171-.49.219-1.03.27-.22.1H230.56l-.416-.072-.2.023h-.171l-.344-.1-.342-.148-.369-.1.3.245.074-.025.171.074.293.293.222.122h.072c.218-.069,2.375.9,4.233-.023l.711-.222.22-.122.19-.146.074-.074.074-.123.221-.025.171-.049.587-.489.148-.1.148-.074.023-.1.025-.049.049-.049.148-.074.049-.048v-.051l.956-.808.9-.905.023-.148.025-.023.025.023.122-.023.1-.05.074-.072.023-.1h.1l.122-.025.416.051h.1a3.556,3.556,0,0,1,.513.367c.324-.213,1.97,1.423,2.3,1.69l.245.245.122-.074h.049l.074.074.049.1.025.1.049.1.074.074h.074l.074.171.1.122.1.049.122.025.245.1a6.251,6.251,0,0,0,2.479,1.2,1.912,1.912,0,0,0,1.166.073h.1l.093.049c.1-.034,1.523.042,2.22.09.4.028,4.944.129,5.044.106l.074.025.025.049.025.025.1-.05h.049l.222.122.122-.024.122-.048.22-.05.1-.049.072-.049.074-.1.049-.124-.023-.317-.2-.956-.367-.466a15.9,15.9,0,0,0-3.448-2.2h-.173l-.146.049h-.049l-.074-.025-.049-.048-.025-.049-1.024-.148h-.979l-.2-.074-.392-.072h-.734l-.171-.025Zm-10.052-14.774-.22.05-.637.245-.22.048h-.221l-.074.074v.367l.171.2.369.293.22.122.074-.245.148.318.268.123,1.152.367.361.245.173.222.049.146-.049.148-.025.148-.025.072v.074l-.049.048-.074.05.074.319.025.049.122.122.074.023.1.1.245.049h.245l.122.025.1.049.1.074.122-.025h.1l.245.025h.1l.1-.025.1-.074.049-.122v.074l.122.025.1-.025.074-.049.023-.1h.171l.148-.049a1.043,1.043,0,0,0,.122-.074l.122-.1.167-.221.146-.146h.05l.023.023v.05l.122-.025.1-.049.367-.344a1.048,1.048,0,0,0,.122-.074l.122-.049.1-.023.051-.051.023-.048.025-.074.049-.245.049-.074.148.148.367-.709v-.1l-.171-.27-.221-.245-.245-.2-.268-.146-.319-.122-.319-.074-.344-.025-.338.025-.049.074-.049.048-.049.025H241l-.1-.025-.122-.048-.1-.074-.122-.025h-.1l-.05.05-.072.049-1.838-.2-.245-.1-.093.025h-.1l-.173-.048-.1-.049h-.171l-.1.072-.122-.072-.22-.05Z" transform="translate(-218.711 -537.052)" fill="#d6b686"/>
      <path id="Path_2" data-name="Path 2" d="M404.79,545.762l.2-.029.1-.029h.216l.115.014.029.057.029.082v.043l-.014.1-.029.086-.144.259-.029.1-.029.015-.029.057v.1l-.029.029-.345.763-.288.53-.13.173-.158.072-.158.1-.086.029H403.9l-.043-.014-.043-.029-.029-.043-.072-.072-.057-.086-.086-.187-.057-.187-.029-.2.057-.343.014-1.108-.014-.072v-.057l.1-.255.086-.115.645.173.3.043ZM403.927,540l.029.058.043.058.029.057v.029l-.015.029-.014.058-.029.029-.043.029-.142.043-1.007.2-.288.115H402.4l-.087.014-.144.043-.029.086-.043-.043-.057-.014-.128.029-.043.029-.057.014-.288.043-.273.129-.13.043-.072.014-.072-.014-.561.2-.086.043-.086.057h-.1l-.372.13-.1.014-.086-.014-.1-.043-.057-.158v-.144l.014-.072.087-.2.273-.4.058-.142.415-.259.4-.317.921-.5.473-.23.5-.144m4.485,1.739h.1l.115.014.1.043.043.029.043.043v.058l-.029.057-.058.086-.058.014-.086.086-.029.043-.014.1v.043l-.043.043h-.029l-.014-.029-.029-.043-.029-.029-.158.029-.043.014-.086-.029-.029-.043-.029-.029-.014-.029-.015-.072.015-.086-.015-.1.072-.072.2-.115Zm3.679-1.509-.331-.144h-.158l-.66-.057-.317.014-.144.043-.1.057-.388.388-.187.144-1.322.115-.072-.014-.13-.058-.058-.057-.086-.115-.058-.144-.029-.173v-.043l.014-.058.029-.043.043-.029-.014-.111-.13-.288-.259-.331-.689-.36-.1-.072-.087-.1-.058.014-.23-.144-.043-.014h-.058l-.043-.057-.532-.286h-.115l-.115-.014-.216-.1h-.144l-.055-.014-.014-.014-.014-.029-.245-.057-.547-.245-1.022-.316-.789.029-.259-.029-.029.029v.058l.043.086.043.058.029.086.043.072.259.288.144.13.058.072.072.156.015.072-.015.072-.029.086-.058.086-.086.086-.029.014-.014.014-.014.043-.014.029-.014.014h-.058l-.115.1-.5.6-.13.115-.129.086-.086.125-.029.029-.043.014h-.072l-.043.043-.242.158-.043.043-.014.043h-.086l-.216.043-.4.173-.13.043-.158.014h-.158l-.3.288-.674.761-.158.144-.014.043-.029.058-.144.2-.014.043-.13.058-.058.043-.029.057-.146.259-.173.23-.058.129-.173.717-.072.086-.072.23-.057.561v.1l-.087.489v.1l.115.415.029.173.058.173.015.115.029.1.173.374.029.1.014.1.345.413.16.115.086.014.072.029.259.173.072.029.158.029.043.014.1-.029.072-.058.058-.072.1-.2.115-.158.086-.255.058-.115.23-.331.173-.2.791-.705.029-.115.029-.041.072-.072.043-.014.1-.014.935-.705.086-.043.086-.014h.043l.043.014.029.029.029.043.043.245-.015.245-.043.1-.015.1v.2l.029.2v.317l-.043.3-.043.187.029.2-.029.072v.168l-.014.129-.014.058-.029.072.029.1-.029.561.029.1.014.187-.115.933v.173l.043.187-.029,1.437.014.072V550l-.1.288v.072l-.086.187-.015.1v.043l.015.058.086.158.029.1.029.2v.1l-.029.2.043,1.406-.014.719.029.734-.014.329.058.662-.015.316.619,1.048.314.374.173.158.2.129.216.072h.23l.23-.029.173-.115.288-.274.115-.172.187-.36.055-.2.043-.3v-.1l-.029-.2-.1-.374.113-.6.086-.187-.029-.1-.171-.214v-.115l-.029-.086-.144-.274-.029-.1v-.1l.029-.115-.043-.173-.058-.845-.043-.331.086-.13.058-.043.13-.029.617.129h.086L404.6,552l.086-.029.158-.086.82-.317.8-.216.187-.084.23-.058h.23l.2.029.144.113.029.086v.1l-.057.058-.043.058-.058.129-.115.173-.058.043-.144.159-.158.245-.144.129-.1.058-.46.557-.5.489-.259.1-.072.014-.115.058-.058.058-.216.789-.029.345.014.187.187.144.216.115.144.043.13.057.5.3.13.058.158.029.072.086.1.058.2.058a5.06,5.06,0,0,0,1.149-.13l.216-.273.144-.115.086-.043.187-.057.086-.043.072-.058.029-.029.015-.043.029-.043v-.058l-.029-.086-.058-.072-.115-.115-.158-.086-.7-.245-.576-.158-.115-.086v-.041l-.014-.057.029-.072.1-.13.23-.144.072-.058.029-.115.058-.086.086-.086.086-.058.2-.1.173-.13.115-.158.4-.37.432-.36.144-.144.057-.014.043-.043.072-.1.057-.13.086-.086.029-.072.043-.058.214-.2.245-.187.13-.171.058-.158.014-.086-.115-.216-.173-.187-.3-.2-.115-.043h-.058l-.187-.129-.043-.014h-.043l-.043.029-.115-.086-.259-.13-.072-.029-.058-.043-.086-.029-.087-.014-.086.014-.259.086-.187.029-.043.043-.171.086-.475.058-.216.1-1.293.259-.993.259-.187.072-.115.015-.446.115-.113.014h-.1l-.1-.029-.058-.072-.086-.273-.029-.95-.014-.086-.029-.086.014-.043v-.214l.014-.043.029-.043.072-.029.029-.072.043-.058.1-.1.257-.144.432-.144.129-.072.691.3.274.058.1.029h.271l.058.028.561-.158.705-.345.173-.115.043-.072.057-.058.144-.115.057-.058.029-.072v-.029l-.014-.043-.014-.029-.043-.043-.3-.086-.288-.13-.3-.086h-.158l-.259.043-.216.086-.072.014H406l-.072-.029-.072-.057-.027-.043-.029-.058v-.086l.014-.041.029-.029.07-.086.187-.129.13-.158,1.237-1.094.372-.4.115-.245.014-.072V545.1l-.029-.072-.086-.13-.058-.058-.415-.288-.59-.2-.187.029-.273-.043h-.1l-.086.014-.086.029-.057-.043-.043-.014-.214.058H405.7l-.043-.029-.086.029-.432.086-.072.029-.115-.015H404.7l-.115.015-.461.115-.144-.029-.142.029-.13.043h-.072l-.057-.014-.072-.029-.043-.043-.043-.058-.086-.158-.029-.113-.446-.5-.1-.086-.216-.144-.029-.057-.129-.13-.317-.158-.086-.057-.041-.043-.029-.043-.029-.13v-.043l.029-.086.2-.187.216-.1.489-.343.115-.058.115-.1.259-.158.576-.245.127-.072.676-.158.633-.2.36.115.043.072.214.129.115.115.029.072v.086l-.158.173-.156.1-.058.014.1.029h.1l.216-.043.216-.029h.1l.115.014.547-.014,1.034-.086.547-.072.087-.043.086-.029.087-.014.5.029.286.1.273.173.489.43.417.3.187.086.1.014h.187l.362-.1.158-.086.273-.245.243-.329.072-.043.086-.129.058-.23.058-.144-.014-.173-.086-.3-.144-.259-.286-.345-.086-.056-.058-.072-.058-.057h-.086l-.463-.446-.532-.6Z" transform="translate(-360.686 -534.743)" fill="#d6b686"/>
      <path id="Path_3" data-name="Path 3" d="M512.3,538.745a5.614,5.614,0,0,1-.382.722q-.3.617-.546,1.071-.355.641-.382.668a.762.762,0,0,1-.382.012,6.452,6.452,0,0,0-.71-.056q-.382-.015-.382-.1l.082-.188a.382.382,0,0,0,.109-.214l.136-.131a.862.862,0,0,0,.191-.347.43.43,0,0,1,.137-.186.069.069,0,0,0,.082-.079q0-.082.137-.213a1.865,1.865,0,0,0,.246-.373q.137-.241.191-.32a1.671,1.671,0,0,1,.191-.1,1.6,1.6,0,0,1,.3-.179,4.084,4.084,0,0,1,.41-.093q.164-.021.465-.036l.164.006Zm5.657-13.208a.155.155,0,0,0-.109.023q-.027.081-.109,0a.275.275,0,0,0-.109.009c-.018.008-.027.04-.027.094l.055.057-.136-.06a1,1,0,0,0-.273-.12l.027.11a1.706,1.706,0,0,1,.027.22q0,.055-.137-.005c-.036-.074-.055-.093-.055-.057a.187.187,0,0,1-.014.081c-.009.018-.032.026-.068.025s-.091.051-.164.157a1.094,1.094,0,0,0,.109.605,2.973,2.973,0,0,1,.123.51,6.7,6.7,0,0,1-.014.7,2.682,2.682,0,0,1-.027.381,2.287,2.287,0,0,0-.027.313v.123q-.027,0-.492.172a4.426,4.426,0,0,1-.792.16,1.74,1.74,0,0,1-.3.1.6.6,0,0,0-.246.1q-.273.071-.492.117-.246.045-1.011.288-.683.164-.819.186-.027.053-.082,0l-.246-.256a4.615,4.615,0,0,0-.464-.51.773.773,0,0,0-.382-.261.335.335,0,0,0-.3-.067q-.054.053-.137-.033c-.018-.019-.032-.029-.041-.029s0,.009.014.028l.082.112c0,.018-.027.026-.082.024a.38.38,0,0,0-.137.077c-.018.072-.045.107-.082.106-.036-.02-.064,0-.082.051a.2.2,0,0,1-.027.081,2.355,2.355,0,0,0,.027.6,4.823,4.823,0,0,1,.082.523q0,.164-.355.259a1.87,1.87,0,0,1-.328.069q-.137.049-.437.147a2.047,2.047,0,0,1-.464.091.371.371,0,0,0-.164.021,1.1,1.1,0,0,1-.355.068,3.285,3.285,0,0,1-.792,0,2.33,2.33,0,0,0-.6-.024.784.784,0,0,1-.109.078l-.164-.007a.115.115,0,0,0,.027.083q.055.03,0,.109-.055.053-.055.025-.109,0-.164.13c-.091.106-.146.167-.164.185q-.055.053.191.253.109.114.109.168a1.684,1.684,0,0,0,.082.249.618.618,0,0,1,.273.393.641.641,0,0,0,.068.248,1.066,1.066,0,0,0,.1.113.318.318,0,0,1,.273.175.9.9,0,0,0,.328.068,2.462,2.462,0,0,0,.355.069,1.431,1.431,0,0,1,.3.189.8.8,0,0,0,.369.165.555.555,0,0,1,.314.149.444.444,0,0,0,.15.06.144.144,0,0,0,.1-.051.493.493,0,0,1,.3-.125q.273-.071.3-.125a.451.451,0,0,1,.109-.023,1.453,1.453,0,0,0,.328-.1.954.954,0,0,0,.41-.257,1.218,1.218,0,0,1,.246-.045q.055,0,.246.228a1.846,1.846,0,0,1,.3.476.786.786,0,0,0,.41.289,1.641,1.641,0,0,0,.465.264,1.4,1.4,0,0,0,.41.153l.3.094.191-.1q.273-.125.273-.208.027-.136-.027-.165c-.018-.019-.027-.033-.027-.042s.018-.031.055-.066l.082-.079-.082-.686a3.633,3.633,0,0,0-.273-1.158,2.534,2.534,0,0,1-.082-.413.154.154,0,0,1,.027-.108,1.359,1.359,0,0,0,.273-.208q.164-.157.219-.155a.527.527,0,0,0,.246-.045.325.325,0,0,1,.191-.074.226.226,0,0,0,.1-.037.547.547,0,0,0,.15-.144,1.308,1.308,0,0,1,.355-.177q.273-.071.273-.153c0-.036.009-.054.027-.054a1.471,1.471,0,0,0,.3-.07q.3-.07.41-.093a1.258,1.258,0,0,1,.246-.017q.082,0,.055.057,0,.028-.027.272a5.423,5.423,0,0,0-.137.677q-.055.6-.164,1.277a9.912,9.912,0,0,1-.082,1.035q-.027.354-.055.708-.055.271-.109.6-.055.353-.082.516a.588.588,0,0,0-.082.215v.109h0l.082-.133q.054-.162.136-.1.055.057-.054.189v.068c0,.009.018.024.054.043a.164.164,0,0,1,.055.111c0,.018.018.028.055.03s.109-.078.218-.237l.137-.254q.137-.254.191-.361a4.133,4.133,0,0,1,.328-.506,1.051,1.051,0,0,1,.273-.235,1.076,1.076,0,0,1,.164-.212,1.136,1.136,0,0,0,.273-.344,2.25,2.25,0,0,1,.3-.343q.219-.21.383-.394a1.5,1.5,0,0,0,.3-.453.735.735,0,0,1,.191-.4,1.344,1.344,0,0,1,.191-.293,2.336,2.336,0,0,0,.355-.587,3.618,3.618,0,0,0,.191-.484,1.522,1.522,0,0,0,.164-.212.3.3,0,0,0,.027-.135.632.632,0,0,1,.082-.215.506.506,0,0,1,.027-.163l.082-.106a.306.306,0,0,1,.191-.156,1.785,1.785,0,0,1,.464.128q.328.122.519.212a1.267,1.267,0,0,0,.246.064,1.1,1.1,0,0,1,.3.094.488.488,0,0,0,.41.1,1.127,1.127,0,0,1,.328-.1.389.389,0,0,0,.246-.236v-.3a.9.9,0,0,1-.055-.33.488.488,0,0,0-.041-.234,1.468,1.468,0,0,0-.341-.273q-.355-.26-.628-.49a2.3,2.3,0,0,1-.355-.232.124.124,0,0,0-.055-.1.5.5,0,0,0-.137-.074q-.164-.061-.164-.116c0-.018-.009-.009-.027.026a.563.563,0,0,1-.123.077q-.014,0-.014-.082c-.018-.037-.055-.039-.109,0-.073.015-.118.014-.137-.005a.793.793,0,0,0-.137.022.4.4,0,0,1-.219.073.583.583,0,0,1-.2.005.182.182,0,0,1-.068-.044.735.735,0,0,0-.109-.414,3.18,3.18,0,0,1-.328-.559,3.481,3.481,0,0,0-.628-.763q-.383-.37-.683-.628A1.513,1.513,0,0,0,517.958,525.537Zm2.753,9.634a.421.421,0,0,0-.273.1.548.548,0,0,1-.246-.01A.459.459,0,0,0,520,535.2a.61.61,0,0,0-.191.047.742.742,0,0,1-.164.048q-.027,0-.082.079a1.525,1.525,0,0,0-.027.3v.164l-.656.275a2.073,2.073,0,0,0-.342.164,1.266,1.266,0,0,1-.178.1.173.173,0,0,1-.123.022l-.041-.015a.866.866,0,0,0-.109-.332.946.946,0,0,0-.355-.342q-.273-.147-.328-.122a.237.237,0,0,1-.109.023.692.692,0,0,1-.246-.037c-.018-.019-.027-.019-.027,0s-.055.025-.164.021q-.109.023-.109.05a.294.294,0,0,0,.055.111.943.943,0,0,0,.041.138c.009.018,0,.055-.041.107a.144.144,0,0,0-.055.094.275.275,0,0,0,.055.125,2.266,2.266,0,0,1,.054.576,2.779,2.779,0,0,1-.014.355.446.446,0,0,1-.1.187,3.172,3.172,0,0,1-.437.256,1.266,1.266,0,0,1-.328.151,1.131,1.131,0,0,1-.273.017.446.446,0,0,0-.219.019.436.436,0,0,1-.246.045c-.073,0-.109,0-.109.023v.005l-.269-.069a1.422,1.422,0,0,0-.328-.15.37.37,0,0,1-.218-.173c-.037-.056-.073-.085-.109-.086a.3.3,0,0,1-.15-.074q-.1-.072-.123-.046a.288.288,0,0,1-.246.045q-.137-.005-.137-.06l-.136-.033a1.55,1.55,0,0,0-.3-.039.292.292,0,0,0-.1.01c-.027.008-.041.021-.041.039q0,.109-.082.133-.082.079-.109.05a.5.5,0,0,0-.191-.09.324.324,0,0,0-.273.1.69.69,0,0,0-.136.186q-.082.024-.382.121l-.328.069.246-.427a1.963,1.963,0,0,1,.328-.615.455.455,0,0,0,.137-.241.852.852,0,0,1,.055-.244.2.2,0,0,0,.055-.148.849.849,0,0,0-.082-.29.655.655,0,0,0-.123-.292,3.081,3.081,0,0,0-.341-.355,1.571,1.571,0,0,0-.492-.484.449.449,0,0,0-.273-.065.231.231,0,0,1-.246-.037l-.027-.029H510.7c-.009,0-.013.009-.013.027v.082a.05.05,0,0,1-.055-.057h0c0-.018-.018-.028-.055-.029s-.036.026,0,.082c0,.036-.009.059-.027.067a.277.277,0,0,1-.109.009c-.036,0-.082.051-.137.159a.38.38,0,0,0-.191.238,4.572,4.572,0,0,1-.437.993q-.438.775-.519.908l-.027.081a1.22,1.22,0,0,1-.1.2.924.924,0,0,0-.1.228q-.328.67-.519,1.045-.355.723-.382.777a5.383,5.383,0,0,0-.355.723q-.219.429-.328.67a.468.468,0,0,0-.014.191.783.783,0,0,0,.123.251,2.342,2.342,0,0,1,.191.417,1.789,1.789,0,0,1,.136.306q.082.195.109.25c.018.037.073.039.164.007a.181.181,0,0,1,.191.089q.164.116.246.064.055-.025.055-.135t.082-.106a.565.565,0,0,1,.218-.1q.082-.079.109-.078a.582.582,0,0,1,.164.116c.091.095.164.143.219.145a2.675,2.675,0,0,1,.355.205q.382.288.328.286a1.881,1.881,0,0,1-.136.295l-.492.636-.737.927a7.923,7.923,0,0,0-.574.66,4.753,4.753,0,0,1-.519.471,7.144,7.144,0,0,0-.819.732q-.437.392-.437.447t-.136.1a1.36,1.36,0,0,0-.273.208.376.376,0,0,0-.027.231c.018.046.036.056.055.029a.119.119,0,0,1,.109-.037q.109,0,.109.045c0,.027-.023.049-.068.065s-.041.026.014.028a.506.506,0,0,0,.164-.021.909.909,0,0,1,.328-.206q.164-.185.246-.181.109.032.382-.176a1.814,1.814,0,0,1,.464-.282.2.2,0,0,0,.191-.074q.055-.08.055-.039a.429.429,0,0,1-.027.122c-.018,0,.027-.026.137-.077a.441.441,0,0,0,.137-.131,3.814,3.814,0,0,0,.355-.2.423.423,0,0,1,.164-.13l.164-.1c0-.018.018-.027.055-.025.018,0,.027.006.027.015v.014l-.027.026.055-.025c.018-.036.064-.043.137-.022q.055.029.246-.072a1.731,1.731,0,0,0,.3-.1,1.575,1.575,0,0,1,.328-.178q.273-.126.273-.208c0-.018.055-.044.164-.076a.523.523,0,0,0,.3-.152l.164-.157a.153.153,0,0,1,.109-.023.154.154,0,0,0,.137-.077,1.853,1.853,0,0,1,.191-.129.509.509,0,0,1,.246-.1,2.56,2.56,0,0,0,.519-.457,4.684,4.684,0,0,1,.615-.549.472.472,0,0,1,.232-.086,1.167,1.167,0,0,0,.3-.1.636.636,0,0,0,.15-.117,1.132,1.132,0,0,0,.15-.172l.082-.2q.027-.067-.055-.1a.706.706,0,0,0-.136-.251,1.775,1.775,0,0,0-.055-.248.349.349,0,0,1,.082-.27,2.854,2.854,0,0,0,.191-.32.35.35,0,0,1,.164-.239,1.714,1.714,0,0,0,.3-.316q.164-.267.191-.266a.217.217,0,0,1,.082.031q0,.027.055-.053h.027a2.9,2.9,0,0,1,.3-.589,2.482,2.482,0,0,0,.3-.671,1.584,1.584,0,0,1,.273-.481,1.886,1.886,0,0,0,.284-.439.828.828,0,0,0,.259.05.653.653,0,0,0,.246-.045.574.574,0,0,0,.1-.01.646.646,0,0,1,.082-.01h.041a.218.218,0,0,0,.068-.011.251.251,0,0,0,.1-.065l.191-.047-.027.217-.055.517a4.612,4.612,0,0,1-.109.542q-.082.325-.109.488a1.238,1.238,0,0,1-.109.433v2.39a.731.731,0,0,0,.082.372,5.124,5.124,0,0,0,.246.556,1.227,1.227,0,0,0,.219.309,2.534,2.534,0,0,1,.219.254,4.818,4.818,0,0,0,.437.455,3.3,3.3,0,0,1,.287.284,1.93,1.93,0,0,0,.4.18q.3.23.465.374.191.144.246.092.027-.026.382.179a2.072,2.072,0,0,0,.519.239q.192.035.71.11a5.823,5.823,0,0,0,.656.081.868.868,0,0,1,.164.061q.109.032,1.694.094a12.564,12.564,0,0,0,1.721.014q.191-.02.437-.065a.729.729,0,0,0,.383-.067,4.883,4.883,0,0,1,.546-.115q.383-.094.465-.118.027-.054.3-.084a.737.737,0,0,0,.287-.057c.009-.018.046-.025.109-.023s.132-.045.205-.142a.439.439,0,0,1,.191-.17.156.156,0,0,0,.109-.105q.027-.108.055-.08a.053.053,0,0,0,.082-.024.733.733,0,0,0,.027-.163.459.459,0,0,1,.137-.213.351.351,0,0,0,.055-.2.267.267,0,0,1,.082-.2.56.56,0,0,0,.027-.095c0-.009-.009-.023-.027-.042q-.082-.058-.082,0a.046.046,0,0,1-.055.052q-.027,0,0-.164v-.191q.027,0,.027-.19v-.164a.051.051,0,0,0-.055-.057l-.137-.005c-.018,0-.027-.037-.027-.11v-.055h0q-.082.051-.082,0a.176.176,0,0,1,0-.137.126.126,0,0,0-.027-.138q-.027-.029,0-.137c.018-.072.009-.118-.027-.138q-.109-.059-.055-.139a.33.33,0,0,0-.109-.223.6.6,0,0,1-.055-.3v-.41a1.2,1.2,0,0,1,.273-.508,4.959,4.959,0,0,0,.3-.452l.137-.268v-.027H528.2q0,.027-.014.027h-.014a.2.2,0,0,1,.027-.081l.027-.135q-.027,0-.191.156a3.744,3.744,0,0,0-.464.336q-.191.184-.41.366-.273.181-.738.544a6.938,6.938,0,0,1-.847.567,5.594,5.594,0,0,1-1.038.423,7.534,7.534,0,0,1-.9.265,4.558,4.558,0,0,0-.847.158,4.8,4.8,0,0,1-1.5.132q-.874-.035-1.776-.043a6.53,6.53,0,0,1-1.175-.074q-.246-.092-.546-.213a1.45,1.45,0,0,1-.437-.427.965.965,0,0,1-.246-.283q0-.137-.055-.6-.027-.547-.027-.984a3.656,3.656,0,0,1,.109-.9,4.141,4.141,0,0,0,.219-.866q.055-.38.109-.706a2.474,2.474,0,0,1,.137-.4.536.536,0,0,0,.109-.214,1.361,1.361,0,0,1,.055-.38,1.431,1.431,0,0,1,.3-.316q.246-.154.738-.408.546-.252.573-.278.164-.048.383-.094.246-.018.246.01l-.027.491a7.431,7.431,0,0,1-.273,1.519q-.164,1.031-.164,1.141a.16.16,0,0,1-.041.121.318.318,0,0,1-.15.062,1.275,1.275,0,0,1-.246.018c-.055,0-.1.037-.137.117a.176.176,0,0,1-.178.116q-.123-.005-.123.022c-.018.054-.018.09,0,.109a.422.422,0,0,0,.219.009l.055,0c.018,0,.018.01,0,.027s.009.055.082.112l.082.085-.082.051a.377.377,0,0,1-.218.046.28.28,0,0,0-.109.009q-.027.012.027.069a.416.416,0,0,0,.246.092.341.341,0,0,1,.219.077.574.574,0,0,1,.136.183.55.55,0,0,1,.137.224c0,.036.037.083.109.141a1.02,1.02,0,0,1,.191.226.221.221,0,0,0,.027.083q.027.055.164.088l.164.007a.123.123,0,0,0,.191.035.205.205,0,0,1,.191.117q.027.083.191.035a1.3,1.3,0,0,1,.164-.021.22.22,0,0,1,.082-.215,1.571,1.571,0,0,0,.15-.076q.041-.026.178.034l.164.034.137-.268q.164-.239.109-.351,0-.027.191-.73.191-.675.328-1.025a3.458,3.458,0,0,1,.164-.54.568.568,0,0,0,.137-.3q0-.055.082-.57a1.678,1.678,0,0,1,.1-.351c.027-.054.1-.087.2-.1a.792.792,0,0,0,.123-.091.356.356,0,0,0,.068-.175.643.643,0,0,0-.055-.357,2.01,2.01,0,0,1-.137-.388.135.135,0,0,1-.1-.086q-.014-.055-.027-.124l-.013-.069a.245.245,0,0,1,0-.164l-.014-.014c-.009-.009-.014,0-.014.013a2.148,2.148,0,0,1-.492-.211q-.464-.264-.492-.293a1.514,1.514,0,0,1-.246-.174.289.289,0,0,1-.219-.145.449.449,0,0,0-.123-.032,1.127,1.127,0,0,1-.26-.12Q520.792,535.174,520.71,535.171Z" transform="translate(-453.427 -525.536)" fill="#d6b686"/>
      <path id="Path_4" data-name="Path 4" d="M163.494,554.641v-.97h2.662v-1.41h1.566v1.41h2.662v.97h-2.662a4.707,4.707,0,0,0,2.819,3.946v.846a5.436,5.436,0,0,1-3.571-2.631,5.59,5.59,0,0,1-3.632,2.631v-.846a4.55,4.55,0,0,0,2.788-3.946Zm2.69-6.9v-3.852h-2.82v-.941h2.82v-2.411h1.5v2.411h2.819v.941h-2.819v3.852Z" transform="translate(-163.338 -538.242)" fill="#d6b686"/>
    </g>
  </g>
</svg>
