<svg xmlns="http://www.w3.org/2000/svg" xmlns:xlink="http://www.w3.org/1999/xlink" width="121" height="240" viewBox="0 0 121 240">
  <defs>
    <clipPath id="clip-banner-2-text-1">
      <rect width="121" height="240"/>
    </clipPath>
  </defs>
  <g id="banner-2-text-1" clip-path="url(#clip-banner-2-text-1)">
    <g id="_01" data-name="01" transform="translate(-1797.542 -1351.845)" style="mix-blend-mode: multiply;isolation: isolate">
      <path id="Path_332" data-name="Path 332" d="M1916.062,1372.882a.233.233,0,0,0-.194.088l-.336-.194h-.23l-.124-.6-.389-.159v-.23h-.142l-.248-.814-.088-.071h-.3v-1.592h-.141v-.637h.212l.194-.584-1.539-.089-5.945,1.487v.141l-.247.036a20.234,20.234,0,0,0-4.742,1.194,18.106,18.106,0,0,1-4.777,1.123v.124h-.814l-.159-.637-.478-.177a3.315,3.315,0,0,1-1.026-1.645l-.495-.372v-.69c.082-.07.129-.112.141-.123a1.715,1.715,0,0,0,.5-1.071c.042-.418.062-.87.062-1.353a3.577,3.577,0,0,1-.513-1q-.177-.54-.442-1.177l.141-1.114-.371-.743.141-.142a.579.579,0,0,0,.177-.425.554.554,0,0,0-.017-.123,5.73,5.73,0,0,1-.071-.885l-.159-.69.8-.23.407.495,1.681.478a21.034,21.034,0,0,0,.813,2.919,6.541,6.541,0,0,1,.39,2.265q0,.354-.036.725l-.088,1.823h.884q1.257-.461,2.566-.814a14.357,14.357,0,0,1,2.477-.495v-.018l-.5-.319-.035-.053a2.236,2.236,0,0,1-.283-1.132,1.626,1.626,0,0,0-.212-.849l-.177-.3.531-.159a15.009,15.009,0,0,0,.176-2.3v-2.637q.018-.248.018-.495a4.955,4.955,0,0,0-.336-1.84q-.408-1.026-.92-2.035h-.46l.124-.371a.559.559,0,0,0-.106-.566,1.674,1.674,0,0,1-.336-1.009v-.283h.672l.212.106.177-.495,1.38-.3,1.469.778.035.107a13.05,13.05,0,0,1,.531,3.361,17.2,17.2,0,0,0,.407,3.256q-.249,1.945-.3,3.839a17.762,17.762,0,0,1-.442,3.556l5.52-1.344v-.248l1.734-.319v.124h.247l.124-.035.159-.495h.549q.425.424.743.707a.585.585,0,0,0,.372.124h.088l.089-2.052-.3-.177-.283-.708.106-.425-.425-.212-.124-.991.319-1.256h.194l.248-1.539.389.389a2.156,2.156,0,0,0,1.168.6,7.214,7.214,0,0,1,1.592.495,2.758,2.758,0,0,1,.345.734,2.622,2.622,0,0,1,.1.717v1.345l-.106.973.106,1.468q-.355,2-.584,4.078a32.9,32.9,0,0,1-.743,4.185Z" fill="#3f3b34"/>
      <path id="Path_333" data-name="Path 333" d="M1905.013,1399.181v.309h-.8v-.167a2.4,2.4,0,0,1-.612-1.052,4.415,4.415,0,0,1-.162-1.18v-.038a5.192,5.192,0,0,0,.31-1.793v-1.973a13.492,13.492,0,0,0-.232-1.535,2.182,2.182,0,0,0-.671-1.161l-.129-.039-2.5,3.5h-.18l-.723,1.057-.18.052v.18l-.348.091-.065.219h-.464v-.078h-.078a1.017,1.017,0,0,1-.5.265,3.566,3.566,0,0,1-.606.045h-.438l.283-.335a17.79,17.79,0,0,0,1.432-1.961h.168l.645-.928.451-.49a19.077,19.077,0,0,1,1.238-1.877,4.907,4.907,0,0,0,.89-1.928l.026-.116.258-.091a16.9,16.9,0,0,1,.7-1.554,4.953,4.953,0,0,0,.509-1.734l.026-.181h.18v-.18h-.064a30.848,30.848,0,0,1-5.533,1.483l-1.651-.735v-.4l1.045-.594.1-.219q2.734-.516,5.249-1.128a27.018,27.018,0,0,1,5.262-.729l.155-.31h.9v-.18h.1v-.181h.477l1.948.852v.167l1.264.7.18.786h-.258q-.115,0-.258.207a.583.583,0,0,1-.722.271,15.427,15.427,0,0,0-3.2-.323q-1.683,0-3.372-.077a2.817,2.817,0,0,1-.426.1l1.122.271.116.58a21.856,21.856,0,0,1-1.122,2.257q-.569.981-1.045,1.948a3.5,3.5,0,0,1,.942.9,9.007,9.007,0,0,1,.735,1.18l.168,1.032-.078,1.328.1.31-.1.116v3.766l.194,1.122h-.194v.181Zm8.228-6.32q-1.573-.877-3.05-1.877t-2.908-2.082l-.49-.787.954-.155a14.353,14.353,0,0,1,3.3,1.064,13.5,13.5,0,0,1,2.953,1.9l.465.929-.116.477-.658.3Z" fill="#3f3b34"/>
      <path id="Path_334" data-name="Path 334" d="M1899.6,1427.323v-.439h-.116l-.439-1.264a6.448,6.448,0,0,0,.246-1.251c.033-.4.051-.812.051-1.251l-.554-1.109-.013-.013a5.225,5.225,0,0,1-1.135,1.612,6.535,6.535,0,0,1-.864.722h-.091l-.051.181-1.11.825v-.58a31.64,31.64,0,0,0,2.819-5.494,35.805,35.805,0,0,0,1.721-5.714h-.335l-2.257.555-2.373-1.5.916-.387q.4-.194.722-.374a3.078,3.078,0,0,1,1.47-.387h.013l.7.1.516-.129.078.09a.332.332,0,0,0,.167.1.8.8,0,0,0,.168.02h.516l.219-.168a26.1,26.1,0,0,0,.387-2.644,15.141,15.141,0,0,1,.5-2.683l.039-.155h.451l.516.8h.31l.838-.142v1.058q-.078.876-.123,1.7a5.3,5.3,0,0,1-.29,1.5l1.2-.451.193-.58,1.316-.091a3.842,3.842,0,0,0,1.2.194q.219,0,.477-.026c.172-.017.357-.026.555-.026a5.746,5.746,0,0,1,1.148.116l.155.039v.941l-.4.117-.078.141-.322.323-6.229,1.483a30.644,30.644,0,0,0-1.58,4,38.8,38.8,0,0,1-1.516,4.011,3.122,3.122,0,0,0,.877.645,1.848,1.848,0,0,1,.929,1.019l.116.671-.464,3.74h-.826l-.026-.039Zm2.244-3.173h-.206v-.632l.825-.194.116-.283h.155l.077-.439h.439l1.045.078.928-.078.245.065.194-.039a7,7,0,0,0,.413-2.244c0-.181-.009-.361-.026-.542l-.039-.1h-.606l-.3.077a2.885,2.885,0,0,1-1.934-1.147l-.619-1.123h.541a9.225,9.225,0,0,0,.993.329,3.7,3.7,0,0,0,.968.136l.812-.3v-.232a1.9,1.9,0,0,1-.284-1.006,2.878,2.878,0,0,1,.02-.316,3.422,3.422,0,0,0,.019-.38,3.031,3.031,0,0,0-.1-.787l-.039-.09.31-.426h.219l.219-.555.439.258.245.465,1.212.193.09,1.264-.077.271.013.116h.929a7.723,7.723,0,0,0,1.276.1,2.021,2.021,0,0,1,1.239.374l.077.065v.657l-.645.607-2.644.851-.077.554-.052.052a1.748,1.748,0,0,0-.464,1.083,4.825,4.825,0,0,1-.387,1.445l-.052.09,2.49-.284v-.387h.309a18.373,18.373,0,0,0,2.367.413,8.5,8.5,0,0,1,2.3.581l.129.051v.774l-.065.064a2.386,2.386,0,0,1-1.122.62,5.874,5.874,0,0,1-1.238.128h-.026q-1.328-.256-2.618-.528a9.153,9.153,0,0,0-1.9-.194q-.36,0-.735.026l-4.282,1.161a2.955,2.955,0,0,0-.245-.31A1.189,1.189,0,0,0,1901.84,1424.15Z" fill="#3f3b34"/>
      <path id="Path_335" data-name="Path 335" d="M1909.359,1451.041c0-.078.009-.211.026-.4l.49-.077.348-1.574v-2.631l-.245-1.277-.141-.116v-.206h-.155v-.387l.077-.065a21.01,21.01,0,0,0-3.869.865l-3.856,1.264-.129.128h-.336l-.3-.025-1.316.9v.012a3.068,3.068,0,0,1,.735,1.019,2.95,2.95,0,0,1,.3,1.29v.129l-.761.361-1.277-.877v-.116l-.193-.1-.026-.065a4.508,4.508,0,0,0-.89-1.341q-.594-.631-1.47-1.6h.516l1.509.477,1.728-.89-.722-.258q3.159-.839,5.694-1.49a30.42,30.42,0,0,1,5.346-.857l.232.051.348-.051.181.026.038-.1h.374a4.128,4.128,0,0,0,1.258.387,2.937,2.937,0,0,1,1.232.478l.038.025.4.71-1.174.464-.283.774c-.086.017-.134.026-.142.026a1.553,1.553,0,0,1,.013.206.722.722,0,0,1-.065.271q-.387,1.521-.812,3.031a24.246,24.246,0,0,1-1.071,3.043l-.632.117v.619l-.374-.516a4.078,4.078,0,0,1-.471-.806A2.128,2.128,0,0,1,1909.359,1451.041Zm.555-14.445v.361a1.231,1.231,0,0,1-.168.219,1.113,1.113,0,0,1-.522.278,2.317,2.317,0,0,1-.51.07q-.205,0-.348-.012l-.9-.052-1.238.052-.49-.052q-2.541.9-3.946,1.251-.685.168-1.445.31l-.735-.323a1.654,1.654,0,0,1-.671-.529l-.18-.245q2.424-.541,4.617-.98t4.475-.8l.452.078.864-.078Zm-6.732,6.668h-.065l-.89-.581a3.516,3.516,0,0,1-.645-.793,2.566,2.566,0,0,1-.322-.87l-.606-.374-.555-.555h.774l.645.09.812-.632v-.193l2.851-.98.129-.22h.425l.155.039v-.039h.361l1.445.3.49.555v.374l-1.006.954a18.925,18.925,0,0,1-.787,2.128q-.168.348-.387.761l-.606.181-.464-.245-.168-.31h-.039a1.562,1.562,0,0,1-.683.348A4.865,4.865,0,0,1,1903.182,1443.264Zm-1.2,6.062c.017-.147.026-.241.026-.284v-.11a.523.523,0,0,0-.013-.1l-.026-.11a.452.452,0,0,0-.039-.1,1.12,1.12,0,0,0-.193-.271,3.555,3.555,0,0,1-.632-.915l-.129-.3h.426l1.2.3.323-.116q.452.323.664.47c.142.1.225.157.251.174s.052.037.078.058.051.046.077.071a2.778,2.778,0,0,1,.49.555l.026.1.787.052v-.1l-.155-1.509h-.026l-.98.309-.9-.812v-.555h.206a3.523,3.523,0,0,0,1.226-.271l.129-.051.258-.4h.27v-.026h.839l.09.013v-.013h.451l.052.039a1.7,1.7,0,0,0,.793.29,7.207,7.207,0,0,1,1.064.226l.194.709-.129.142a1.009,1.009,0,0,1-.516.271c-.147.025-.3.06-.464.1a12.382,12.382,0,0,0-.4,1.225,2.879,2.879,0,0,1-.774,1.316l-.026.038-.954.323-.361-.078c-.241.078-.435.144-.581.2s-.251.095-.316.116-.131.041-.2.058a3.954,3.954,0,0,1-.464.091Zm.787-14.7v-.039l-1.019-.684h.916l2.54.594.039.038a1.783,1.783,0,0,1,.361.613,1.963,1.963,0,0,1,.1.613c0,.043,0,.133-.013.27l-.683.284-.413-.168-1.831-1.418Zm1.251,7.467v.013h.051l.478-.168a4.124,4.124,0,0,0,.219-1.077q.039-.561.09-1.128l-.129-.026-.567.219-.091.116-.515.1-.439-.129-.064.283q.321.387.644.813A1.579,1.579,0,0,1,1904.02,1442.09Z" fill="#3f3b34"/>
      <path id="Path_336" data-name="Path 336" d="M1894.515,1473.031v-.387l1.883-1.419.825-.748h.129q.993-1.226,1.831-2.495a10.053,10.053,0,0,0,1.251-2.638h-.025l-3.47,1.238-.232-.438c-.266-.155-.516-.286-.748-.394a2.862,2.862,0,0,0-.761-.225l-.168-.039v-.426l.916-.271a.977.977,0,0,1,.709-.541,5.574,5.574,0,0,0,.852-.245l.8.077a6.118,6.118,0,0,0,1.419-.322q.684-.246,1.393-.478l.155-.877-.194-1.057a8.3,8.3,0,0,0,.529-3.044v-.206h.555l.451.529,1.47.167v1.174l-1.006,2.889q1.792-.413,3.753-.664t3.883-.665l.219.039.051-.142h.349a5.625,5.625,0,0,0,1.425.181,3.408,3.408,0,0,1,1.36.271l.091.038.374,1.11-2.09.18-1.7-.077q-2.2.18-4.34.47a14.4,14.4,0,0,0-3.953,1.1,13.528,13.528,0,0,1-1.535,3.379,20.7,20.7,0,0,1-2.4,3.109,3.212,3.212,0,0,0-.271.27l-.361.336a3.967,3.967,0,0,1-1.47.928,5.042,5.042,0,0,1-1.741.31Zm12.484,5.623v-1.019q-.258-2.141-.419-4.243t-.393-4.088q-.375.464-.5.593a1.754,1.754,0,0,1-.542.387l-1.251.464-.142,1.328,2.476-.632v.413l-.167.387.09.31-.09.077a2.809,2.809,0,0,1-1.29.748,8.567,8.567,0,0,0-1.212.374q-.181,1.3-.3,2.65a7.418,7.418,0,0,1-.741,2.612l-.348.542-.658.645-.568.18v-.4a17,17,0,0,0,.8-3.554q.205-1.81.31-3.695.012-.258.012-.567a7.528,7.528,0,0,0-.219-1.806,12.486,12.486,0,0,1-.387-2.476l-.013-.219h.258l.168-.271v-.323l.271.091a.79.79,0,0,0,.245.038.574.574,0,0,0,.258-.064,1.244,1.244,0,0,0,.451-.31l.387-.748.645-.206.335.077,1.587-.619v-.155l.438-.18v-.09l.813-.246q.593.285,1.128.5a4.653,4.653,0,0,0,1.1.29l.129.013.258.826-.451.58-.658.155a7.9,7.9,0,0,0-.465,2.727,27.6,27.6,0,0,1-.154,2.909,8.7,8.7,0,0,1,.154,1.676,7.491,7.491,0,0,0,.181,1.664l-.077.348q.155,1.085.283,2.193a20.233,20.233,0,0,1,.129,2.334v.078l-.425.516-.632.154a11.372,11.372,0,0,1-.7-1,2.767,2.767,0,0,1-.361-1.013l-.013-.064.039-.064A1.535,1.535,0,0,0,1907,1478.654Zm-.954-10.872a1.091,1.091,0,0,0-.142-.555h-.181a1.907,1.907,0,0,1-.8.342,5.547,5.547,0,0,0-.852.226,1.641,1.641,0,0,0-.245.309.25.25,0,0,0-.051.116.441.441,0,0,0,.051.194l.052.361h.026a8.555,8.555,0,0,1,1.56-.632q.283-.078.594-.142A1.691,1.691,0,0,1,1906.045,1467.782Z" fill="#3f3b34"/>
      <path id="Path_337" data-name="Path 337" d="M1900.035,1496.685v3.7l-.452,5.572-.7.155-.1-.349-.4-.167-.026-.026a2.4,2.4,0,0,1-.619-1.625,3.06,3.06,0,0,1,.051-.542,29.3,29.3,0,0,0,.336-4.308q-.078-.618-.123-1.27a2.348,2.348,0,0,0-.329-1.1l-.038-.013-.839,1.161-.361.077-.464.555-.813,1.638h-.18l-.271.606-.374-.193a26.077,26.077,0,0,0,2.708-6.41,43.949,43.949,0,0,0,1.264-6.952l.013-.155.658-.116a1.191,1.191,0,0,1,.606.452,1.247,1.247,0,0,1,.065.154h1.173l.426,1.161a7.722,7.722,0,0,1-.993,3.134,9.94,9.94,0,0,0-1.045,2.554l.4.064.052.1a3.263,3.263,0,0,1,.232,1.044A8.134,8.134,0,0,0,1900.035,1496.685Zm2.244,3.688a1.752,1.752,0,0,1,.038-.322,2.79,2.79,0,0,0,.31-1.264c0-.052-.007-.219-.019-.5s-.02-.684-.02-1.2l-.387-2.824h.5l.052.064a6.263,6.263,0,0,1,1.677,2.876,10.864,10.864,0,0,1,.322,2.657c0,.164-.005.327-.013.49h.194l1.831-.4v-.065l-.193-.993a5.588,5.588,0,0,0,.374-2.006q0-1.024.077-2.07a34.075,34.075,0,0,0-.7-3.553,33.614,33.614,0,0,1-.7-3.579l-.026-.232h.374a2.986,2.986,0,0,0,.484.3,3.334,3.334,0,0,0,.471.187,3.978,3.978,0,0,0,.993.129h.142l.051.129a5.07,5.07,0,0,1,.4,1.773q.051.975.129,1.864l-.439,6.191.091,1.548h.309l2.618-.362,1.471.284.3.864q-2.244.58-4.249.955a34.28,34.28,0,0,0-3.915.967v.168l-.58.245-.671-.336-.077-.232-.5-.064c-.206-.353-.379-.649-.516-.89A1.579,1.579,0,0,1,1902.279,1500.373Zm11.582-6.4h.038a7.277,7.277,0,0,0,.955.323,2.452,2.452,0,0,1,.864.412l.077.065v3.443q-.581,3.315-.864,6.049l-.5.271-.825-.735h-.258l-.555-1.754.451-.09.155-.942-.1-.258.181-2.115-.336-2.786.155-1.47-.181-.413Z" fill="#3f3b34"/>
      <path id="Path_338" data-name="Path 338" d="M1897.3,1515.669h.065c.189.147.361.271.516.374a.426.426,0,0,0,.232.065.353.353,0,0,0,.09-.013l1.109-.993h.078l.154-.529.129-.013a3.443,3.443,0,0,0,1.374-.425,7.193,7.193,0,0,1,1.257-.568v-.3l.271.09a.585.585,0,0,0,.155.026.458.458,0,0,0,.142-.026,2.018,2.018,0,0,0,.335-.168h.052a3.242,3.242,0,0,1,1.225.219,11.6,11.6,0,0,1,1.058.49l.064.168h.207v.748l-.3.5-.529.194h.052v.154h.8l-1.135.529q-.219,1.212-.515,2.464a14.306,14.306,0,0,0-.387,2.6l.141,1.883h.091l.077,4.514h-.7l-.49-.426v-.09a.425.425,0,0,1-.271-.271l-.091-.271a1.323,1.323,0,0,1-.309-.593,1.7,1.7,0,0,0-.129-.4l-.052-.013-4.217,2.722-.258.529-.568.116a1.8,1.8,0,0,1-.309-.233,1.008,1.008,0,0,1-.3-.67,1.854,1.854,0,0,0-.154-.671l-.039-.077.116-.374h.374l.181-.336a2.569,2.569,0,0,0,.541-.844q.168-.445.387-.9l-.361-1.2a5.2,5.2,0,0,0,.593-2.36q.039-1.329.116-2.619a2.124,2.124,0,0,0-.567-1.251,3.092,3.092,0,0,1-.748-1.522l-.039-.245Zm.31,16.341v-1.057l.387-1.135a2.425,2.425,0,0,0,.129-.787,1.022,1.022,0,0,0-.013-.155h-.168v-.528l.078-.065a.991.991,0,0,1,.644-.245,1.329,1.329,0,0,1,.22.019,1.268,1.268,0,0,0,.206.02.845.845,0,0,0,.361-.078l.129-.077.71.735.077,1.277-1.354,1.444h-.168l-.077.233h-.581a.4.4,0,0,0-.245.1Zm2.167-16.083a1.285,1.285,0,0,0-.49,1.071l.077.5-.065.374.31.916a13.067,13.067,0,0,1,1.219-.561,4.08,4.08,0,0,1,1.3-.291v-.258l-.361-1.689-.155-.052-.645.374-.5.323-.619-.71Zm-.013,9.274,2.592-1.548v-1.419l-.039-.49a4.465,4.465,0,0,1-1.38.5q-.657.116-1.354.168l-.064,1.651Zm-.078-4.024a7.628,7.628,0,0,1,2.515-.736v-.245l.078-.877q-.608.22-1.226.49a3.877,3.877,0,0,1-1.315.3Zm1.69,7.57v-.374l1.419-.09,1.663.89.336.941-.207.529-.709.065a4.369,4.369,0,0,1-1.857-1.174l-.645-.709Zm7.042-8.112v.464a16.19,16.19,0,0,0,.142,2.115l-.877.671-.426-.58-.219-.078a2.652,2.652,0,0,1-.619-1.057,4.352,4.352,0,0,1-.168-1.238v-.065l.039-.052a.956.956,0,0,0,.116-.515v-.736a1.611,1.611,0,0,0-.258-.838q-.258-.426-.684-1.1h.529l1.767.812.026.052A3.6,3.6,0,0,1,1908.418,1520.635Zm3.508,9.918v-.49h.426l.141-.606q-.336-3.522-.606-7.139t-.658-7.164l.078-.955-.31-.928h.284a1.051,1.051,0,0,0,.555-.142,1.405,1.405,0,0,1,.761-.194h.038l1.342.465.09,1.109-.078.567.078.645-.232,1.367.051.348a8.761,8.761,0,0,0-.309,1.638q-.078.839-.078,1.729.283,5.094.8,11.336l-.413.955-.58-.258-.194-.3h-.154l-.387-.516-.207-.593h-.167l-.155-.877Z" fill="#3f3b34"/>
      <path id="Path_339" data-name="Path 339" d="M1897.249,1555.238v-.18h.271a18.47,18.47,0,0,1,1.283-1.78,3.99,3.99,0,0,0,.87-1.922l.026-.167h.31a20.02,20.02,0,0,1,1.148-2.128,8.7,8.7,0,0,0,.967-2.012q-.594-.156-1.148-.349a3.208,3.208,0,0,1-1.264-.8,1.885,1.885,0,0,0-.3-.381.627.627,0,0,1-.2-.458.583.583,0,0,1,.039-.206l.039-.142h.606a15.007,15.007,0,0,1,1.567.239q.78.162,1.515.329a22.466,22.466,0,0,0,.98-2.167,10.633,10.633,0,0,0,.607-2.218,7.5,7.5,0,0,1-.8-.091,1.348,1.348,0,0,1-.851-.5l-.155-.206.232-.1a4.611,4.611,0,0,1,1.154-.394q.612-.121,1.129-.277v-.193l.438-.078v-.219h.839l1.741.684v.374l-.516.606-.387.155-.077.528-.787.271a12.28,12.28,0,0,1-.935,2.335q-.575,1.083-1.18,2.179l.232.645-.374.1-.194.478h-.27q-.581,1.057-1.239,2.179a13.427,13.427,0,0,0-1.006,2.064,2.635,2.635,0,0,0,1.226-.722,2.105,2.105,0,0,0,.283-.323l.374-.477v.8l-.064.051a1.092,1.092,0,0,0-.4.684.462.462,0,0,0,.026.154l.284.207v.1a3.851,3.851,0,0,0,.528,1.967,6.271,6.271,0,0,1,.736,1.954l2.824.1.761-.142v-.748l-.116-.284.193-.632v-3.405h-.038l-1.458.233v.154l-.477.142-.348-.167v-.026l-.516-.091-.941-.941h-.349l-.129-.993,1.187-.09,1.032.077a11.566,11.566,0,0,0,1.986-.329q.979-.252,2.012-.535l.077.039a4.828,4.828,0,0,0,1.419.567,5.551,5.551,0,0,1,1.522.619l.077.052.129.58-.864.58-.168.233a3.769,3.769,0,0,0-.838,1.65,6.459,6.459,0,0,1-.761,1.858l-.245.412-.168.942.117.322h.219v.542l-.258.077v.336h.18v.683l-.451.181-.8-.181-.271.284-.141-.206-.039-.052a.342.342,0,0,0-.232-.077c-.026,0-.1.006-.226.019a4.561,4.561,0,0,1-.458.019l-2.141.361-.09-.283h-.529l-1.406.18-.3-.116a18.989,18.989,0,0,1-1.393-2.644,8.222,8.222,0,0,0-1.522-2.347l-.142-.039-2.45,3.379-.736.31-.993-.3.89-.9Zm1.431-11.207a9.087,9.087,0,0,0,1.187-2.657q.077-.3.142-.593l-.091-.271.387-1.277.555-.155,1.96,1.032.129.554a1.892,1.892,0,0,0-.283.246,1.668,1.668,0,0,0-.284.374,2.4,2.4,0,0,0-.232.657l-.026.129-.645.168-.683.929-2.632,1.65Z" fill="#3f3b34"/>
    </g>
  </g>
</svg>
