<svg xmlns="http://www.w3.org/2000/svg" xmlns:xlink="http://www.w3.org/1999/xlink" width="121" height="240" viewBox="0 0 121 240">
  <defs>
    <clipPath id="clip-banner-2-text-4">
      <rect width="121" height="240"/>
    </clipPath>
  </defs>
  <g id="banner-2-text-4" clip-path="url(#clip-banner-2-text-4)">
    <g id="_04" data-name="04" transform="translate(-1797.542 -1351.845)" style="mix-blend-mode: multiply;isolation: isolate">
      <path id="Path_356" data-name="Path 356" d="M1800.921,1391.919h.4l.542.555a5.5,5.5,0,0,1,.58.684,1.148,1.148,0,0,1,.206.67,2.425,2.425,0,0,1-.025.336l-.426,1.405-.787.194v-.31l-.838-1.767.1-.1a.585.585,0,0,0,.142-.412v-.607l-.181-.374.284-.1Zm.348-5.081h.71l1.418.658.362,1.393-.284.283-.955-.412-.619.232-.438-1.38.361-.129v-.168Zm7.932,20.21v-.413l-1.109-1.754.593-.258.1-3.521-.077-1.122-.754,1.142q-.33.5-.632.87a8.646,8.646,0,0,1-.716.774,5.329,5.329,0,0,0-.793.168,3.148,3.148,0,0,0-.639.271q-.645.348-1.367.761l-1.2.683.941-1.006q1.212-1.29,2.412-2.644a7.736,7.736,0,0,0,1.522-2.515,2.6,2.6,0,0,1-.942.271,9.725,9.725,0,0,0-1.109.181l-1.07-1.38-.71-.568.426-.09a5.882,5.882,0,0,0,1.548-.49c.059-.035.116-.069.167-.1v-.31h.929l1.677.413.245-.052-.413-.425-.49-1.135.206-.078a.315.315,0,0,0,.194-.284,4.211,4.211,0,0,0,.051-.632v-.206h.413v-.206l1.7.219.374.4.233,1.019-.246.761h.181l.606-.336.323-.438h.825l1.677.516.412.374v.606h-.116l.194.193q-.631.207-.929.284-.618.168-1.335.29t-1.554.316l-.026.065a16.6,16.6,0,0,0,5.533,4.436l2.58,1.045.219.606-2,.245-.49-.1-.9.1a7.043,7.043,0,0,1-2.341-1.083,22.919,22.919,0,0,1-2.083-1.664l-1.148-1.625-.4,6.552.142.658Zm5.185-13.1v-.374l.593-1.2-.077-.555h-.98q-2.4.516-4.837.813t-4.991.5l-1.251-.426.374-.374-.207-.155.749-.309.232-.464h1.328l.619.1q2.168-.181,4.243-.49a38.7,38.7,0,0,1,4.321-.387l.567.077.607-.142v-.142h.748a5.474,5.474,0,0,0,1.057.452,3.1,3.1,0,0,1,1.109.567l.052.039.3.89-.413.116-.116.232h-.129v.348a5.245,5.245,0,0,0-.787.374,6.984,6.984,0,0,0-.658.452,1.817,1.817,0,0,1-1.16.387,2.039,2.039,0,0,1-.542-.078Zm-10.15-7.171c0-.154-.005-.309-.013-.464l-.606-.864h.761l-.619-.516h.709l1.109.413h1.664l1.444.322.155,1.135-1.38.258-.361-.193-.98.425-.078.774c.336.052.679.09,1.032.116a2.251,2.251,0,0,1,1.251.477l.065.052.167.838h-.722q-.387-.309-.722-.528v.141l-.593.31-.9-.464-.336.786-.954.284v.065h-.31l-.632.89-.335-.233a6.223,6.223,0,0,0,.955-2.115A7.88,7.88,0,0,0,1804.236,1386.773Zm2.412-.98-.62-.142.078.955.3-.581-.025-.193Zm3.353-1.56v-.207h.438l-.335-.49h.542l.98.568.271-.091.387.194.219,1.831-.039.349.568-1.058a1.015,1.015,0,0,1,.606-.348,4.01,4.01,0,0,1,.645-.052h.026l1.547.348.155,1.135-.193.039a7.737,7.737,0,0,0-1.806.529l-1.664.709-.245.555.1.4-.774,1.47a7.5,7.5,0,0,0-1.405.5c-.431.206-.877.4-1.342.593l-.528.219.5-.954a3.805,3.805,0,0,0,1.038-.774,2.545,2.545,0,0,0,.587-1.019l.206-2.308a8.4,8.4,0,0,1-.348-.993A4.224,4.224,0,0,1,1810,1384.233Zm-1.393,3.4v-.516h.477l-.438-.439,1.5-.168.116.323h.258v.9h-.568l-.155-.078v.1l-.619.322Zm5.417,1.6a2.482,2.482,0,0,1-1.458-.452l-.038-.025-.194-.336.452-.606h1.135l1.65.452.258,1.276h-.49A2.9,2.9,0,0,0,1814.025,1389.237Z" fill="#3f3b34"/>
      <path id="Path_357" data-name="Path 357" d="M1812.864,1430.586v.232h-.438l-.155-.335h-.232l-.078-.774h-.142a19.477,19.477,0,0,1-2.553.7,14.266,14.266,0,0,1-2.773.258h-.1l-.619-.89-.323-.129-.1-1.083-.426-.413v-.142l-.49-.245-.026-.1a3.269,3.269,0,0,0-.87-1.7q-.7-.749-1.49-1.535l-.542-.851h.491l2.063.825L1805.8,1423l.361-.155.1-.283q1.883-.439,3.23-.729t2.245-.51q.9-.219,1.863-.5l2.954,1.161.348.722-.98,1.006q-.259,1.755-.645,3.515a12.474,12.474,0,0,1-1.251,3.334l-.052.09-.67.09-.413-.167Zm-2.992-11.376a5.677,5.677,0,0,1-2.515.619c-.181,0-.37-.008-.568-.025l-1.018-.284a11.446,11.446,0,0,1-.7-1.122q-.283-.529-.58-.993h-.245l-.026-.181a2.33,2.33,0,0,0-.593-1.322,12.277,12.277,0,0,1-.955-1.257l-.335-.1v-.8h.5l.7.3.194-.154.18.09a18.364,18.364,0,0,1,3.741-1.6,30.918,30.918,0,0,1,4.036-.929,3.881,3.881,0,0,1,1.625.477q.7.4,1.5.774l.116.787-1.11.438a25.429,25.429,0,0,0-.986,2.735,11.718,11.718,0,0,1-1.206,2.708l-.09.155-.284-.116-.271.361-.361-.207-.49,1.1v-1.367l-.026-.078Zm2.476,5.675v.361l-.516.078v.232l-5.172,1.3-.012.052a2.512,2.512,0,0,1,.432.922q.122.51.3,1.064l-.052.207.361.1,4.2-.916.1-.232.374-.09.232-1.548q-.076-1.019-.116-2.077a8.78,8.78,0,0,0-.258-1.844l-.09-.026q-2.206.671-4.372,1.367l-1.122-.516a3.264,3.264,0,0,0-.736.22,1.358,1.358,0,0,0-.258.245l-.141.516.1.645-.542.18.168.09.7.478,2.5-.658a18.144,18.144,0,0,1,2.747-.516l1.161.181Zm-2.012-10.292h.039l.026.013.064-.658-.129-.825h-.142l-2.437.877-.478-.31-.3-.387h-.361l-.413.207-.606,1.315.116.516h-.31v.013l.49.181q.981-.35,2.077-.632A9,9,0,0,1,1810.336,1414.593Zm-.206,3.211v-.438l.232-1.664h-.232a7.334,7.334,0,0,1-1.845.593,11.889,11.889,0,0,0-1.766.452v.232l.451,1.3h.606Z" fill="#3f3b34"/>
      <path id="Path_358" data-name="Path 358" d="M1800.947,1457.515h-.232v-.438l.49-.155v-.168a4,4,0,0,0,.516-.232,2.7,2.7,0,0,0,.89-.774l.064-.09h.129l.077-.258h.284v-.026a4.962,4.962,0,0,0-.735-1.625,9.243,9.243,0,0,0-1.315-1.547l-.374-.361h.632l1.018.386,1.135-1.044v-.22l1.7-.748v-.038l-.194-1.161a8.594,8.594,0,0,0,.839-1.857,15.692,15.692,0,0,0,.451-1.909l-.09-.193-.271-.039-1.019.348-.3-.284a14.942,14.942,0,0,1-.464,2.206,4.7,4.7,0,0,1-1.548,2.283l-.735.309v-.438a7.346,7.346,0,0,0,.8-2.709q.127-1.406.232-2.915a2.974,2.974,0,0,1-.4-1.367,3.833,3.833,0,0,0-.283-1.315l-.117-.284h.413l.078.013-.3-.748.954.683.439.478.606.038-.387-.9h.632l.052.065a.608.608,0,0,0,.412.193h.619l2.722-.877v-.219l-.271-.413-.206-.09q-.182-.606-.368-1.077a4.773,4.773,0,0,1-.277-1.09l.374-.49h.567a.654.654,0,0,0,.31.1.507.507,0,0,0,.135-.019.5.5,0,0,1,.136-.019.51.51,0,0,1,.515.412l.8,2.335h.323l1.147-.529,2.257.658v.438h-.116l-.1.516h-.18l-.091.22-2.657.76v.142a53.344,53.344,0,0,0,2.67,6.617l.065-2.3-.413-1.161-.684-.541,1.5-.155,1.2.554a2.2,2.2,0,0,1,.426.942,5.244,5.244,0,0,1,.09.928v.026l-.916,3.96a23.705,23.705,0,0,1,1.7,3.521,18.653,18.653,0,0,0,1.774,3.482l.09.013.632-1.832.193.568a4.261,4.261,0,0,1,.232,1.193,11.14,11.14,0,0,0,.155,1.3l-.116.258.116.722-.425.426-1.006-.4-.568-.477a36.928,36.928,0,0,1-1.909-3.379l-1.663-3.328-.039-.013-.439.568-1.212,1.509q-2.592,1.032-5.243,2.051t-5.462,2.037Zm2.644-4.862a8.128,8.128,0,0,1,1.47,2.592h.155l.271-.116v-.245a5.8,5.8,0,0,1-.181-1.444v-1.251l-1.173-.413-.465.516Zm1.2-10.485a1.6,1.6,0,0,1,.258,1.005v.013l-.064.478h.219l1.548-.736.348-.464,1.083-.18,1.213.619-.439-1.045h-.425q-.762.155-1.458.361a3.64,3.64,0,0,1-1.109.168,4.639,4.639,0,0,1-.58-.039l-.594-.232Zm1.883,11.027q-.09.438-.206.877a2.286,2.286,0,0,1-.374.786l.361-.154A5.013,5.013,0,0,0,1806.673,1453.195Zm-.025-1.471.025.207v-.245Zm3.559-3.134h.271a3.389,3.389,0,0,1,.993.323,5.356,5.356,0,0,0,.581.258,14.663,14.663,0,0,1-1.193-2.547q-.473-1.323-1.026-2.664l-.051.271h-.736a18.2,18.2,0,0,0-1.2,2.767,19.273,19.273,0,0,1-1.135,2.689l2.592-.71v-.064l.864-.323Zm-1.805,2.283a.7.7,0,0,1,.206.516v.684q-.155.618-.284,1.186a2.478,2.478,0,0,1-.542,1.058l1.187-.452v-.129l.181-2.734-.155-.219h-.374Zm2.669,2.348.787.116v-.013l.039-.052a4.912,4.912,0,0,0,.664-1.251,6.088,6.088,0,0,0,.316-1.354l-.155-.129a.855.855,0,0,1-.542.3.472.472,0,0,0-.335.193Zm5.765-11.492a1.464,1.464,0,0,0-.7-.271.888.888,0,0,0-.258.039l-.258.051v-.258a5.685,5.685,0,0,0-.122-1.205q-.125-.561-.278-1.1l-.529-.258-.154-.684h1.031a2.19,2.19,0,0,1,1.226.374,5.545,5.545,0,0,1,.993.813l.232.748h.232v1.032h-.335l-.155.361-.838.413Z" fill="#3f3b34"/>
      <path id="Path_359" data-name="Path 359" d="M1802.495,1474.475c-.121,0-.254,0-.4-.013l-.968-.283-.257-.374-.723-.258-.348-.839c.31.026.5.039.58.039a2.047,2.047,0,0,0,1.161-.335,2.76,2.76,0,0,1,1.574-.477h.013l1.135.09.025-.129-.49-1.6.387-.129.065.193.838.593.567.645h.142q.968-.258,1.883-.464a16.515,16.515,0,0,1,1.883-.31v-.3q-.336-.864-.632-1.728a5.912,5.912,0,0,1-.322-2v-.206h.413l1.019,1.909,1.134.98.478.993,1.019.065.245-.039v-.271l-.361-.258v-.077h-.078v-.413a6.171,6.171,0,0,0,.116-.742,2.06,2.06,0,0,1,.207-.728l-.078-.361.155-.361h.206l.1-1.239h.4l.207.4.245.1.361.684.735.193.219,1.342-.206.348h-.09l-.129,1.341h.348l.916-.3a6.924,6.924,0,0,0,1.844.335,4.13,4.13,0,0,1,1.844.5l.1.064v.374l-.1-.1v.31h-.232l.1.645-.915.232a14.612,14.612,0,0,0-2.006-.219q-.987-.039-1.954-.1l-.619,4.85-1.161.245-.374-.645h-.3l-.465.1-.284-.051.194.954-.993.258-.439-.4v-.064l-.283-.168-.8-1.806.052-.09a2.371,2.371,0,0,0,.3-1.2c0-.043-.006-.215-.019-.516s-.02-.705-.02-1.213l-.038-.116h-.013l-2.709.748v.168l.877,2.631v4.463a15.716,15.716,0,0,1,3.083-.555q1.018-.078,1.883-.077,1.109,0,1.535.025l1.032.1,1.225-.181a10.216,10.216,0,0,0,1.844.348,7.023,7.023,0,0,1,1.909.439l1.045.4h-1.1v.18l-.271.206.271.478c-.215.1-.366.172-.451.206a2.084,2.084,0,0,1-.568.135,7.326,7.326,0,0,1-.761.033h-.025a16.024,16.024,0,0,0-3.212-.4q-1.651-.039-3.314-.219a10.8,10.8,0,0,1-2.554.567,5.28,5.28,0,0,0-2.36.826l-.091.051-.644-.258c-.026-.112-.046-.187-.058-.226s-.028-.079-.046-.122a1.169,1.169,0,0,0-.154-.194c-.121-.111-.194-.18-.22-.206a2.12,2.12,0,0,1-.4-.554l-.091-.168.877-.555.065-.425q-.259-1.638-.432-3.334a11.529,11.529,0,0,0-.742-3.115h-.077q-.608.258-1.232.484A3.694,3.694,0,0,1,1802.495,1474.475Zm9.518-2.282a3.762,3.762,0,0,0-.284,1.457q0,.774-.064,1.56l.464.078.374-.129a16.648,16.648,0,0,0,.309-2.966Z" fill="#3f3b34"/>
      <path id="Path_360" data-name="Path 360" d="M1803.062,1511.362v-.284l-.929-.942-.3-1.057a12.5,12.5,0,0,0,.387-2.818q.039-1.477.038-2.947l-.477-2.567q-.825,1.6-1.728,3.141a19.024,19.024,0,0,1-2.154,2.96l-.361.4v-.683a40.632,40.632,0,0,0,2.953-5.307,26.068,26.068,0,0,0,1.858-5.656l-.516-1.676.438-1.123.594-1.444h.412l.774.8h.658a1.045,1.045,0,0,1,.787.322l.038.039.142.464a21.273,21.273,0,0,1-.993,3.128q-.606,1.49-1.328,3.024l-.581.568v.386a6.652,6.652,0,0,1,1,2.07,8.587,8.587,0,0,1,.316,2.354v.013l-.09.581.09.245v.038a10.277,10.277,0,0,1-.181,2,16.4,16.4,0,0,0-.258,1.948l.194,1.8Zm8.487-19.8a.969.969,0,0,1-.22-.632c0-.043,0-.094.007-.154s.006-.129.006-.207a1.665,1.665,0,0,0-.051-.425l-.026-.155.722-.387v-.413h.387a1.673,1.673,0,0,0,.116.142.42.42,0,0,0,.31.116h.812v.181h.155l.18,1.393h.039l.619-.233a1.153,1.153,0,0,1,.581-.245,5.143,5.143,0,0,1,.593-.038h.051l.052.026a1.2,1.2,0,0,0,.619.167,1.819,1.819,0,0,0,.284-.026,2.5,2.5,0,0,1,.374-.025,2.364,2.364,0,0,1,.774.129l.142.051v.194h.438v.412l-.116.052a5.268,5.268,0,0,1-2.334.606,8.7,8.7,0,0,0-2.18.348l-.065.774h.439a1.471,1.471,0,0,0,.522-.277.8.8,0,0,1,.523-.187h.013v-.155h.5a6.506,6.506,0,0,0,1.47.348,3.948,3.948,0,0,1,1.483.452l.077.038.129.465-.361.464-.451.232a13.152,13.152,0,0,1-.606,2.438,12.614,12.614,0,0,0-.594,2.373l.581.245.116,1.045h-.232l-.1.361h-.426l-.98-.078.335.736-.026.077,1.29.064,2.992-.335,2.283.477v.207l.774.335-.568.155a12.3,12.3,0,0,1-3.359.451,34.117,34.117,0,0,0-3.425.168,6.96,6.96,0,0,1-.283,1.277,4.62,4.62,0,0,0-.207,1.418l.155,3.766-.077,1.548.154.49h-.27l.361.529-1.716-.593v-.4l-.361-.284a1.457,1.457,0,0,0,.052-.284.551.551,0,0,0-.09-.3,3.263,3.263,0,0,0-.387-.49l-.478-.465,1.38.258.168-3.34-.271-2.863h-.374q-3.688,1.083-7.209,2.282l-.555-.232v-.154l-1.767-.374,1.586-.555v-.477a22.264,22.264,0,0,0,2.864-.529q.645-.155,1.264-.361a32.091,32.091,0,0,1,3.74-1.006v-.361l-.129-.942h-.026l-4.811,2.348-.283-.8.232-.671q.774-.323,1.354-.606a5.67,5.67,0,0,0,1.161-.774l.09-.348a1.98,1.98,0,0,1-.787.155h-1.057l-.026-.181a2.324,2.324,0,0,0-.387-1.045,4.262,4.262,0,0,1-.58-1.251l.077-.27a1.163,1.163,0,0,0-.252-.491,3.043,3.043,0,0,1-.354-.528h-.258v-.271l-.929-.581h.723q.4,0,.644-.019c.163-.013.265-.024.3-.032a.852.852,0,0,0,.11-.032c.034-.013.069-.028.1-.045a.719.719,0,0,0,.1-.065,1.3,1.3,0,0,0,.22-.155l.1-.271h.387l.529,1.432.709.065.774-.207.077-1.109-.709.258-.645-.619h-.31v-.632l.245.039a1.088,1.088,0,0,0,.233.025,1.406,1.406,0,0,0,.528-.1q.375-.141.684-.284l.052-.915-.387-.065-2.954.98-.09-.09a.817.817,0,0,0-.529-.232.93.93,0,0,1-.709-.387l-.181-.258,1.019-.206v-.129l.09-.052a3.57,3.57,0,0,1,1.845-.606,8.442,8.442,0,0,0,1.651-.258Zm-2.812,14.162h1.135l2.9,1.341.477.8h-.335v.167l-1.548.116a5.924,5.924,0,0,1-1.129-.516,4.9,4.9,0,0,1-1.025-.812Zm2.786-8h-.232v-.258l-.568.065v.4l.232.954h.49l.207-.116.064-.3Zm3.611,2.8v-.155l.142-.348a4.611,4.611,0,0,0-.619-.542.852.852,0,0,0-.336-.1l-.825.31-.142.412,1.316-.412v.5l-.142.322-.065.013.078.013.477-.09Zm-1.445-6.075-.257,1.109.425.1,1.058-.1.322.065.078-.838-.284-.478-.632-.09Zm.052,3.921,1.264-.4a2.491,2.491,0,0,0,.168-.748q.025-.387.038-.8a2.093,2.093,0,0,1-.928.438q-.4.078-.826.142v.052l.258.889-.064.426Z" fill="#3f3b34"/>
      <path id="Path_361" data-name="Path 361" d="M1809.356,1537.015l.013.438a.96.96,0,0,1-.593.9l-.129.064-.1-.1a6.676,6.676,0,0,1-.657-.735,1.644,1.644,0,0,1-.336-1.006v-.155l.349-.1q.309-2.992.322-6.449h-.116l-1.909.349-1.354-.736,2.979-1.573.09-.671h-.129l-1.263.271-1.006-.735v-.438l.18-.026a2.36,2.36,0,0,0,1.1-.394,6.581,6.581,0,0,1,1.038-.574l.052-.193-.039-.232h-.593l-.71.116-.322-.155.013.026-.851.464-.233.813.078.309v.026a7.869,7.869,0,0,1-1.432,4.65,30.6,30.6,0,0,1-3.237,3.862l-.851.555v-.542a24.492,24.492,0,0,0,2.321-4.1,9.285,9.285,0,0,0,.774-3.792c0-.258-.008-.516-.026-.774l-.129-.374-.129-.038-.593.464a1.473,1.473,0,0,1-.9.3h-.051l-.4-.219-.4-.374h-.284v-.438l.232-.49h.155l.065-.207a7.841,7.841,0,0,1,.8-.3c.207-.061.383-.108.529-.142a2.2,2.2,0,0,0,.916-.413,1.232,1.232,0,0,1,.89-.348c.034,0,.148.006.342.019s.423.019.69.019h.025l.877.207v-.232l1.961-.516v-1.342h.593l1.135-2.476a7.759,7.759,0,0,1-1.393.555,5.4,5.4,0,0,1-.671.129l-.1-.078-1.277.258-.077-.077a1,1,0,0,0-.645-.31,2.091,2.091,0,0,1-.864-.245l-.064-.038-.168-.529.864-.3.077-.271,2.386-.438.568.077a10.186,10.186,0,0,1,3.069-.516v-.077h.387l2.4.555v.786a24.342,24.342,0,0,1-2.682,1.716q-1.3.71-2.528,1.457l-.039.09a2.88,2.88,0,0,0,1.083.207h.31a2.844,2.844,0,0,1,1.457.4l.078.052.129.58-1.664,1.135-.026.091h.967l2.451-2.386.451-1.187,1.11-.09c.335.051.619.088.851.109a4.913,4.913,0,0,1,.5.065,1.424,1.424,0,0,1,.291.1,2.154,2.154,0,0,1,.515.283l.065.052.1.555-.129.3a14.324,14.324,0,0,1-2.6,1.329,10.629,10.629,0,0,0-2.412,1.276l-.039.181.813.89a9.88,9.88,0,0,0,1.515,3.095,31.47,31.47,0,0,0,2.251,2.722l3.585,1.818V1534l.671.515-1.393.129a7.386,7.386,0,0,1-2.947-.741,11.018,11.018,0,0,1-2.5-1.7l-2.5-3.6h-.1l-1.638.774-.322,5.133.155,1.819A4.59,4.59,0,0,0,1809.356,1537.015Zm.413-9.686.98.077a3.557,3.557,0,0,0-.581-.825.643.643,0,0,0-.1-.065l-.232.181Z" fill="#3f3b34"/>
      <path id="Path_362" data-name="Path 362" d="M1809.923,1562.087v.309h-.8v-.167a2.407,2.407,0,0,1-.613-1.051,4.42,4.42,0,0,1-.161-1.18v-.039a5.215,5.215,0,0,0,.31-1.793v-1.973a13.3,13.3,0,0,0-.233-1.535,2.181,2.181,0,0,0-.67-1.161l-.129-.038-2.5,3.495h-.181l-.722,1.057-.181.052v.181l-.348.09-.064.219h-.465v-.077h-.077a1.028,1.028,0,0,1-.5.264,3.476,3.476,0,0,1-.606.045h-.439l.284-.335a17.908,17.908,0,0,0,1.432-1.96h.167l.645-.929.451-.49a19.063,19.063,0,0,1,1.239-1.877,4.912,4.912,0,0,0,.89-1.928l.025-.116.258-.09a16.65,16.65,0,0,1,.7-1.554,4.979,4.979,0,0,0,.51-1.735l.025-.181h.181v-.18h-.065a30.83,30.83,0,0,1-5.532,1.483l-1.651-.735v-.4l1.044-.593.1-.22q2.733-.514,5.249-1.128a27.07,27.07,0,0,1,5.262-.729l.155-.309h.9v-.181h.1v-.18h.477l1.947.851v.167l1.264.7.181.787h-.258c-.078,0-.163.068-.258.206a.609.609,0,0,1-.516.31.574.574,0,0,1-.206-.039,15.435,15.435,0,0,0-3.2-.323q-1.683,0-3.373-.077a2.819,2.819,0,0,1-.426.1l1.122.271.117.58a22.177,22.177,0,0,1-1.123,2.258q-.567.98-1.044,1.947a3.507,3.507,0,0,1,.941.9,8.968,8.968,0,0,1,.735,1.18l.168,1.032-.077,1.329.1.309-.1.116v3.766l.193,1.122h-.193v.181Zm8.229-6.32q-1.573-.876-3.05-1.876t-2.909-2.083l-.49-.787.955-.155a14.33,14.33,0,0,1,3.3,1.064,13.522,13.522,0,0,1,2.954,1.9l.464.928-.116.477-.658.3Z" fill="#3f3b34"/>
      <path id="Path_363" data-name="Path 363" d="M1804.145,1584.993v-.271l-.038-.091h-.078l-.49-1.405.387-1.587h.039v-.038a14.615,14.615,0,0,0-.761-3.392,6.67,6.67,0,0,0-2.077-2.864l-.438-.361h.722c.369.189.74.366,1.109.529a2.552,2.552,0,0,0,.968.245l1.019-1.2-.129.748a.956.956,0,0,0-.026.219.806.806,0,0,0,.09.387,1.572,1.572,0,0,1,.194.8v.025l-.039.181.348.09a12.381,12.381,0,0,0,1.825-.67,5.785,5.785,0,0,1,2.006-.5l.219-.013v.451l-.4.709-.271.091-.142.193-.193.323q-.774.206-1.458.374a4.48,4.48,0,0,1-1.031.116c-.086,0-.177-.005-.271-.013v1.019h.013a12.729,12.729,0,0,1,1.792-.555q.942-.219,2.141-.438v.5l-.258.309v.323a7.322,7.322,0,0,1-.935.451,6.55,6.55,0,0,1-.87.271,6.246,6.246,0,0,0-1.574.58l-.051.31.206,1.109-.155.09.284.219v.336h.013l3.779-1.316.077-2.425a14.323,14.323,0,0,0-.361-2.431,17.591,17.591,0,0,1-.4-2.495h-.1a3.085,3.085,0,0,0-.916.541,5.132,5.132,0,0,1-.993.645l-.206.1-.709-2.024.142-.168a1.023,1.023,0,0,1,.348-.239.926.926,0,0,1,.335-.071.8.8,0,0,1,.31.065l.361.064a5.116,5.116,0,0,0,1.3-.522,2.622,2.622,0,0,1,1.329-.342c.094,0,.206.005.335.013l2.554.993v.581l-1.122,1.2-.348,2.051.257,1.689-.154,4.076-.271.167-.09.671h-.362l-.49-.4-.361-.554-.219.09-.181-.5h-.038l-.568.529v.425l-2.373,1.187v.155c-.25.034-.434.064-.554.09a3.15,3.15,0,0,0-.645.206,3.437,3.437,0,0,1-1.122.323Zm-1.986,4.127v-.013l.181-2.193-.207-1.251.542-.219c.155.155.277.286.368.393s.178.218.264.329a1.423,1.423,0,0,1,.284.671l.438.181.1,1.031a.717.717,0,0,0-.181.11.361.361,0,0,0-.052.11,1.468,1.468,0,0,0-.038.322l.258,2-.142.361h-.271v.671h-.4l-.413-.426-.335-.645-.064-.064a1.037,1.037,0,0,1-.284-.619A5.761,5.761,0,0,1,1802.159,1589.12Zm3.47-19.823h.258a1.742,1.742,0,0,1,1.07.335l.077.064v.129l.233.078.1.593a2.837,2.837,0,0,1-.155.548c-.06.142-.121.269-.181.381a8.349,8.349,0,0,1-.541.8h-.129l-.387.748-.181-.064-.051.425-.026.181h-.361l-.219-.31-.246-.129h-.1l-1.857,2.258v-.7l1.2-2.786-.168-.593.361-2.257h.426l.064.039A1.293,1.293,0,0,0,1805.629,1569.3Zm-.168,17.553h.013a5.273,5.273,0,0,1,3.121,1.689,3.262,3.262,0,0,0,2.476,1.11,3.113,3.113,0,0,0,.49-.039l1.832-.4.155-1.741h.5v.077h.077v-.528l.451,1.122h.323v.1l1.431.245.349.5h.258v.477l-1.135,1.135a20.408,20.408,0,0,1-2.328.4q-1.155.129-2.29.284a6.44,6.44,0,0,1-3.508-1.355,17.963,17.963,0,0,1-2.811-2.747l-.284-.335Zm3.869-1.367h-.232v-.258l-.49-.245-.155-.684h.529l.4.078.425-.078a8.463,8.463,0,0,1,2.941.877l.825.645h-.387l.568.439h-.477v.077h-.31l.168.09.245.606h-.31a1.6,1.6,0,0,0-.722.116,1.492,1.492,0,0,0-.193.142l-.168-.064.129.142-.555.309c-.1-.1-.163-.174-.206-.213l-.155-.135a1.339,1.339,0,0,0-.335-.193,3.436,3.436,0,0,1-.8-.439l-.245-.567-.348-.091Zm9.751-3.044v.193l.283.065.374,1.006-.928.309-.271.271-.568-.09-.206.1-1.161-.554-1.715-1.935,1.083-.168.349.091.4-.091a3.2,3.2,0,0,1,1.161.413,2.457,2.457,0,0,0,1.019.361Z" fill="#3f3b34"/>
    </g>
  </g>
</svg>
