<svg xmlns="http://www.w3.org/2000/svg" xmlns:xlink="http://www.w3.org/1999/xlink" width="121" height="240" viewBox="0 0 121 240">
  <defs>
    <clipPath id="clip-banner-2-text-3">
      <rect width="121" height="240"/>
    </clipPath>
  </defs>
  <g id="banner-2-text-3" clip-path="url(#clip-banner-2-text-3)">
    <g id="_03" data-name="03" transform="translate(-1797.542 -1351.845)" style="mix-blend-mode: multiply;isolation: isolate">
      <path id="Path_348" data-name="Path 348" d="M1828.275,1373.588v-.645l.662-.39a22.873,22.873,0,0,0,2.317-4.38,15.084,15.084,0,0,0,1.044-4.752l-1.307.967-.866.136-.271-.373-.747-.119-.1-.441h-.271l-.917-1.511,4.464-1.986.119-.221.662-.237.119-.289h.441a15.191,15.191,0,0,0,1.68.187,2.029,2.029,0,0,1,1.647.95l.034.034.186.8-1.069.815a9.2,9.2,0,0,1-.569,2.385q-.448,1.18-.959,2.469h-.254l-1.426,2.7-1.086.764-.1.305-2.427,2.479Zm8.419.526v-.271h.645v.2h.085a22.958,22.958,0,0,0,.289-3.7q0-1.935.186-3.887l-.085-.136v-6.212l-.1-.95.1-.425c-.068-.351-.121-.693-.161-1.027a3.389,3.389,0,0,0-.195-.84h-.221l-.1-5.024h.51a1.54,1.54,0,0,0,.212.255,1.076,1.076,0,0,0,.246.161,1,1,0,0,0,.373.093,8.14,8.14,0,0,0,1.07.068h.1l1.188,1.137v.917l-.34,3.887.1.356-.187,1.137,1.036.153,1.307-1.51a3.831,3.831,0,0,0,.865-1.562l-1.1-.815,1.307-.3.1-.221,1.052-.322V1355h.594l.051.034a2.449,2.449,0,0,0,1.112.356,4.341,4.341,0,0,1,1.2.272l.152.051.17,1.307q-.984,1.2-1.884,2.393a8.625,8.625,0,0,1-2.24,2.054,6.941,6.941,0,0,0-1,.288,1.96,1.96,0,0,0-.441.289l-.051.136,1.969,3.259a16.065,16.065,0,0,0,2.41,3.055,25.3,25.3,0,0,0,4.6,2.385q2.392.942,4.905,2.045v.509l-.17-.17v.442h-3.292v.2h-1.579q-1.85-.8-3.615-1.408a6.956,6.956,0,0,1-3.259-2.394,28.066,28.066,0,0,1-2.241-3.063q-1-1.587-1.952-3.115h-.186l-.2,1.85.136.7-.238,1.018.1.425-.1.8.1,1.239-.1.458.1.424-.1,2.36.1,2.427-.017.068a1.2,1.2,0,0,0-.119.543,1.809,1.809,0,0,0,.026.314,1.52,1.52,0,0,1,.025.263.724.724,0,0,1-.221.56.778.778,0,0,1-.458.238l-.17.034a2.947,2.947,0,0,0-.254-.323.353.353,0,0,0-.187-.1,1.259,1.259,0,0,1-.2-.051c-.135-.034-.316-.084-.543-.152q-.392-.765-.764-1.358A2.775,2.775,0,0,1,1836.694,1374.114Z" fill="#3f3b34"/>
      <path id="Path_349" data-name="Path 349" d="M1841.62,1399.181v.309h-.8v-.167a2.4,2.4,0,0,1-.612-1.052,4.41,4.41,0,0,1-.162-1.18v-.038a5.192,5.192,0,0,0,.31-1.793v-1.973a13.493,13.493,0,0,0-.232-1.535,2.184,2.184,0,0,0-.671-1.161l-.129-.039-2.5,3.5h-.18l-.723,1.057-.18.052v.18l-.348.091-.065.219h-.464v-.078h-.078a1.018,1.018,0,0,1-.5.265,3.567,3.567,0,0,1-.606.045h-.438l.283-.335a17.68,17.68,0,0,0,1.432-1.961h.168l.645-.928.451-.49a19.077,19.077,0,0,1,1.238-1.877,4.9,4.9,0,0,0,.89-1.928l.026-.116.258-.091a16.9,16.9,0,0,1,.7-1.554,4.95,4.95,0,0,0,.509-1.734l.026-.181h.18v-.18h-.064a30.849,30.849,0,0,1-5.533,1.483l-1.651-.735v-.4l1.045-.594.1-.219q2.734-.516,5.249-1.128a27.018,27.018,0,0,1,5.262-.729l.155-.31h.9v-.18h.1v-.181h.477l1.948.852v.167l1.264.7.18.786h-.258q-.116,0-.258.207a.583.583,0,0,1-.722.271,15.429,15.429,0,0,0-3.205-.323q-1.683,0-3.372-.077a2.819,2.819,0,0,1-.426.1l1.122.271.116.58a21.856,21.856,0,0,1-1.122,2.257q-.569.981-1.045,1.948a3.5,3.5,0,0,1,.942.9,9.007,9.007,0,0,1,.735,1.18l.168,1.032-.078,1.328.1.31-.1.116v3.766l.194,1.122h-.194v.181Zm8.228-6.32q-1.574-.877-3.05-1.877t-2.908-2.082l-.49-.787.954-.155a14.357,14.357,0,0,1,3.3,1.064,13.5,13.5,0,0,1,2.953,1.9l.465.929-.116.477-.658.3Z" fill="#3f3b34"/>
      <path id="Path_350" data-name="Path 350" d="M1836.2,1427.323v-.439h-.116l-.439-1.264a6.449,6.449,0,0,0,.246-1.251c.033-.4.051-.812.051-1.251l-.554-1.109-.013-.013a5.227,5.227,0,0,1-1.135,1.612,6.543,6.543,0,0,1-.864.722h-.091l-.051.181-1.109.825v-.58a31.711,31.711,0,0,0,2.818-5.494,35.817,35.817,0,0,0,1.721-5.714h-.335l-2.257.555-2.373-1.5.916-.387q.4-.194.722-.374a3.079,3.079,0,0,1,1.47-.387h.013l.7.1.515-.129.078.09a.331.331,0,0,0,.167.1.8.8,0,0,0,.168.02h.516l.219-.168a26.064,26.064,0,0,0,.387-2.644,15.152,15.152,0,0,1,.5-2.683l.039-.155h.451l.516.8h.31l.838-.142v1.058q-.078.876-.122,1.7a5.332,5.332,0,0,1-.291,1.5l1.2-.451.193-.58,1.316-.091a3.842,3.842,0,0,0,1.2.194q.219,0,.477-.026c.172-.017.357-.026.555-.026a5.745,5.745,0,0,1,1.148.116l.155.039v.941l-.4.117-.078.141-.322.323-6.229,1.483a30.66,30.66,0,0,0-1.58,4,38.851,38.851,0,0,1-1.516,4.011,3.122,3.122,0,0,0,.877.645,1.848,1.848,0,0,1,.929,1.019l.116.671-.464,3.74h-.826l-.026-.039Zm2.244-3.173h-.206v-.632l.825-.194.116-.283h.155l.077-.439h.439l1.045.078.928-.078.245.065.194-.039a7,7,0,0,0,.413-2.244c0-.181-.009-.361-.026-.542l-.039-.1h-.606l-.3.077a2.884,2.884,0,0,1-1.934-1.147l-.619-1.123h.541a9.216,9.216,0,0,0,.993.329,3.7,3.7,0,0,0,.968.136l.812-.3v-.232a1.9,1.9,0,0,1-.284-1.006,2.848,2.848,0,0,1,.02-.316,3.453,3.453,0,0,0,.019-.38,3.031,3.031,0,0,0-.1-.787l-.039-.09.31-.426h.219l.219-.555.439.258.245.465,1.212.193.09,1.264-.077.271.013.116h.929a7.724,7.724,0,0,0,1.276.1,2.022,2.022,0,0,1,1.239.374l.077.065v.657l-.645.607-2.644.851-.077.554-.052.052a1.748,1.748,0,0,0-.464,1.083,4.821,4.821,0,0,1-.387,1.445l-.052.09,2.49-.284v-.387h.309a18.37,18.37,0,0,0,2.367.413,8.5,8.5,0,0,1,2.3.581l.129.051v.774l-.065.064a2.385,2.385,0,0,1-1.122.62,5.875,5.875,0,0,1-1.238.128h-.026q-1.328-.256-2.618-.528a9.154,9.154,0,0,0-1.9-.194q-.36,0-.735.026l-4.282,1.161a2.938,2.938,0,0,0-.245-.31A1.189,1.189,0,0,0,1838.447,1424.15Z" fill="#3f3b34"/>
      <path id="Path_351" data-name="Path 351" d="M1834.062,1445.779a7.2,7.2,0,0,1-.89,3.585q-.94,1.664-1.947,3.289l-.387.619v-1.019a8.935,8.935,0,0,1-.529-1.767l.232-.541h.206q.737-1.213,1.484-2.554t1.831-3.34v1.728Zm.439-4.605a7.537,7.537,0,0,0-1.251-.877,2.73,2.73,0,0,1-1.122-1.251l-.117-.232.645-.142a5.494,5.494,0,0,1,1.355.31,4.337,4.337,0,0,1,1.16.658l.052.051.142.568-.232.722-.529.284Zm-1.471-6.371h-.193l-.271-1.264h.49a7.181,7.181,0,0,0,1.29.568,3.769,3.769,0,0,1,1.341.774l.065.051.129.645-.632,1.328-.194-.309a1.957,1.957,0,0,0-.774-.709,5.406,5.406,0,0,1-1.031-.645Zm8.616,16.676a2.3,2.3,0,0,1,.038-.374l.22-.322.283-.219.1-2.773-.052-.336a8.406,8.406,0,0,0-.735.89,2.448,2.448,0,0,1-1.071.89,5.078,5.078,0,0,0-1.767,1.238,10.124,10.124,0,0,1-1.779,1.471l-.323.206v-.529a33.429,33.429,0,0,0,2.683-3.456,15.766,15.766,0,0,0,1.741-3.431h-.077a22.636,22.636,0,0,1-2.322.89q-.414.129-1.019.258l-.271-.735a3.523,3.523,0,0,1-.387-.065.885.885,0,0,1-.245-.084.94.94,0,0,1-.122-.083.438.438,0,0,1-.065-.065.22.22,0,0,1-.032-.058c-.008-.021-.018-.043-.026-.064s-.017-.046-.025-.071a.624.624,0,0,1-.013-.129v-.142l1.509-.542.193-.4,1.715-.077.387.168,1.741-.529-.425-1.213.4-1.212.451.581,1.586.27.129,1.045-.025.116h.038a2.773,2.773,0,0,1,.929-.155.883.883,0,0,0,.645-.27l.193-.426h1.548l2.218.567v.555l-.541.761h-.7l-.928-.1-3.612.567-.1.31,1.354,2.012a6.389,6.389,0,0,0,1.883,1.792,10.074,10.074,0,0,0,3.2,1.432,13.2,13.2,0,0,1,3.257,1.29l.09.051.142,1.264h-.413a2.825,2.825,0,0,1-1.38-.361,2.455,2.455,0,0,0-1.148-.309l-.27.09q-1.045-.245-1.754-.458t-1.122-.361a5.423,5.423,0,0,1-.749-.329,5.542,5.542,0,0,1-1.754-1.5l-1.392-1.69-.233,2.748.1,2.669-.271,1.29-1.213-1.444q-.194-.361-.309-.594A1.125,1.125,0,0,1,1841.646,1451.479Zm-1.948-12.832h-.361l-.671-.478a3.593,3.593,0,0,1-.606-1.47,3.511,3.511,0,0,0-.464-1.3l-.245-.4,1.625.335.864-.335.142,1.689h-.193v.722l.141.7,1.458.258.206,1.3-.413,1.3h-.154a1.051,1.051,0,0,0-.516.168,2.217,2.217,0,0,1-.684.335l-.129.039-.309-.323a4.556,4.556,0,0,0,.322-.451,1.619,1.619,0,0,0,.142-.31,1.768,1.768,0,0,0,.116-.67Zm2.98-2.735h-.671l-1.87-1.1.4-.155q1.38-.516,2.837-.9a11.862,11.862,0,0,1,3.121-.4h.052l1.909,1.006.245.554-.258.735h-.142a7.265,7.265,0,0,0-1.909.245,3.655,3.655,0,0,0-1.638.981l-.271-.3a3.021,3.021,0,0,0,.851-1.122,3.423,3.423,0,0,0,.284-1.174h-.361a6.888,6.888,0,0,0-.8.252,1.936,1.936,0,0,0-.683.445l-.129.206-.684.348Zm.025,1.78v-.013l.1-.593-.322-1.148h.658l.993.593.245,1.832a12.694,12.694,0,0,0,1.38.129,2.908,2.908,0,0,1,1.561.477l.051.052a.911.911,0,0,1,.239.49,3.531,3.531,0,0,1,.045.554v.129l-1.019.529-1.354-.219v-.168a4.391,4.391,0,0,0-.587-.1c-.16-.013-.273-.025-.342-.038a1.148,1.148,0,0,1-.2-.058,1.452,1.452,0,0,1-.187-.091,2.35,2.35,0,0,1-.387-.283l-.013-.052a2.551,2.551,0,0,0-.464-.877A1.732,1.732,0,0,1,1842.7,1437.692Z" fill="#3f3b34"/>
      <path id="Path_352" data-name="Path 352" d="M1831.122,1473.031v-.387l1.883-1.419.825-.748h.129q.993-1.226,1.831-2.495a10.057,10.057,0,0,0,1.251-2.638h-.025l-3.47,1.238-.232-.438c-.266-.155-.516-.286-.748-.394a2.864,2.864,0,0,0-.761-.225l-.168-.039v-.426l.916-.271a.977.977,0,0,1,.709-.541,5.572,5.572,0,0,0,.852-.245l.8.077a6.121,6.121,0,0,0,1.419-.322q.684-.246,1.393-.478l.155-.877-.194-1.057a8.306,8.306,0,0,0,.529-3.044v-.206h.555l.451.529,1.47.167v1.174l-1.006,2.889q1.792-.413,3.753-.664t3.883-.665l.219.039.051-.142h.349a5.626,5.626,0,0,0,1.425.181,3.408,3.408,0,0,1,1.36.271l.091.038.374,1.11-2.09.18-1.7-.077q-2.2.18-4.34.47a14.4,14.4,0,0,0-3.953,1.1,13.523,13.523,0,0,1-1.535,3.379,20.7,20.7,0,0,1-2.4,3.109,3.189,3.189,0,0,0-.271.27l-.361.336a3.967,3.967,0,0,1-1.47.928,5.041,5.041,0,0,1-1.741.31Zm12.484,5.623v-1.019q-.258-2.141-.419-4.243t-.393-4.088q-.375.464-.5.593a1.757,1.757,0,0,1-.542.387l-1.251.464-.142,1.328,2.476-.632v.413l-.167.387.09.31-.09.077a2.809,2.809,0,0,1-1.29.748,8.568,8.568,0,0,0-1.212.374q-.181,1.3-.3,2.65a7.421,7.421,0,0,1-.741,2.612l-.348.542-.658.645-.568.18v-.4a16.99,16.99,0,0,0,.8-3.554q.205-1.81.31-3.695.012-.258.012-.567a7.528,7.528,0,0,0-.219-1.806,12.477,12.477,0,0,1-.387-2.476l-.013-.219h.258l.168-.271v-.323l.271.091a.789.789,0,0,0,.245.038.573.573,0,0,0,.258-.064,1.245,1.245,0,0,0,.451-.31l.387-.748.645-.206.335.077,1.587-.619v-.155l.438-.18v-.09l.813-.246q.593.285,1.128.5a4.651,4.651,0,0,0,1.1.29l.129.013.258.826-.451.58-.658.155a7.907,7.907,0,0,0-.465,2.727,27.569,27.569,0,0,1-.154,2.909,8.685,8.685,0,0,1,.154,1.676,7.484,7.484,0,0,0,.181,1.664l-.077.348q.155,1.085.283,2.193a20.2,20.2,0,0,1,.129,2.334v.078l-.425.516-.632.154a11.375,11.375,0,0,1-.7-1,2.767,2.767,0,0,1-.361-1.013l-.013-.064.039-.064A1.535,1.535,0,0,0,1843.606,1478.654Zm-.954-10.872a1.091,1.091,0,0,0-.142-.555h-.181a1.906,1.906,0,0,1-.8.342,5.548,5.548,0,0,0-.852.226,1.646,1.646,0,0,0-.245.309.251.251,0,0,0-.051.116.443.443,0,0,0,.051.194l.052.361h.026a8.559,8.559,0,0,1,1.56-.632q.283-.078.594-.142A1.69,1.69,0,0,1,1842.652,1467.782Z" fill="#3f3b34"/>
      <path id="Path_353" data-name="Path 353" d="M1830.348,1495.317v-.348l1.431-.529.091-.309H1832v-.168l.193-.013a6.984,6.984,0,0,0,2.728-.67,27.923,27.923,0,0,1,2.586-1.1,2.254,2.254,0,0,0,.309-1.019q.039-.643.039-1.315v-.206h.529l1.186.748.1.58-.335.89h-.116v.116l-.684.245h.529a1.385,1.385,0,0,1,1.045.4l.039.039.154.5q-2.256.671-4.282,1.405t-4.088,1.458Zm8.151-7.622a6.243,6.243,0,0,0,.7.039,1.78,1.78,0,0,1,1.084.374l.077.064v.349l-.271.386a6.36,6.36,0,0,0-2.386.774,5.151,5.151,0,0,1-2.554.632h-.077l-.567-.464v-.129l-1.11-.516.929-.335a11.843,11.843,0,0,0,3.2-.89v-.284a3.339,3.339,0,0,0-.233-.825c-.12-.241-.258-.5-.412-.774l-.98-.8-.181-.58h.516l2.321,1.148.026.038a1.083,1.083,0,0,1,.252.51,2.976,2.976,0,0,1,.058.574v.051Zm-3.56,9.763a.632.632,0,0,1-.193-.464.7.7,0,0,1,.019-.161.8.8,0,0,0,.019-.181.45.45,0,0,0-.077-.225l-.052-.091.168-.4h.142a4.761,4.761,0,0,0,.619-.039.786.786,0,0,0,.426-.207l.1-.27h.206l.271-.465.426.091.619-.207.1-.335,1.225-.374v.258h.077l.22.309.812.426.116.529-.129.284-.7.515a3.155,3.155,0,0,0-.219,1.2v1.509l.077,1.728-.155,1.909c.034.456.052.858.052,1.206s0,.6-.007.748-.006.256-.006.316a5.289,5.289,0,0,0,.309,1.767l-.128.554h-.349l-.8-.761-.787-2.153h.438l.168-1.69v-3.018a1.654,1.654,0,0,1-.413.477,1.414,1.414,0,0,0-.477.555l-.039.064-.206.091v.219h-.58l-.31-.052a15.3,15.3,0,0,1-.342,2.135,7.779,7.779,0,0,1-.78,2.044l-.064.1h-.864v-.748q.437-1.818.748-3.585A21.908,21.908,0,0,0,1834.939,1497.458Zm-.361-6.758v-.206h.439l.864.49.025.039a1.132,1.132,0,0,1,.22.67v.864h-.658a4.4,4.4,0,0,1-.651-.864A1.983,1.983,0,0,1,1834.578,1490.7Zm2.257,7.906a.551.551,0,0,1-.232-.038l-.258-.117-.039.426h.168l1.212-.49a.331.331,0,0,0,.091-.219v-.194a3.863,3.863,0,0,0-.336.323l-.051.064A.765.765,0,0,1,1836.835,1498.606Zm-.284-2.154.039.1-.026-.142Zm.568.155h-.5l.129.271.374-.219.4-.207v-.309Zm7.506-8.448a1.115,1.115,0,0,1,.864-.387c.034,0,.1.005.207.013.283.018.593.026.928.026h.052l.722.439.181.593h-.284l-.091.3q-.966.283-1.8.5a5.126,5.126,0,0,0-1.541.677l-.077.258h.657l2.1-.348,1.78.838.258.619-.246.362-.438.5-.477.76-.336.065v.168l-.722.193-.064.568-.1.038a5.332,5.332,0,0,1-1.122.413c-.292.06-.589.116-.889.168l.219.167v.374l-.026.168.155-.206h1.689l.98.387.168.567-.645.735-.735.09-.941-.283-.452-.426-.412-.206q-.142,1.237-.349,2.495a16.613,16.613,0,0,0-.206,2.677l.309,1.354a3.448,3.448,0,0,0,1.471.413q.851.038,1.715.141l2.244-.412.387-1.367-.142-.465h.5l.374.968a4.325,4.325,0,0,1,1.174.335,2.025,2.025,0,0,0,.864.18c.095,0,.266-.012.516-.038v.606l-.31.709-1.212.542-.116.284q-1.136.18-2.154.438a7.432,7.432,0,0,1-1.7.194c-.173,0-.349-.005-.529-.013a5.225,5.225,0,0,1-1.67-.265,12.649,12.649,0,0,1-1.516-.612l-.361-.258v-.168l-.361-.206a2.771,2.771,0,0,1-.671-.987,5.182,5.182,0,0,1-.258-1.154v-3.818l.078-1.161-.078-.18.078-1.277-.477-.851h.4v-.426l.194-.013a9.393,9.393,0,0,0,1.586-.283,6.034,6.034,0,0,1,1.522-.233l-.258-.451.116-.1a.612.612,0,0,0,.194-.413v-.425h-.31a2.737,2.737,0,0,0-1.044.2q-.492.2-1.161.536l-.1-.155a2.352,2.352,0,0,1-.394-.948q-.084-.5-.2-1.1l.245-.348.323-.232.142-1.587-.839-2.992h.658l1.612.929.116.761-.1.4Zm-.516,12.421h-.3v-.658l2.129-.194q.735.181,1.354.31a2.277,2.277,0,0,1,1.29.8l.025.026.155.49-.193.065a4.046,4.046,0,0,1-1.045.232,4.366,4.366,0,0,0-1.019.232l-1.909-.825Zm.581-2.283v-.1l-.516-.181v-.4l.09.09-.026-.3,1.187-.181q.463.1.9.194a1.507,1.507,0,0,1,.865.49l.025.026.233.58h-.323l-.077.322-1.071.091-.928-.284Z" fill="#3f3b34"/>
      <path id="Path_354" data-name="Path 354" d="M1833.907,1515.669h.065c.189.147.361.271.516.374a.428.428,0,0,0,.232.065.354.354,0,0,0,.09-.013l1.109-.993H1836l.154-.529.129-.013a3.444,3.444,0,0,0,1.374-.425,7.166,7.166,0,0,1,1.258-.568v-.3l.27.09a.583.583,0,0,0,.155.026.458.458,0,0,0,.142-.026,2.017,2.017,0,0,0,.335-.168h.052a3.242,3.242,0,0,1,1.225.219,11.6,11.6,0,0,1,1.058.49l.064.168h.207v.748l-.3.5-.529.194h.052v.154h.8l-1.135.529q-.219,1.212-.515,2.464a14.306,14.306,0,0,0-.387,2.6l.141,1.883h.091l.077,4.514h-.7l-.49-.426v-.09a.425.425,0,0,1-.271-.271l-.091-.271a1.323,1.323,0,0,1-.309-.593,1.694,1.694,0,0,0-.129-.4l-.052-.013-4.217,2.722-.258.529-.568.116a1.805,1.805,0,0,1-.309-.233,1.008,1.008,0,0,1-.3-.67,1.854,1.854,0,0,0-.154-.671l-.039-.077.116-.374h.374l.181-.336a2.568,2.568,0,0,0,.541-.844q.168-.445.387-.9l-.361-1.2a5.2,5.2,0,0,0,.593-2.36q.039-1.329.116-2.619a2.125,2.125,0,0,0-.567-1.251,3.091,3.091,0,0,1-.748-1.522l-.039-.245Zm.31,16.341v-1.057l.387-1.135a2.428,2.428,0,0,0,.129-.787,1.006,1.006,0,0,0-.013-.155h-.168v-.528l.078-.065a.991.991,0,0,1,.644-.245,1.329,1.329,0,0,1,.22.019,1.268,1.268,0,0,0,.206.02.846.846,0,0,0,.361-.078l.129-.077.71.735.077,1.277-1.354,1.444h-.168l-.077.233h-.581a.4.4,0,0,0-.245.1Zm2.167-16.083a1.285,1.285,0,0,0-.49,1.071l.077.5-.065.374.31.916a13.054,13.054,0,0,1,1.219-.561,4.08,4.08,0,0,1,1.3-.291v-.258l-.361-1.689-.155-.052-.645.374-.5.323-.619-.71Zm-.013,9.274,2.592-1.548v-1.419l-.039-.49a4.464,4.464,0,0,1-1.38.5q-.657.116-1.354.168l-.064,1.651Zm-.078-4.024a7.629,7.629,0,0,1,2.515-.736v-.245l.078-.877q-.608.22-1.226.49a3.878,3.878,0,0,1-1.315.3Zm1.69,7.57v-.374l1.419-.09,1.663.89.336.941-.207.529-.709.065a4.37,4.37,0,0,1-1.857-1.174l-.645-.709Zm7.042-8.112v.464a16.21,16.21,0,0,0,.142,2.115l-.877.671-.426-.58-.219-.078a2.651,2.651,0,0,1-.619-1.057,4.348,4.348,0,0,1-.168-1.238v-.065l.039-.052a.955.955,0,0,0,.116-.515v-.736a1.611,1.611,0,0,0-.258-.838q-.258-.426-.684-1.1h.529l1.767.812.026.052A3.6,3.6,0,0,1,1845.025,1520.635Zm3.508,9.918v-.49h.426l.141-.606q-.336-3.522-.606-7.139t-.658-7.164l.078-.955-.31-.928h.284a1.051,1.051,0,0,0,.555-.142,1.406,1.406,0,0,1,.761-.194h.038l1.342.465.09,1.109-.078.567.078.645-.232,1.367.051.348a8.752,8.752,0,0,0-.309,1.638q-.078.839-.078,1.729.284,5.094.8,11.336l-.413.955-.58-.258-.194-.3h-.154l-.387-.516-.207-.593h-.167l-.155-.877Z" fill="#3f3b34"/>
      <path id="Path_355" data-name="Path 355" d="M1831.418,1542.728h.593l.336.568,1.844.993.426,1.561-.439,1.341-.735.3-.09-.1a4.212,4.212,0,0,1-1.213-2.153,16.706,16.706,0,0,0-.619-2.232Zm8.448,14.665v-.9l.206-1.1q-.1-.569-.193-1.058a2.338,2.338,0,0,0-.4-.929,3.731,3.731,0,0,1-1.586-.374q-.7-.348-1.406-.735l-.568-.309.645-.078q1.884-.205,3.715-.5a21.813,21.813,0,0,0,3.572-.89l1.509.233v.58l-.1.064a5.787,5.787,0,0,1-1.644.7,5.656,5.656,0,0,0-1.555.639l-.18.993.1.929a4.036,4.036,0,0,0-.348,1.38q-.039.671-.039,1.444l.039.206h1.212l1.509-.1,1.587.1.567-.09a.572.572,0,0,1,.516-.258c.034,0,.079,0,.135.007s.118.011.187.019c.147.009.284.013.413.013h.052l.051.026a2.365,2.365,0,0,0,.851.232,2.049,2.049,0,0,1,1.058.4l.052.051.09.4h.245v.5a2.832,2.832,0,0,1-.413.335,3.112,3.112,0,0,1-.374.207,2.035,2.035,0,0,1-.812.167h-.013q-1.923-.309-3.818-.5a24.038,24.038,0,0,0-2.489-.129q-.671,0-1.354.039a13.048,13.048,0,0,0-2.967.684,10.883,10.883,0,0,1-3.018.606l-.167.013-.194-.658-1.457-.671,1.3-.193.283-.374.658-.142.464.206a9.956,9.956,0,0,1,2.219-.535q1.122-.135,2.308-.226Zm-4.566-11.053v-.194l1.961-.129.154,1.045-.928.413-2.425-1.135Zm-.516,2.682h.258l1.342.761.154.632h.1l.27-.142.323-1.083-2.322-.4,3.521-.477.555.3v.619h-.284l-.967,1.78-1.38.348-.129-.361-.671-.194-1.148-1.78Zm1.664-4.488h1.3l.167.632a1.561,1.561,0,0,1-.167.219.918.918,0,0,1-.142.116.624.624,0,0,1-.155.078,1,1,0,0,1-.361.064,2.127,2.127,0,0,0-.645.091l-.116.038-.026-.026-.064.078-1.251-.929.335-.142A2.906,2.906,0,0,1,1836.448,1544.534Zm1.225-2.889v-.516l.116-.451-1.934-.452-.361-.683.58-.194.813.1a15.8,15.8,0,0,0,2.373-.787,5.461,5.461,0,0,1,2.141-.413c.163,0,.343.005.541.013l.813.464.142.8a3.686,3.686,0,0,1-.413.329,2.342,2.342,0,0,1-.348.187,2.734,2.734,0,0,1-.774.219,12.315,12.315,0,0,0-1.367.245l.4.826-.078.412h.426a22.787,22.787,0,0,1,3.057-.412q1.547-.1,3.159-.284l1.277.1.413-.1a4.141,4.141,0,0,1,1.251.425,8.1,8.1,0,0,0,1.2.516l.271.787-.361.619-.9.49a1.524,1.524,0,0,1-.606.632q-.348.194-.787.426h-.812l-.555-.413v-.413l.194-.954-.116-.206h-.284v-.852l-.477-.051a12.48,12.48,0,0,1-3.3.542,8.046,8.046,0,0,0-3.121.7,11.487,11.487,0,0,0-.451,2.412,7.437,7.437,0,0,1-.607,2.5l-.219.464-.7-2.038.206-1.2-.181-1.5h-.077l-1.058.322-.812-.49-.451.09-.71-1.251.284-.064a3.111,3.111,0,0,0,.838-.284q.4-.206.851-.425l.942.141Zm-.735,14.9a1.164,1.164,0,0,1-.748.27.763.763,0,0,0-.542.22l-.245.258-.219-.826.052-.077a5.376,5.376,0,0,0,.567-1.187,2.791,2.791,0,0,0,.129-.864,3.427,3.427,0,0,0-.038-.49l-.026-.232h.464l1.148.554.116.968-.052.142.929.374.142.67-.3.594h-.593Zm2.851-7.829h.141l.387,1.006h.013l.452-.232.077-.581-.555-.477h-.335v-.516h.335l.374.1.568-.116.077.078a.257.257,0,0,0,.187.077.572.572,0,0,0,.187-.026.728.728,0,0,1,.194-.038.717.717,0,0,1,.1.006.522.522,0,0,1,.077.019.353.353,0,0,1,.078.039c.026.018.051.037.077.058a.225.225,0,0,1,.058.071c.013.026.026.054.039.084s.023.058.032.084a1.157,1.157,0,0,1,.013.18v.052l-.761,1.509-1.367.451-.632-.5-.284-1.328h.465Zm3.766-3.173.141.98-.657.619h-.413l-1.715-.967-.233-.632Zm-2.374-1.5v-.4l2.141-.116.516.271.155.619q-.194.181-.3.264a1.081,1.081,0,0,1-.226.136,1.29,1.29,0,0,1-.606.129h-.052l-1.625-.774Zm3.573,5.172a1.085,1.085,0,0,0,.09-.439v-.5l-1.393-.387v-.515l.245.051a2.058,2.058,0,0,0,.407.039,1.182,1.182,0,0,0,.4-.065l.342-.116q.283-.09.619-.167l1.5.348v.735l-.335.09-.606,1.561a1.755,1.755,0,0,1-.516.3,1.612,1.612,0,0,1-.542.091,4.488,4.488,0,0,0-.954.1l-.181.039-.116-.374-.593-.1-.838-2.166h.438l1.342.554.09.864Zm-2.283,6.9v-.593a3.037,3.037,0,0,0,.516-.813,1.685,1.685,0,0,0,.129-.4,5.758,5.758,0,0,0,.155-1.393v-.206h.748l.645.374v1.032l-.078.464,1.277.593.129.916-.516.464-1.367-.954h-.413Z" fill="#3f3b34"/>
    </g>
  </g>
</svg>
