<svg xmlns="http://www.w3.org/2000/svg" xmlns:xlink="http://www.w3.org/1999/xlink" width="620" height="189" viewBox="0 0 620 189">
  <defs>
    <filter id="Path_1" x="73.904" y="13.242" width="247.697" height="182.747" filterUnits="userSpaceOnUse">
      <feOffset dy="5" input="SourceAlpha"/>
      <feGaussianBlur stdDeviation="3" result="blur"/>
      <feFlood flood-color="#0e3639"/>
      <feComposite operator="in" in2="blur"/>
      <feComposite in="SourceGraphic"/>
    </filter>
    <filter id="Path_2" x="286.468" y="9.784" width="153.27" height="192.32" filterUnits="userSpaceOnUse">
      <feOffset dy="5" input="SourceAlpha"/>
      <feGaussianBlur stdDeviation="3" result="blur-2"/>
      <feFlood flood-color="#0e3639"/>
      <feComposite operator="in" in2="blur-2"/>
      <feComposite in="SourceGraphic"/>
    </filter>
    <filter id="Path_3" x="425.319" y="-4" width="203.101" height="200.013" filterUnits="userSpaceOnUse">
      <feOffset dy="5" input="SourceAlpha"/>
      <feGaussianBlur stdDeviation="3" result="blur-3"/>
      <feFlood flood-color="#0e3639"/>
      <feComposite operator="in" in2="blur-3"/>
      <feComposite in="SourceGraphic"/>
    </filter>
    <filter id="Path_4" x="-9" y="15.023" width="77.655" height="174.47" filterUnits="userSpaceOnUse">
      <feOffset dy="5" input="SourceAlpha"/>
      <feGaussianBlur stdDeviation="3" result="blur-4"/>
      <feFlood flood-color="#0e3639"/>
      <feComposite operator="in" in2="blur-4"/>
      <feComposite in="SourceGraphic"/>
    </filter>
    <clipPath id="clip-title-1">
      <rect width="620" height="189"/>
    </clipPath>
  </defs>
  <g id="title-1" clip-path="url(#clip-title-1)">
    <g id="Group_71" data-name="Group 71" transform="translate(-759.58 678.479)">
      <g id="Title" transform="translate(509.714 -1229.524)">
        <g transform="matrix(1, 0, 0, 1, 249.87, 551.04)" filter="url(#Path_1)">
          <path id="Path_1-2" data-name="Path 1" d="M393.6,556.991l-1.624-1.222-6.241-1.206-1.835-.209h-.8l-.805.209-1.029.4-.6.611-1.222-.209h-1.013l-.805.209-2.639,1.207-2.846,2.235-3.25,1.82-.805.208h-1.014l-1.014.82-1.221.6L359.6,564.3l-1.014.8-.8,1.015-.209-.194v-.209l.209-.4v-.4l-2.848,1.609-.805.82h-1.013l-.611.211-1.222.593-1.224.822-.8.193h-.8q-1.225.742-2.446,1.432l-15.574,7.1L328.2,579.1l-3.444.82-5.888,2.833-3.041.61-.8.211-.4.4-2.235,1.624-.82.193h-.805l-1.817,1.416-4.023,2.235-6.693,2.639-4.665,1.224-16.185,6.725-8.527,2.848-8.72,2.219v.822l.4.8.611.821.209.612v.6l1.014.819,2.235.8,3.443.611,2.029.82,1.624.4h.805c7.287-2.069,14.678,2.271,20.2-.094,9.373-4.027,11.663-3.623,24.115-9.81,6.666-3.313,12.269-6.118,15.858-8.195,16.916-7.068,19.967-9.487,32.564-15.623l.819-1.014,1.014-.8,3.653-2.027,1.013-.821.8-1.014,1.626-.4,2.848-1.624,1.206-1.013c4.639-5.082,2.6-3.675,7.515-6.082l1.415-1.415,1.576-.822.612.209h.4l3.056-.819.6-.4.612-.612.209-.8v-1.013Zm-12.339,104.5-18.648-2.622-6.451-4.474L336.676,642.23l-.4-1.225-.208-1.013.208-1.013.4-1.013.611-.821,2.638-2.431,1.418-6.483.417-6.9-.209-7.1.209-7.3h-.611l-2.639,2.639-4.424,6.081-9.734,16.636-3.459.209-1.609-.209-1.432-.4-5.873-2.639-3.861-.208-7.466-2.639-4.054-1.014-1.415-.8-3.251-1.014-22.265-1.415-2.027-.42-2.446.42-7.707.4-2.22.4-.981.611-1.013.4-1.014.805-1.415,1.833-.4,1.416,1.818.209,2.027-.209,2.189-.611,1.835-.8,1.206,2.027,1.433.209c11.263,0,29.584,8.465,35.862,16.217,7.93,5.779,6.628,3.513,10.537,8.527v1.207l-.805,1.624-3.459,3.46L295.8,669l-1.626,1.626-4.472,3.443-6.081,5.679L279,683l-2.639,1.206-1.013.209-.611.4-1.833,1.835-.6.4-.82.21h-.805l-1.624,1.415L265,690.5l-8.527,2.237-1.82.8H243.941l-3.444-.6-1.624.194h-1.415l-2.848-.8-2.831-1.224-3.057-.805,2.446,2.029.611-.211,1.416.613,2.428,2.429,1.835,1.013h.595c1.8-.57,19.666,7.471,35.058-.193L279,694.147l1.82-1.013,1.576-1.207.611-.611.612-1.015,1.834-.208,1.416-.4,4.858-4.054,1.224-.82,1.222-.613.194-.8.208-.4.4-.4,1.222-.612.4-.4v-.418l7.916-6.694,7.464-7.5.194-1.222.209-.193.209.193,1.014-.193.8-.418.611-.6.193-.821h.82l1.014-.21,3.443.421h.82a29.387,29.387,0,0,1,4.248,3.039c2.682-1.762,16.312,11.788,19.033,14L346.619,683l1.013-.611h.4l.611.611.4.8.209.82.4.805.61.611h.612l.611,1.416.8,1.013.82.4,1.013.209,2.027.8c4.568,4.657,13.614,7.921,20.528,9.949,3.374.99,7,1.672,9.654.6h.805l.771.4c.848-.279,12.61.351,18.384.749,3.328.229,40.944,1.069,41.772.876l.611.208.209.4.211.21.8-.418h.4l1.835,1.013,1.013-.194,1.014-.4,1.818-.418.82-.4.595-.4.611-.8.4-1.028-.193-2.623L456.6,689.69l-3.039-3.861A131.664,131.664,0,0,0,425,667.586h-1.433l-1.206.4h-.4l-.611-.21-.4-.4-.208-.4-8.479-1.222h-8.109l-1.625-.611-3.25-.6H393.2l-1.416-.209ZM298.016,539.134l-1.818.417-5.277,2.028-1.818.4h-1.834l-.611.612v3.039l1.415,1.626,3.057,2.429,1.818,1.013.611-2.026,1.222,2.637,2.22,1.014,9.54,3.041,2.994,2.027,1.432,1.835.4,1.206-.4,1.222-.209,1.224-.209.6v.611l-.4.4-.611.417.611,2.64.209.4,1.013,1.013.611.193.805.822,2.026.4h2.029l1.013.208.82.4.805.611,1.013-.209h.82l2.026.209h.805l.82-.209.8-.611.4-1.013v.611l1.013.208.822-.208.611-.4.193-.822h1.415l1.224-.4a8.678,8.678,0,0,0,1.013-.612l1.013-.8,1.383-1.833,1.208-1.207h.417l.193.194v.417l1.013-.209.822-.4,3.041-2.848a8.677,8.677,0,0,0,1.013-.61l1.014-.4.8-.193.418-.42.193-.4.209-.612.4-2.026.4-.612,1.224,1.224,3.039-5.872V550.7l-1.415-2.236-1.833-2.026-2.029-1.624-2.22-1.207-2.639-1.013-2.639-.612-2.847-.208-2.8.208-.4.612-.4.4-.4.211h-.21l-.8-.211-1.013-.4-.822-.612-1.014-.208h-.8l-.417.417-.6.4-15.219-1.625-2.027-.82-.772.208h-.805l-1.432-.4-.8-.4h-1.416l-.82.6-1.014-.6-1.818-.417Z" transform="translate(-145.82 -521.89)" fill="#d6b686"/>
        </g>
        <g transform="matrix(1, 0, 0, 1, 249.87, 551.04)" filter="url(#Path_2)">
          <path id="Path_2-2" data-name="Path 2" d="M466.145,613.88l1.667-.238.834-.238h1.788l.952.12.238.475.238.681v.358l-.119.834-.238.715-1.191,2.144-.24.834-.237.12-.238.476V621l-.238.239L466.5,627.55l-2.384,4.392-1.073,1.43-1.311.6-1.31.834-.716.239h-.936l-.358-.119-.358-.24-.238-.357-.6-.595-.475-.716-.716-1.548-.476-1.549-.238-1.667.475-2.844.119-9.175-.119-.6v-.475l.834-2.113.715-.952,5.346,1.43,2.5.356Zm-7.151-47.734.238.477.358.477.24.475v.24l-.12.238-.119.477-.238.237-.358.238-1.174.359-8.341,1.651-2.384.952h-.714l-.716.119-1.191.358-.24.716-.358-.359-.476-.118-1.057.238-.356.238-.475.119-2.385.356-2.263,1.073-1.073.358-.595.119-.6-.119-4.647,1.669-.715.358-.715.477h-.833l-3.082,1.073-.834.119-.714-.119-.836-.359-.475-1.31v-1.192l.118-.6.716-1.667,2.263-3.337.477-1.176,3.439-2.144,3.337-2.622,7.626-4.17,3.915-1.907,4.173-1.192m37.144,14.4h.834l.953.118.833.359.359.237.356.358v.478l-.237.476-.478.715-.477.119-.714.715-.24.358-.118.834v.358l-.358.356h-.238l-.119-.237-.238-.356-.238-.24-1.311.24-.358.118-.715-.238-.238-.358-.237-.238-.119-.238-.12-.6.12-.715-.12-.833.6-.6,1.667-.953Zm30.472-12.5-2.74-1.191h-1.311l-5.465-.477-2.622.118-1.191.359-.836.475-3.217,3.217-1.549,1.192-10.946.953-.595-.118-1.073-.477-.477-.477-.715-.955-.477-1.191-.237-1.43v-.356l.119-.478.238-.356.356-.24-.119-.919-1.073-2.382-2.144-2.741-5.7-2.978-.833-.6L472.1,547l-.477.118-1.906-1.191-.358-.119h-.477l-.357-.477-4.409-2.366h-.953l-.954-.119-1.786-.834h-1.193l-.459-.119-.119-.119-.119-.237-2.025-.477-4.529-2.027-8.461-2.621-6.536.238-2.145-.238-.238.238v.477l.358.714.358.477.238.715.358.6,2.144,2.384,1.192,1.073.477.6.6,1.295.12.595-.12.6-.237.714-.478.716-.715.715-.237.119-.119.118-.119.358-.119.24-.119.118H437.7l-.952.834-4.17,5.006-1.074.952-1.071.715-.715,1.038-.238.239-.357.119h-.6l-.358.359-2.008,1.308-.358.358-.119.359h-.716l-1.787.357-3.336,1.43-1.073.356-1.311.119h-1.311l-2.5,2.384-5.585,6.3-1.311,1.193-.119.357-.238.477-1.192,1.667-.118.358-1.073.477-.478.358-.237.475L402.084,579l-1.429,1.906-.477,1.073-1.43,5.942-.595.715-.6,1.906-.476,4.647v.836l-.716,4.051v.834l.953,3.439.238,1.43.477,1.43.12.953.237.834,1.43,3.1.238.833.119.834,2.861,3.422,1.328.954.715.119.6.238,2.144,1.43.6.237,1.31.238.358.119.817-.238.6-.477.478-.594.832-1.669.955-1.311.714-2.111.478-.952,1.907-2.741,1.429-1.669,6.554-5.839.238-.954.238-.341.6-.594.356-.119.816-.119,7.746-5.84.715-.356.715-.119h.358l.358.119.237.238.238.356.359,2.026-.12,2.026-.356.834-.12.834v1.651l.238,1.667v2.622l-.356,2.5-.358,1.549.238,1.668-.238.6v1.395l-.119,1.073-.119.477-.238.6.238.834-.238,4.647.238.834.119,1.549-.953,7.728v1.43l.356,1.549-.237,11.9.119.6v1.192l-.834,2.382v.6l-.714,1.549-.12.834v.358l.12.477.714,1.31.238.836.238,1.667v.817l-.238,1.669.358,11.645-.119,5.958.238,6.077-.119,2.724.477,5.483-.12,2.621,5.125,8.682,2.6,3.1,1.43,1.311,1.667,1.073,1.788.6h1.907l1.907-.239,1.43-.953,2.384-2.265.952-1.429,1.549-2.98.459-1.651.358-2.5v-.833l-.238-1.669-.817-3.1.936-5,.715-1.549-.238-.834-1.413-1.769V683l-.238-.714-1.192-2.266-.237-.833v-.834l.237-.954-.356-1.429-.477-7-.359-2.74.715-1.073.477-.358,1.074-.238,5.106,1.071H464l.6-.119.714-.237,1.312-.715,6.791-2.622,6.655-1.786,1.551-.7,1.906-.477h1.907l1.667.238,1.192.937.238.714v.836l-.475.477-.358.477-.478,1.071-.952,1.43-.477.356-1.192,1.312-1.31,2.025-1.192,1.073-.836.478-3.813,4.612-4.154,4.053-2.144.834-.6.118-.953.477-.478.478-1.786,6.536-.238,2.861.119,1.548,1.549,1.192,1.788.954,1.191.358,1.074.477,4.153,2.5,1.073.477,1.311.237.6.715.833.477,1.669.477c1.993.3,9.16-.834,9.516-1.073l1.788-2.263,1.192-.953.715-.359,1.549-.475.714-.358.6-.477.238-.238.12-.357.238-.358v-.477l-.238-.714-.478-.6-.952-.952-1.311-.715-5.823-2.026-4.767-1.311-.952-.714v-.341l-.119-.477.238-.595.833-1.074,1.907-1.192.6-.476.237-.953.477-.715.715-.715.714-.477,1.653-.834,1.429-1.073.955-1.311,3.336-3.065,3.574-2.978,1.192-1.191.475-.119.358-.359.6-.833.476-1.074.715-.714.24-.6.356-.477,1.77-1.667,2.026-1.549,1.073-1.414.477-1.31.119-.715-.953-1.788-1.429-1.548-2.487-1.668-.952-.359h-.477l-1.551-1.072-.358-.12h-.356l-.358.24-.953-.715L499,648.966l-.6-.238-.477-.358-.714-.238-.716-.119-.714.119-2.145.715-1.549.238-.358.358-1.413.714-3.932.478-1.788.833-10.708,2.146-8.223,2.145-1.548.595-.953.119-3.695.955-.936.118H457.7l-.833-.237-.478-.6-.714-2.265-.24-7.865-.118-.715-.24-.714.12-.358v-1.77l.119-.359.238-.357.6-.239.237-.595.359-.477.833-.834,2.128-1.192,3.576-1.192,1.071-.6,5.72,2.5,2.266.477.833.239h2.247l.478.237,4.647-1.31,5.839-2.861,1.429-.952.359-.6.475-.478,1.193-.953.475-.477.238-.595v-.238l-.119-.359-.119-.237-.358-.358-2.5-.715-2.383-1.073-2.5-.715H481.26l-2.144.359-1.788.714-.6.119h-.595l-.6-.238-.6-.476-.221-.358-.238-.478v-.714l.119-.341.238-.238.578-.714,1.549-1.072,1.073-1.311,10.248-9.057,3.082-3.3.953-2.025.118-.6v-.6l-.237-.6-.715-1.073-.478-.477-3.439-2.383L482.69,602.2l-1.549.238-2.263-.358h-.834l-.715.119-.715.238-.476-.358-.357-.119-1.77.477h-.359l-.358-.238-.714.238-3.576.714-.6.24-.953-.12h-2.026l-.952.12-3.814.953-1.192-.238-1.174.238-1.073.358h-.6l-.475-.119-.6-.238-.358-.358-.358-.478-.715-1.31-.238-.936-3.695-4.172-.833-.714-1.788-1.193-.24-.476-1.071-1.073-2.622-1.311-.715-.477-.34-.358-.24-.358-.238-1.073v-.356l.238-.715L444,587.442l1.788-.833,4.051-2.843.955-.477.952-.834,2.145-1.311,4.766-2.025,1.055-.6,5.6-1.311,5.244-1.667,2.979.953.358.6,1.771,1.072.952.955.238.595v.716l-1.31,1.429-1.295.834-.477.119.834.238h.817l1.788-.358,1.788-.238h.834l.952.119,4.529-.119,8.563-.715,4.528-.6.716-.358.714-.239.716-.118,4.17.239,2.365.833,2.265,1.429,4.052,3.558,3.455,2.5,1.549.715.834.118h1.549l2.995-.833,1.312-.715,2.263-2.026,2.008-2.724.6-.359.715-1.071.477-1.907.477-1.191-.119-1.43-.715-2.5-1.192-2.144-2.367-2.86-.714-.46-.477-.6-.477-.475h-.715l-3.831-3.695-4.409-5.006Z" transform="translate(-100.9 -522.62)" fill="#d6b686"/>
        </g>
        <g transform="matrix(1, 0, 0, 1, 249.87, 551.04)" filter="url(#Path_3)">
          <path id="Path_3-2" data-name="Path 3" d="M559.11,634.927a46.548,46.548,0,0,1-3.166,5.982q-2.49,5.1-4.525,8.871-2.94,5.312-3.167,5.53a6.3,6.3,0,0,1-3.167.1,53.614,53.614,0,0,0-5.881-.46q-3.167-.126-3.167-.8s.226-.52.678-1.557a3.17,3.17,0,0,0,.905-1.774l1.13-1.087a7.138,7.138,0,0,0,1.583-2.877,3.564,3.564,0,0,1,1.132-1.539.574.574,0,0,0,.678-.652q0-.679,1.131-1.765a15.443,15.443,0,0,0,2.036-3.086q1.13-1.993,1.584-2.653a13.919,13.919,0,0,1,1.584-.842,13.212,13.212,0,0,1,2.488-1.483,33.723,33.723,0,0,1,3.393-.772q1.358-.171,3.847-.3l1.357.053Zm46.851-109.383a1.278,1.278,0,0,0-.9.189q-.227.672-.905-.034a2.292,2.292,0,0,0-.9.077c-.151.07-.227.33-.227.782l.453.469-1.131-.5a8.274,8.274,0,0,0-2.262-1s.076.3.226.914a14.077,14.077,0,0,1,.227,1.82q0,.452-1.132-.046c-.3-.615-.453-.771-.453-.469a1.538,1.538,0,0,1-.113.673c-.075.148-.263.217-.564.2s-.753.422-1.358,1.3q-.453,1.339.905,5.014a24.585,24.585,0,0,1,1.017,4.225,55.351,55.351,0,0,1-.113,5.764,22.17,22.17,0,0,1-.226,3.158,18.912,18.912,0,0,0-.226,2.593v1.017q-.226-.008-4.073,1.423a36.635,36.635,0,0,1-6.56,1.324,14.41,14.41,0,0,1-2.488.807,4.956,4.956,0,0,0-2.038.824q-2.261.59-4.071.97-2.035.373-8.371,2.382-5.654,1.36-6.786,1.542-.227.441-.678-.028t-2.038-2.117a38.187,38.187,0,0,0-3.844-4.224,6.4,6.4,0,0,0-3.167-2.162,2.77,2.77,0,0,0-2.489-.552c-.3.29-.678.2-1.131-.27q-.226-.236-.339-.24c-.076,0-.038.074.113.231q.679.93.678.931,0,.227-.678.2a3.124,3.124,0,0,0-1.132.634q-.227.894-.678.877c-.3-.162-.527-.022-.678.426a1.679,1.679,0,0,1-.226.669,19.482,19.482,0,0,0,.226,4.986,40,40,0,0,1,.678,4.326q0,1.356-2.94,2.146a15.394,15.394,0,0,1-2.715.571q-1.132.407-3.62,1.215a17,17,0,0,1-3.846.752,3.08,3.08,0,0,0-1.357.172,9.126,9.126,0,0,1-2.942.562,27.214,27.214,0,0,1-6.56-.033q-5.2-.434-4.977-.2a6.446,6.446,0,0,1-.9.643l-1.358-.054a.951.951,0,0,0,.226.687q.453.246,0,.9-.453.438-.453.21-.905-.036-1.357,1.077c-.754.876-1.207,1.385-1.358,1.53q-.453.436,1.584,2.1.905.94.905,1.392a13.937,13.937,0,0,0,.678,2.062,5.116,5.116,0,0,1,2.262,3.259,5.316,5.316,0,0,0,.566,2.058,8.876,8.876,0,0,0,.792.936,2.639,2.639,0,0,1,2.262,1.447,7.427,7.427,0,0,0,2.715.56,20.41,20.41,0,0,0,2.942.569,11.831,11.831,0,0,1,2.488,1.568,6.671,6.671,0,0,0,3.054,1.365,4.6,4.6,0,0,1,2.6,1.235,3.682,3.682,0,0,0,1.243.5,1.2,1.2,0,0,0,.792-.421,4.079,4.079,0,0,1,2.489-1.032q2.261-.59,2.488-1.033a3.741,3.741,0,0,1,.905-.192,12.064,12.064,0,0,0,2.715-.8,7.908,7.908,0,0,0,3.394-2.128,10.08,10.08,0,0,1,2.035-.371q.453.019,2.036,1.892.679.479,2.489,3.943a6.51,6.51,0,0,0,3.392,2.4,13.6,13.6,0,0,0,3.847,2.19,11.621,11.621,0,0,0,3.393,1.266l2.489.777,1.582-.843q2.263-1.039,2.263-1.718.226-1.124-.226-1.367c-.151-.157-.227-.274-.227-.349s.151-.259.453-.546l.678-.653-.678-5.683a30.09,30.09,0,0,0-2.263-9.591,20.969,20.969,0,0,1-.678-3.42,1.276,1.276,0,0,1,.227-.9,11.3,11.3,0,0,0,2.262-1.719q1.358-1.3,1.811-1.286a4.367,4.367,0,0,0,2.035-.372,2.687,2.687,0,0,1,1.584-.616,1.875,1.875,0,0,0,.791-.308,4.523,4.523,0,0,0,1.245-1.194,10.838,10.838,0,0,1,2.94-1.467q2.263-.59,2.263-1.268c0-.3.075-.449.226-.444a12.129,12.129,0,0,0,2.489-.579q2.486-.58,3.393-.771a10.383,10.383,0,0,1,2.035-.145q.679.027.453.469,0,.228-.226,2.255a45.068,45.068,0,0,0-1.131,5.611q-.454,4.958-1.358,10.579a81.887,81.887,0,0,1-.678,8.57q-.226,2.933-.453,5.863-.453,2.246-.9,4.943-.453,2.921-.679,4.271a4.868,4.868,0,0,0-.678,1.783v.905h0l.678-1.1c.3-.9.679-1.181,1.13-.862.3.313.151.837-.451,1.566v.566q0,.114.451.358a1.361,1.361,0,0,1,.453.923c0,.151.152.232.453.245s.905-.644,1.809-1.964t1.131-2.1q1.132-2.106,1.584-2.993a34.191,34.191,0,0,1,2.715-4.191,8.73,8.73,0,0,1,2.262-1.945,8.923,8.923,0,0,1,1.358-1.756,9.4,9.4,0,0,0,2.263-2.85,18.678,18.678,0,0,1,2.488-2.844q1.811-1.738,3.167-3.266a12.384,12.384,0,0,0,2.489-3.748q.677-2.688,1.582-3.331a11.135,11.135,0,0,1,1.584-2.426q.679-.426,2.942-4.861a29.985,29.985,0,0,0,1.585-4.008,12.551,12.551,0,0,0,1.357-1.757,2.476,2.476,0,0,0,.226-1.122,5.254,5.254,0,0,1,.678-1.783,4.187,4.187,0,0,1,.227-1.348l.678-.877a2.534,2.534,0,0,1,1.584-1.295,14.758,14.758,0,0,1,3.846,1.058q2.714,1.012,4.3,1.754a10.474,10.474,0,0,0,2.035.534,9.075,9.075,0,0,1,2.489.776,4.04,4.04,0,0,0,3.394.813,9.32,9.32,0,0,1,2.715-.8,3.225,3.225,0,0,0,2.035-1.955v-2.489a7.45,7.45,0,0,1-.453-2.732,4.038,4.038,0,0,0-.34-1.936,12.147,12.147,0,0,0-2.828-2.261q-2.94-2.155-5.2-4.054a18.968,18.968,0,0,1-2.94-1.926,1.024,1.024,0,0,0-.453-.809,4.127,4.127,0,0,0-1.132-.611q-1.356-.506-1.357-.959,0-.226-.226.218a4.678,4.678,0,0,1-1.019.638c-.075,0-.113-.231-.113-.682-.151-.309-.453-.32-.9-.036q-.905.19-1.131-.046a6.581,6.581,0,0,0-1.132.18,3.319,3.319,0,0,1-1.809.609,4.858,4.858,0,0,1-1.7.044,1.5,1.5,0,0,1-.566-.361,6.08,6.08,0,0,0-.9-3.429,26.431,26.431,0,0,1-2.717-4.632,28.823,28.823,0,0,0-5.2-6.316q-3.169-3.066-5.655-5.2A12.522,12.522,0,0,0,605.961,525.544Zm22.8,79.782a3.492,3.492,0,0,0-2.262.815,4.531,4.531,0,0,1-2.036-.08,3.777,3.777,0,0,0-1.584-.516,5.051,5.051,0,0,0-1.584.391,6.151,6.151,0,0,1-1.357.4c-.151-.006-.378.212-.68.652a12.667,12.667,0,0,0-.226,2.48v1.357L613.6,613.1a17.1,17.1,0,0,0-2.829,1.359,10.476,10.476,0,0,1-1.471.847,1.429,1.429,0,0,1-1.017.185l-.34-.127a7.183,7.183,0,0,0-.905-2.75,7.839,7.839,0,0,0-2.939-2.833q-2.265-1.219-2.716-1.012a1.953,1.953,0,0,1-.9.19,5.729,5.729,0,0,1-2.036-.307c-.151-.157-.226-.16-.226-.009s-.453.208-1.359.172q-.9.19-.9.417a2.437,2.437,0,0,0,.453.923,7.827,7.827,0,0,0,.339,1.145c.076.152-.037.452-.339.89a1.187,1.187,0,0,0-.453.775,2.272,2.272,0,0,0,.453,1.036,18.772,18.772,0,0,1,.451,4.769,22.9,22.9,0,0,1-.113,2.937,3.686,3.686,0,0,1-.791,1.552,26.221,26.221,0,0,1-3.62,2.119,10.461,10.461,0,0,1-2.715,1.249,9.368,9.368,0,0,1-2.262.137,3.685,3.685,0,0,0-1.809.155,3.607,3.607,0,0,1-2.036.371q-.9-.034-.9.191l0,.043q-.93-.234-2.23-.574a11.746,11.746,0,0,0-2.716-1.239,3.071,3.071,0,0,1-1.808-1.43c-.3-.464-.6-.7-.905-.715a2.527,2.527,0,0,1-1.244-.614q-.793-.6-1.02-.38a2.387,2.387,0,0,1-2.035.371q-1.134-.044-1.132-.5l-1.13-.273a12.833,12.833,0,0,0-2.489-.323,2.435,2.435,0,0,0-.792.082c-.226.065-.339.174-.339.325q0,.905-.68,1.1-.677.651-.9.417a4.122,4.122,0,0,0-1.584-.743,2.68,2.68,0,0,0-2.263.817,5.731,5.731,0,0,0-1.13,1.54q-.679.2-3.167,1l-2.715.572,2.035-3.54q1.584-4.007,2.715-5.095a3.773,3.773,0,0,0,1.132-1.992,7.045,7.045,0,0,1,.451-2.019,1.614,1.614,0,0,0,.453-1.225,7.042,7.042,0,0,0-.678-2.4,5.415,5.415,0,0,0-1.018-2.415,25.572,25.572,0,0,0-2.828-2.94q-2.714-3.5-4.071-4.008a3.722,3.722,0,0,0-2.263-.54,1.91,1.91,0,0,1-2.036-.307l-.227-.237s-.037,0-.113,0-.111.071-.111.222v.678a.418.418,0,0,1-.453-.47h0q0-.227-.453-.244t0,.68c0,.3-.075.486-.226.555a2.3,2.3,0,0,1-.905.076c-.3-.01-.68.426-1.131,1.314a3.146,3.146,0,0,0-1.584,1.973q0,1.132-3.619,8.227-3.623,6.419-4.3,7.521l-.227.671a10.043,10.043,0,0,1-.791,1.665,7.659,7.659,0,0,0-.791,1.892q-2.714,5.548-4.3,8.653-2.942,5.991-3.167,6.435a44.617,44.617,0,0,0-2.94,5.991q-1.811,3.549-2.715,5.548a3.884,3.884,0,0,0-.113,1.58,6.472,6.472,0,0,0,1.017,2.076,19.433,19.433,0,0,1,1.585,3.457,14.828,14.828,0,0,1,1.13,2.533q.679,1.611.905,2.072c.15.308.6.325,1.357.055a1.5,1.5,0,0,1,1.584.74q1.358.959,2.036.534.453-.209.453-1.115t.68-.877a4.672,4.672,0,0,1,1.808-.833q.679-.652.905-.643a4.82,4.82,0,0,1,1.357.958q1.134,1.176,1.811,1.2a22.19,22.19,0,0,1,2.942,1.7q3.167,2.389,2.714,2.371a15.617,15.617,0,0,1-1.13,2.443q-1.358,1.755-4.074,5.268-2.259,2.851-6.106,7.676a65.781,65.781,0,0,0-4.751,5.466,39.345,39.345,0,0,1-4.3,3.9,59.26,59.26,0,0,0-6.786,6.064q-3.621,3.25-3.621,3.7t-1.13.86a11.231,11.231,0,0,0-2.263,1.719,3.116,3.116,0,0,0-.226,1.915c.151.383.3.463.453.243a.983.983,0,0,1,.9-.3q.905.036.905.375c0,.227-.188.406-.565.543s-.34.214.113.231a4.22,4.22,0,0,0,1.357-.172,7.544,7.544,0,0,1,2.716-1.7q1.358-1.531,2.035-1.5.905.263,3.167-1.459a15.011,15.011,0,0,1,3.847-2.335,1.69,1.69,0,0,0,1.583-.616q.453-.66.453-.321a3.554,3.554,0,0,1-.226,1.009c-.152-.008.226-.218,1.131-.635a3.662,3.662,0,0,0,1.131-1.085,31.426,31.426,0,0,0,2.94-1.694,3.493,3.493,0,0,1,1.358-1.076l1.357-.851c0-.152.151-.221.453-.209.152.006.227.047.227.123v.113l-.227.217.453-.208q.226-.443,1.131-.181.453.244,2.036-.6a14.328,14.328,0,0,0,2.489-.805,13.074,13.074,0,0,1,2.715-1.475q2.262-1.042,2.262-1.721,0-.226,1.357-.625a4.327,4.327,0,0,0,2.488-1.259q1.133-1.086,1.358-1.3a1.272,1.272,0,0,1,.905-.19,1.278,1.278,0,0,0,1.132-.634,15.3,15.3,0,0,1,1.582-1.069,4.208,4.208,0,0,1,2.036-.824q.453.017,4.3-3.787a38.81,38.81,0,0,1,5.089-4.55,3.906,3.906,0,0,1,1.924-.715,9.745,9.745,0,0,0,2.488-.808,5.283,5.283,0,0,0,1.245-.968,9.425,9.425,0,0,0,1.244-1.423q.451-1.111.678-1.669t-.453-.81a5.851,5.851,0,0,0-1.13-2.081,14.812,14.812,0,0,0-.453-2.054,2.887,2.887,0,0,1,.678-2.235,23.68,23.68,0,0,0,1.582-2.653,2.9,2.9,0,0,1,1.358-1.982,14.208,14.208,0,0,0,2.489-2.616q1.358-2.208,1.584-2.2a1.807,1.807,0,0,1,.678.254q0,.226.453-.435l.227.009a24.027,24.027,0,0,1,2.488-4.879,20.543,20.543,0,0,0,2.489-5.556,13.1,13.1,0,0,1,2.262-3.981,15.645,15.645,0,0,0,2.352-3.638,6.879,6.879,0,0,0,2.143.411,5.416,5.416,0,0,0,2.036-.37,4.661,4.661,0,0,0,.791-.082,5.492,5.492,0,0,1,.678-.086l.113,0,.227.009a1.825,1.825,0,0,0,.565-.091,2.09,2.09,0,0,0,.791-.534l1.584-.389-.226,1.8-.454,4.279a38.194,38.194,0,0,1-.9,4.489q-.679,2.689-.9,4.037a10.242,10.242,0,0,1-.905,3.583v19.8a6.051,6.051,0,0,0,.68,3.081,42.328,42.328,0,0,0,2.034,4.605,10.174,10.174,0,0,0,1.811,2.56,21.04,21.04,0,0,1,1.811,2.107,39.806,39.806,0,0,0,3.619,3.765,27.261,27.261,0,0,1,2.376,2.356,16.012,16.012,0,0,0,3.279,1.487q2.492,1.908,3.848,3.094,1.582,1.193,2.035.758.227-.217,3.167,1.483a17.164,17.164,0,0,0,4.3,1.981q1.586.289,5.883.911a48.4,48.4,0,0,0,5.429.667,7.176,7.176,0,0,1,1.357.507q.905.263,14.026.782,12.9.51,14.252.113,1.582-.166,3.62-.536a6.04,6.04,0,0,0,3.169-.552,40.286,40.286,0,0,1,4.523-.952q3.169-.78,3.848-.979.224-.445,2.488-.694a6.114,6.114,0,0,0,2.375-.473q.114-.22.9-.189c.529.022,1.093-.373,1.7-1.177a3.632,3.632,0,0,1,1.582-1.407,1.293,1.293,0,0,0,.905-.87c.151-.6.3-.817.453-.661a.436.436,0,0,0,.679-.2,6.081,6.081,0,0,0,.226-1.349,3.8,3.8,0,0,1,1.132-1.765,2.908,2.908,0,0,0,.453-1.679,2.214,2.214,0,0,1,.678-1.67,4.6,4.6,0,0,0,.227-.784c0-.075-.076-.19-.227-.347q-.679-.479-.678-.027a.382.382,0,0,1-.453.434q-.226-.008,0-1.355v-1.585q.226.008.226-1.573v-1.358a.419.419,0,0,0-.453-.472l-1.131-.043q-.227-.01-.227-.914v-.453h0q-.677.426-.677-.027a1.459,1.459,0,0,1,0-1.131,1.047,1.047,0,0,0-.227-1.141q-.226-.236,0-1.131c.151-.6.076-.978-.226-1.14q-.905-.489-.453-1.149a2.728,2.728,0,0,0-.905-1.846,4.927,4.927,0,0,1-.452-2.505V665.7q0-1.132,2.262-4.21a41.048,41.048,0,0,0,2.488-3.745q.905-1.774,1.132-2.218V655.3l-.227-.009c0,.151-.038.226-.113.223l-.113-.005h0a1.676,1.676,0,0,1,.226-.671c.151-.748.227-1.121.227-1.121q-.228-.01-1.585,1.295a30.939,30.939,0,0,0-3.846,2.787q-1.583,1.522-3.393,3.033-2.263,1.5-6.109,4.509a57.615,57.615,0,0,1-7.012,4.7,46.382,46.382,0,0,1-8.6,3.506,62.5,62.5,0,0,1-7.466,2.192,37.762,37.762,0,0,0-7.013,1.306,39.784,39.784,0,0,1-12.442,1.091q-7.241-.287-14.706-.356-7.689-.08-9.726-.612-2.039-.759-4.525-1.763a12,12,0,0,1-3.62-3.538,7.982,7.982,0,0,1-2.035-2.342q0-1.132-.453-5-.226-4.534-.226-8.153a30.283,30.283,0,0,1,.9-7.43,34.315,34.315,0,0,0,1.809-7.168q.453-3.147.905-5.845a20.52,20.52,0,0,1,1.131-3.35,4.445,4.445,0,0,0,.905-1.772,11.283,11.283,0,0,1,.453-3.15,11.874,11.874,0,0,1,2.488-2.616q2.037-1.278,6.109-3.377,4.525-2.084,4.75-2.3,1.358-.4,3.167-.78,2.037-.146,2.036.08s-.075,1.355-.226,4.064a61.491,61.491,0,0,1-2.262,12.58q-1.358,8.542-1.358,9.448a1.329,1.329,0,0,1-.34,1,2.639,2.639,0,0,1-1.244.517,10.6,10.6,0,0,1-2.036.146c-.453-.019-.829.307-1.131.972a1.453,1.453,0,0,1-1.471.96c-.678-.028-1.017.036-1.017.186-.151.445-.151.748,0,.9a3.482,3.482,0,0,0,1.809.072l.453.018q.226.009,0,.226t.678.932l.678.706-.678.425a3.125,3.125,0,0,1-1.809.38,2.311,2.311,0,0,0-.905.079c-.151.068-.075.26.226.574a3.451,3.451,0,0,0,2.036.759,2.824,2.824,0,0,1,1.809.636,4.741,4.741,0,0,1,1.131,1.517,4.553,4.553,0,0,1,1.131,1.854c0,.3.3.69.905,1.167a8.442,8.442,0,0,1,1.584,1.873,1.821,1.821,0,0,0,.226.689c.151.307.6.552,1.358.732l1.356.054a1.017,1.017,0,0,0,1.585.289,1.7,1.7,0,0,1,1.584.966q.226.688,1.582.29a10.873,10.873,0,0,1,1.358-.172,1.818,1.818,0,0,1,.678-1.783,13.045,13.045,0,0,0,1.245-.629q.338-.213,1.471.283l1.357.281,1.131-2.219q1.358-1.98.905-2.9,0-.226,1.583-6.047,1.584-5.592,2.714-8.489a28.674,28.674,0,0,1,1.358-4.471,4.7,4.7,0,0,0,1.132-2.443q0-.453.678-4.723a13.869,13.869,0,0,1,.791-2.91c.226-.444.792-.723,1.7-.838a6.571,6.571,0,0,0,1.018-.751,2.949,2.949,0,0,0,.566-1.448,5.323,5.323,0,0,0-.453-2.96,16.63,16.63,0,0,1-1.131-3.212,1.115,1.115,0,0,1-.791-.71c-.076-.306-.151-.647-.227-1.027s-.112-.571-.112-.571a2.041,2.041,0,0,1,0-1.357s-.039-.039-.114-.118-.113-.042-.113.109a17.786,17.786,0,0,1-4.073-1.745q-3.846-2.189-4.071-2.424a12.508,12.508,0,0,1-2.036-1.438,2.391,2.391,0,0,1-1.809-1.2,3.732,3.732,0,0,0-1.018-.266,9.319,9.319,0,0,1-2.149-.99Q629.438,605.353,628.759,605.326Z" transform="translate(-71.55 -525.54)" fill="#d6b686"/>
        </g>
        <g transform="matrix(1, 0, 0, 1, 249.87, 551.04)" filter="url(#Path_4)">
          <path id="Path_4-2" data-name="Path 4" d="M164.634,657.322v-8.036H186.68V637.609h12.971v11.677H221.7v8.036H199.651q3.37,23.871,23.342,32.682v7.005q-22.563-7-29.573-21.791-8.3,15.571-30.082,21.791V690q20.488-9.065,23.088-32.682Zm22.278-57.128V568.3H163.56v-7.792h23.352V540.539h12.451v19.967h23.342V568.3H199.363v31.9Z" transform="translate(-163.34 -521.52)" fill="#d6b686"/>
        </g>
      </g>
    </g>
  </g>
</svg>
