<svg xmlns="http://www.w3.org/2000/svg" width="20.438" height="22.13" viewBox="0 0 20.438 22.13">
  <g id="scroll_motion" data-name="scroll motion" transform="translate(-177.281 -492.876)">
    <path id="Scroll-mobile" d="M963.325-86.741l9.266-10.112a.953.953,0,0,0-.059-1.346.952.952,0,0,0-1.345.059l-8.564,9.346-8.564-9.346a.952.952,0,0,0-1.345-.059.953.953,0,0,0-.059,1.346l9.266,10.112a.953.953,0,0,0,.7.309A.953.953,0,0,0,963.325-86.741Zm0-10.112,9.266-10.113a.952.952,0,0,0-.059-1.345.952.952,0,0,0-1.345.059l-8.564,9.346-8.564-9.346a.952.952,0,0,0-1.345-.059.952.952,0,0,0-.059,1.345l9.266,10.113a.953.953,0,0,0,.7.309A.953.953,0,0,0,963.325-96.854Z" transform="translate(-775.123 601.438)" fill="rgba(255,255,255,0.6)"/>
  </g>
</svg>
