<svg xmlns="http://www.w3.org/2000/svg" width="20" height="20" viewBox="0 0 20 20">
  <path id="mail" d="M256.93,361.32h-17a2.9,2.9,0,0,0-1.5,1.5v12.333c.547,1.3,1.592,1.578,2.889,1.516,1.443-.07,1.444-.017,1.444,1.436,0,.524.039,1.051-.008,1.572a1.575,1.575,0,0,0,.842,1.642h.833c1.553-1.413,3.113-2.818,4.653-4.246a1.47,1.47,0,0,1,1.1-.43c1.888.023,3.779-.037,5.665.027a2.429,2.429,0,0,0,2.581-1.516V362.821A2.912,2.912,0,0,0,256.93,361.32Zm-16.949.818c.089-.2.343-.147.531-.147q7.956,0,15.911,0a.6.6,0,0,1,.557.243c-.31.291-.606.572-.905.852-2.313,2.161-4.634,4.313-6.934,6.489a.871.871,0,0,1-1.414.005c-2.46-2.328-4.947-4.629-7.414-6.949C240.172,362.5,239.859,362.411,239.981,362.138Zm-.793.377c.795.738,1.438,1.331,2.075,1.926q2.224,2.074,4.443,4.149c.214.2.505.34.115.7-2.162,1.988-4.3,4-6.634,6.176Zm16.8,13.466c-2,.012-3.995.018-5.993,0a1.576,1.576,0,0,0-1.185.445c-1.362,1.267-2.748,2.505-4.131,3.747-.256.229-.472.613-.907.427s-.34-.587-.341-.942c0-1-.02-2,.008-3,.013-.505-.166-.695-.675-.678-.932.028-1.864.008-2.8.008-.023-.087-.049-.174-.072-.261,2.142-2.005,4.29-4,6.418-6.02.306-.291.449-.119.671.077,1.357,1.2,1.5,1.2,2.909-.012.184-.159.315-.382.606-.107,2.152,2.032,4.318,4.049,6.485,6.077C256.658,376.09,256.3,375.979,255.988,375.981Zm1.687-.763c-.33.074-.413-.146-.541-.263-1.973-1.833-3.928-3.682-5.915-5.5-.405-.37-.417-.557,0-.936,2.105-1.925,4.181-3.886,6.457-6.01Z" transform="translate(-238.43 -361.32)" fill="#d6b686"/>
</svg>
