<svg id="立即預約hover" xmlns="http://www.w3.org/2000/svg" width="126" height="41" viewBox="0 0 126 41">
  <g id="立即預約" transform="translate(-864.165 -744.568)">
    <path id="Path_117" data-name="Path 117" d="M20.5,0h85a20.5,20.5,0,0,1,0,41h-85A20.5,20.5,0,0,1,7.989,4.259,20.194,20.194,0,0,1,20.5,0Z" transform="translate(864.165 744.568)" fill="#d6b686"/>
    <path id="Path_109" data-name="Path 109" d="M-62.918-30.785a10.857,10.857,0,0,1,1.99,4.548c3.221,2.345,6.206-3.837-1.824-4.666Zm12.933,5.993c.355,0,.616-.118.687-.379-1.279-1.09-3.435-2.7-3.435-2.7l-1.895,2.416H-70.284l.189.663Zm-17.2,1.469a37.594,37.594,0,0,1,2.463,10.707c3.671,3.506,6.3-4.69-2.179-10.8Zm13.194,12.6h-4.477a73.335,73.335,0,0,0,5.922-11.2c.616,0,.876-.261.971-.568L-56.427-23.7a129.307,129.307,0,0,1-2.8,12.98H-71.208l.189.663H-49.2c.355,0,.64-.118.711-.379-1.326-1.113-3.553-2.771-3.553-2.771Zm11.275-9.57v-3.671h3.245v3.671Zm0-4.335v-3.529h3.245v3.529Zm3.008-4.193h-2.677l-3.482-1.3v15.965c0,.64-.118.9-.829,1.4l2.084,3.624a2.4,2.4,0,0,0,.924-1.09c1.824-1.587,3.34-3.056,4.477-4.24a12.61,12.61,0,0,1,.355,3.364c2.842,2.8,5.874-3.506-1.445-7.035l-.237.118a15.6,15.6,0,0,1,1.042,2.558c-1.137.5-2.227.971-3.221,1.374v-5.543h3.245v1.374h.545a5.62,5.62,0,0,0,2.677-.758v-8.622a1.683,1.683,0,0,0,.947-.5l-2.961-2.274Zm11.63-1.54-1.4,1.587h-2.274l-3.292-1.374V-8.424h.545c1.445,0,2.653-.805,2.653-1.208V-28.108h2.606v11.583c0,.284-.071.426-.4.426-.379,0-1.871-.095-1.871-.095v.308a1.928,1.928,0,0,1,1.492,1.066,6.323,6.323,0,0,1,.355,2.392c3.2-.284,3.624-1.516,3.624-3.7V-27.634a1.444,1.444,0,0,0,.876-.474Zm22.029,5.685v2.866H-9.93v-2.866Zm-3.885,10v-2.89h3.885v2.89Zm0-6.467h3.885v2.913H-9.93Zm4.074-7.58h-8.172l-1.919-1.824-1.682,1.658h-5.827l.213.663H-17.6a23.945,23.945,0,0,1-1.137,2.156,8.808,8.808,0,0,0-3.577-.734l-.166.142a8.489,8.489,0,0,1,2.8,4.264c2.108,1.255,3.766-1.279,1.942-3.008a20.544,20.544,0,0,0,3.7-2.132c.5-.047.758-.095.947-.308l-.213-.213h3.908c0,.9,0,1.99-.024,2.724h-.379l-3.387-1.35v5.022l-1.895-1.8-1.587,1.587h-7.082l.213.663h2.866v8.954c0,.237-.095.4-.426.4-.474,0-2.487-.118-2.487-.118v.284a2.39,2.39,0,0,1,1.848,1.042A4.271,4.271,0,0,1-21.3-8.4c3.316-.237,3.79-1.705,3.79-3.79v-9.025h1.066c-.095,1.326-.261,3.2-.45,4.406l.189.142a27.452,27.452,0,0,0,3.411-3.885h.095v7.888h.5a4.388,4.388,0,0,0,1.492-.261,18.257,18.257,0,0,1-5.116,4.193l.142.284a22.109,22.109,0,0,0,8.172-2.771c.4.095.64.047.758-.142L-10.38-13.3c.284-.166.45-.332.45-.45v-.261h3.885v.805a14.154,14.154,0,0,0-1.824-.118l-.166.166a15.623,15.623,0,0,1,3.719,4.5c2.842,1.255,4.311-3.316-1.113-4.429a5.187,5.187,0,0,0,2.7-.829V-24.247a1.328,1.328,0,0,0,.805-.426L-4.813-26.9l-1.445,1.563H-8.674a22.122,22.122,0,0,0,2.913-2.724h4.074c.332,0,.616-.118.663-.379-1.161-1.019-3.1-2.535-3.1-2.535ZM2.316-15.175a3.925,3.925,0,0,1-1.232,2.842,1.832,1.832,0,0,0-.853,2.321,1.679,1.679,0,0,0,2.653.45c.805-1.019.853-2.985-.261-5.614Zm2.369-.308a11.948,11.948,0,0,1-.095,4.572c1.966,2.558,5.472-1.54.355-4.643Zm2.8-.332a8.112,8.112,0,0,1,1.09,4.027c2.274,2.132,5.14-2.463-.876-4.145Zm12.436-12.27-1.729,1.753H14.562c.45-.995.853-2.061,1.232-3.174.545-.024.829-.237.924-.545l-4.477-1.09a48.057,48.057,0,0,1-1.255,6.917L7.456-26.639a15.6,15.6,0,0,1-1.4,2.535c-1.35.024-2.629.047-3.7.047a25.206,25.206,0,0,0,5.045-4.453.79.79,0,0,0,.829-.308L4.377-30.9c-.474,1.942-2.25,5.472-3.506,6.49a3.143,3.143,0,0,1-.829.332L1.464-20.67a1.529,1.529,0,0,0,.687-.663c1.019-.4,1.966-.805,2.8-1.184A16.744,16.744,0,0,1,1.085-18.61a4.612,4.612,0,0,1-1.019.332L1.393-14.8a1.417,1.417,0,0,0,.663-.545c2.321-.9,4.358-1.824,5.8-2.511A7.745,7.745,0,0,1,7.977-16.6c2.25,2.108,5.093-2.345-.853-4.311l-.237.118a13.88,13.88,0,0,1,.782,2.132c-1.729.118-3.411.213-4.737.284a32.284,32.284,0,0,0,7.177-5.59.942.942,0,0,0,.853-.142,33.871,33.871,0,0,1-1.279,4.027l.284.166a18.9,18.9,0,0,0,4.264-5.756h4.216c-.308,8.2-.805,12.578-1.824,13.431a1.234,1.234,0,0,1-.924.332c-.616,0-2.061-.095-3.079-.166v.284a4.1,4.1,0,0,1,2.274,1.161,3.744,3.744,0,0,1,.474,2.25,4.842,4.842,0,0,0,3.719-1.3C20.674-11.172,21.266-15.1,21.6-25.1a1.81,1.81,0,0,0,1.113-.474Zm-7.13,5.922a13.656,13.656,0,0,1,1.4,5.637c2.748,2.606,5.851-3.008-1.161-5.756Z" transform="translate(951.52 785.917)" fill="#00323d"/>
  </g>
</svg>
