<svg xmlns="http://www.w3.org/2000/svg" width="20" height="20" viewBox="0 0 20 20">
  <path id="phone" d="M17,12.032a1.573,1.573,0,0,1,1.243.739l1.448,2.263a3,3,0,0,1,.1,3.044l-1.172,1.667a1.6,1.6,0,0,0-.167,1.538,9.831,9.831,0,0,0,5.265,5.265,1.6,1.6,0,0,0,1.538-.167l1.667-1.172a3,3,0,0,1,3.044.1l2.263,1.448A1.573,1.573,0,0,1,32.972,28a3.681,3.681,0,0,1-2.728,4.007c-.445,0-5.794.608-11.826-5.424S12.994,15.2,12.994,14.76A3.681,3.681,0,0,1,17,12.032Z" transform="translate(-12.977 -12.027)" fill="#d6b686"/>
</svg>
