<svg xmlns="http://www.w3.org/2000/svg" width="20" height="20" viewBox="0 0 20 20">
  <path id="fb-logo-mobile" d="M1195.408,622.105c-.007-.14-.016-.239-.016-.338,0-2.154,0-4.309,0-6.463,0-.248.058-.338.32-.331.684.018,1.368.008,2.052.005a.491.491,0,0,0,.567-.5q.12-1,.24-2c.065-.533-.11-.728-.66-.729-.746,0-1.491-.006-2.236,0-.206,0-.29-.05-.285-.272.013-.612,0-1.225.007-1.838a1.117,1.117,0,0,1,1.218-1.224c.408-.011.817,0,1.225-.006.481,0,.654-.167.658-.638,0-.561.006-1.123,0-1.685,0-.353-.161-.564-.474-.559a22.846,22.846,0,0,0-2.868.108,3.3,3.3,0,0,0-2.849,2.98,25.752,25.752,0,0,0-.072,2.78c0,.284-.079.37-.36.356-.458-.022-.919-.009-1.378,0a.516.516,0,0,0-.587.581q0,1.041.016,2.083c.008.419.167.563.585.564.49,0,.98.007,1.47,0,.181,0,.253.048.252.241q-.009,3.323,0,6.647c0,.19-.066.245-.249.244-2.359,0-4.718.012-7.077-.011a2.654,2.654,0,0,1-2.558-2.622q-.007-7.367,0-14.733a2.668,2.668,0,0,1,2.617-2.628q7.383-.009,14.766,0a2.667,2.667,0,0,1,2.61,2.666q.009,5.958,0,11.915c0,.9,0,1.8,0,2.7a2.68,2.68,0,0,1-2.722,2.713c-1.3,0-2.594,0-3.891,0Z" transform="translate(-1182.338 -602.11)" fill="#d6b686"/>
</svg>
