<svg xmlns="http://www.w3.org/2000/svg" width="479.126" height="127.641" viewBox="0 0 479.126 127.641">
  <g id="Logo_bottom" transform="translate(-634.679 -188.734)">
    <path id="Path_38" data-name="Path 38" d="M956.777,248.32V242.7h2.684v-1.131h-2.684v-4.168h-1.22v4.168h-3.514v-4.363h-1.165v4.363h-3.34v-3.957H946.3v3.957h-2.6V242.7h2.6v9.327h12.648V250.9H947.537V242.7h3.34v5.615Zm-1.22-5.615v4.521h-3.514V242.7Zm-24.984,4.326.9-.034a11.8,11.8,0,0,1,.849.9l.83-.6a15.48,15.48,0,0,0-2.315-2.1h1.307v-4.682h-4.276v-1.06H932.9v-.918h-5.035v-1.255h-1.147v1.255h-4.893v.918h4.893v1.06h-4.186V245.2h4.186v1.076c-1.925.053-3.709.071-5.053.089l.108.97c2.048-.034,4.822-.14,7.648-.248v1.255h-8.091v.954h8.091v2.668c0,.211-.071.266-.353.282s-1.236.018-2.314-.016a4.41,4.41,0,0,1,.388,1.094,10.115,10.115,0,0,0,2.739-.2c.53-.158.691-.5.691-1.165v-2.668h2.47v-.954h-2.47Zm.44-2.631h-3.145v-1.184h3.145Zm0-3.108v1.184h-3.145v-1.184Zm-7.384,0h3.092v1.184h-3.092Zm0,3.108v-1.184h3.092V244.4Zm4.239.8h1.856l-.213.142c.337.245.706.546,1.062.846l-2.7.071Zm-4.611,4.734a13.985,13.985,0,0,1,2.262,2.452l.867-.7a14.307,14.307,0,0,0-2.3-2.349ZM921,237.229a20.014,20.014,0,0,1-4.468,7.081,7.837,7.837,0,0,1,.741,1.062,19.319,19.319,0,0,0,1.89-2.3V253.2h1.112V241.326a25.418,25.418,0,0,0,1.819-3.78Zm-19.069,14.13v-5.723H905.8v-1.131h-3.867v-5.033h4.328v-1.131h-9.522v1.131h4.01v5.033H897.16v1.131h3.585v5.723h-4.859v1.131h10.634v-1.131Zm-5.937-1.519V238.429H891.1V251.2h1.1v-1.358Zm-3.8-1.078v-4.186h2.684v4.186Zm2.684-9.256v4.01H892.2v-4.01Zm-16.435,8.425c.14-2.7.264-6.923.3-10h-3.285v.989h2.227c0,.778-.018,1.626-.037,2.473h-2.12v.991h2.1c-.016.775-.053,1.553-.071,2.312h-2.1v.989h2.067c-.035.812-.071,1.574-.106,2.243h-2.473v-9.891h-6.024v9.891H866.5l-.071-2.3h2.032v-.989h-2.051l-.087-2.315h2.048v-.989H866.31l-.073-2.172c.849-.229,1.785-.512,2.526-.8l-.564-1a26.8,26.8,0,0,1-3.021,1.11l.282,9.451h-1.448v1.1h15.828v-1.1ZM869.824,239h4.2v8.937h-4.2Zm.512,1.289v.83h3.092v-.83Zm.248,6.145H873.3v-4.06h-2.718Zm.654-3.266h1.395v2.473h-1.395Zm2.454,6.962a40.383,40.383,0,0,1,5.017,2.948l.759-.883a41.025,41.025,0,0,0-5.122-2.879Zm-4.611-.69a20.688,20.688,0,0,1-4.911,2.879,6.139,6.139,0,0,1,.709.883,28.033,28.033,0,0,0,5.246-3.055Zm-31.086-2.792a1.15,1.15,0,1,0-1.078-1.131A1.1,1.1,0,0,0,837.995,246.643Zm-32.447,5.106c-1.184,0-1.413-.232-1.413-1.186v-6.235l2.542-1.078v6.079h1.115v-6.537l2.631-1.113a50.684,50.684,0,0,1-.142,5.4c-.087.408-.282.5-.546.5-.195,0-.8,0-1.236-.034a3.853,3.853,0,0,1,.282,1.025,8.134,8.134,0,0,0,1.624-.108,1.145,1.145,0,0,0,.954-1.112,62.06,62.06,0,0,0,.195-6.677l.053-.229-.83-.337-.211.2-.264.232-2.51,1.06v-4.468h-1.115v4.927l-2.542,1.078v-4.381h-1.112v4.858l-1.943.812.459,1.025,1.484-.638v5.758c0,1.8.546,2.243,2.507,2.243h4.452c1.8,0,2.172-.759,2.367-3.143a3.037,3.037,0,0,1-1.062-.477c-.122,2.085-.3,2.562-1.342,2.562Zm-5.918-9.258h2.119v-1.113H799.63v-4.044h-1.113v4.044h-2.3v1.113h2.3v5.741c-.92.388-1.766.743-2.438.973l.461,1.165c1.535-.672,3.514-1.555,5.4-2.42l-.248-1.044c-.707.284-1.395.585-2.067.885ZM783.458,250.9v-5.615h-11.27V250.9h2.86a22.4,22.4,0,0,1-5.175,1.484,10.091,10.091,0,0,1,.707.814,21.837,21.837,0,0,0,5.689-1.785l-.849-.514h4.2l-.654.569a45.265,45.265,0,0,1,5.423,1.782l1.023-.741a46.785,46.785,0,0,0-5.262-1.61Zm-10.139-4.856h8.955v.865H773.32Zm0,1.592h8.955v.881H773.32Zm0,1.606h8.955v.9H773.32Zm-2.7-4.505c1.711-.106,4.134-.282,6.48-.459l.018-.83c-.83.053-1.659.105-2.454.161v-.867h2.12V242h-2.12v-.883h2.386v-.778h-5.689v.778h2.278V242h-2.1v.741h2.1v.938c-1.2.069-2.262.122-3.126.174Zm14.1-2.048v-.725H781.55v-.812h2.3v-.741h-4.4c.142-.229.264-.459.388-.707l-.9-.142a6.121,6.121,0,0,1-1.535,1.977,2.914,2.914,0,0,1,.651.424H777.4v.725h3.143v1.22h-1.661V243h-.9v1.642H784.2V243h-.936v.9H781.55v-1.22Zm-6.519-.725a7.582,7.582,0,0,0,.759-.812h1.59v.812Zm-6.888-2.631h12.754v1.413h1.113V238.36h-6.59a5.752,5.752,0,0,0-.723-1.342l-1.131.282a10.013,10.013,0,0,1,.548,1.06h-7.049v2.365h1.078Zm-12.481,1.395h-4.84v-3.6H752.73v3.6h-9.148v1.2h8a23.56,23.56,0,0,1-8.551,8.09,4.949,4.949,0,0,1,.885,1.041,26.8,26.8,0,0,0,8.813-8.726v8.974c0,.353-.14.459-.493.477-.335,0-1.555.018-2.826-.034a5.083,5.083,0,0,1,.424,1.218,12.223,12.223,0,0,0,3.319-.211c.583-.213.83-.567.83-1.45v-9.38h4.84Zm-26.595,1.236V240.9h-7.065v-1.98a43.139,43.139,0,0,0,5.317-.83l-.883-.9a72.833,72.833,0,0,1-11.676,1.255,3.726,3.726,0,0,1,.266.954c1.853-.071,3.868-.2,5.81-.372V240.9h-7.031v1.057H722.6a16.171,16.171,0,0,1-6.182,3.746,6.588,6.588,0,0,1,.759.954,17.408,17.408,0,0,0,6.8-4.7H724v3.482h1.165v-3.482h.037a16.548,16.548,0,0,0,6.73,4.489,6.725,6.725,0,0,1,.775-.973,15.841,15.841,0,0,1-6.145-3.516Zm-5.086,5.971c.211-.654.459-1.395.654-2.067h-8.6v1.025h2.649a6.152,6.152,0,0,1-4.806,5.4,2.876,2.876,0,0,1,.688.954c3.656-1.218,4.824-3.514,5.335-6.359h3.3a15.151,15.151,0,0,1-.688,2.067h4.01c-.213,1.819-.424,2.613-.725,2.879a1.053,1.053,0,0,1-.688.142c-.39,0-1.432-.018-2.491-.108a2.566,2.566,0,0,1,.388,1.078c1.025.071,2.014.089,2.491.071a1.772,1.772,0,0,0,1.236-.44c.477-.443.743-1.539,1.007-4.134a4.706,4.706,0,0,0,.053-.514Z" transform="translate(105.764 62.339)" fill="#fff"/>
    <rect id="Rectangle_23" data-name="Rectangle 23" width="31.39" height="1.06" transform="translate(782.032 306.977)" fill="#fff"/>
    <rect id="Rectangle_24" data-name="Rectangle 24" width="31.39" height="1.06" transform="translate(1082.415 306.977)" fill="#fff"/>
    <path id="Path_39" data-name="Path 39" d="M730.53,297.665a56.463,56.463,0,0,0,0-90.543Zm-67.464-90.543a56.459,56.459,0,0,0,0,90.543Zm30.9,101.656v-12.94H668.729v5.547A56.151,56.151,0,0,0,693.963,308.778Zm5.666-12.94v12.94a56.151,56.151,0,0,0,25.234-7.393v-5.547Zm-5.666-86.891V196.011a56.121,56.121,0,0,0-25.235,7.391v5.547Zm5.666-12.937v12.937h25.234V203.4A56.12,56.12,0,0,0,699.629,196.011Zm-18.924,94.163V258.724l10.575-6.331-10.575-6.331V214.614H668.729v75.559Zm26.519,0V261.936L696.8,255.694l-10.428,6.242v28.237Zm5.666-75.559v31.449l-10.577,6.331,10.577,6.331v31.449h11.974V214.614Zm-26.521,0v28.237l10.428,6.242,10.428-6.242V214.614ZM696.8,190.276a62.119,62.119,0,1,1-62.117,62.117A62.118,62.118,0,0,1,696.8,190.276Z" transform="translate(0 1.862)" fill="#fff"/>
    <path id="Path_292" data-name="Path 292" d="M315.23,548.5l-.852-.641-3.275-.633-.963-.11h-.422l-.423.11-.54.211-.313.321-.641-.11h-.532l-.422.11-1.384.633-1.494,1.173-1.705.955-.422.109h-.532l-.532.43-.641.313-2.744.962-.532.422-.422.532-.11-.1v-.11l.11-.211v-.212l-1.494.844-.422.43h-.532l-.321.11-.641.311-.642.431-.422.1h-.422q-.643.389-1.283.751l-8.172,3.723-1.173.742-1.807.43-3.09,1.486-1.6.32-.422.11-.212.211-1.173.852-.43.1h-.423l-.953.743L268.7,565.53l-3.512,1.384-2.448.642-8.492,3.529-4.474,1.494-4.575,1.164v.431l.211.422.321.431.11.321v.313l.532.43,1.173.422,1.806.321,1.064.43.852.211h.422c3.823-1.086,7.7,1.192,10.6-.049,4.918-2.113,6.119-1.9,12.653-5.147,3.5-1.738,6.437-3.21,8.321-4.3,8.875-3.708,10.476-4.978,17.086-8.2l.43-.532.532-.422,1.917-1.064.532-.43.422-.532.853-.211,1.494-.852.633-.532c2.434-2.666,1.362-1.928,3.943-3.191l.742-.742.827-.431.321.11h.211l1.6-.43.313-.211.321-.321.11-.422v-.532Zm-6.474,54.828-9.784-1.376-3.385-2.348-10.223-6.381-.211-.643-.109-.532.109-.531.211-.532.321-.43,1.384-1.275.744-3.4.219-3.621-.11-3.723.11-3.833h-.321l-1.384,1.384-2.321,3.191-5.107,8.728-1.815.11-.844-.11-.751-.211-3.082-1.384-2.026-.109-3.917-1.385-2.127-.532-.742-.422-1.706-.532-11.682-.742-1.064-.22-1.283.22-4.044.211-1.165.211-.515.321-.532.211-.532.422-.742.962-.212.743.954.11,1.064-.11,1.148-.321.963-.422.633,1.064.752.11c5.91,0,15.522,4.441,18.816,8.509,4.161,3.032,3.477,1.844,5.529,4.474v.633l-.422.852-1.815,1.816-3.823,4.786-.853.853-2.346,1.806-3.191,2.98-2.424,1.705-1.384.633-.532.11-.321.212-.962.963-.313.21-.43.11h-.422l-.852.742-2.127.954-4.474,1.174-.955.422h-5.622l-1.807-.313-.852.1h-.742l-1.494-.422-1.486-.642-1.6-.422,1.283,1.064.321-.11.743.321L232.343,621l.963.532h.312c.945-.3,10.318,3.92,18.394-.1l3.089-.963.955-.532.827-.633.321-.321.321-.532.962-.109.743-.212L261.778,616l.642-.43.641-.321.1-.422.109-.211.212-.211.641-.321.211-.21v-.219l4.153-3.512,3.917-3.934.1-.641.11-.1.11.1.532-.1.422-.219.321-.313.1-.431h.43l.532-.11,1.806.221h.43a15.42,15.42,0,0,1,2.229,1.595c1.407-.925,8.559,6.185,9.986,7.344l1.063,1.064.532-.321h.212l.321.321.211.422.11.431.212.422.32.321h.321l.321.743.422.531.43.212.532.11,1.064.422c2.4,2.444,7.143,4.156,10.771,5.22,1.77.52,3.673.878,5.065.317h.422l.4.212c.445-.146,6.616.184,9.646.393,1.746.12,21.483.561,21.917.46l.321.109.11.211.11.11.422-.219h.211l.963.532.532-.1.532-.21.954-.219.43-.211.312-.212.321-.422.211-.54-.1-1.376-.853-4.153-1.595-2.026a69.079,69.079,0,0,0-14.983-9.572h-.752l-.633.211h-.212l-.321-.11-.212-.21-.109-.212-4.449-.641h-4.254l-.853-.321-1.705-.313h-3.191l-.743-.11Zm-43.676-64.2-.954.219-2.769,1.064-.954.211h-.962l-.321.321v1.595l.742.853,1.6,1.275.954.532.321-1.063.641,1.384,1.165.532,5.006,1.6,1.571,1.064.751.963.211.633-.211.641-.11.642-.11.313v.321l-.211.211-.321.219.321,1.385.11.211.532.531.321.1.422.431,1.063.211h1.064l.532.109.43.211.422.321.532-.11h.43l1.063.11h.422l.43-.11.422-.321.212-.532v.321l.532.109.431-.109.321-.211.1-.431h.742l.642-.211a4.568,4.568,0,0,0,.531-.321l.532-.422.726-.962.634-.633h.219l.1.1v.219l.532-.11.431-.211,1.6-1.494a4.546,4.546,0,0,0,.532-.32l.532-.211.422-.1.22-.22.1-.21.11-.321.212-1.063.211-.321.642.642,1.595-3.081V545.2l-.742-1.173-.962-1.063-1.064-.852-1.165-.633-1.384-.532-1.384-.321-1.494-.109-1.469.109-.211.321-.211.21-.211.11h-.11l-.422-.11-.531-.21-.431-.321-.532-.109h-.422l-.219.219-.313.211-7.985-.853-1.064-.43-.405.109h-.422l-.751-.21-.422-.212h-.743l-.43.313-.532-.313-.954-.219Z" transform="translate(603.581 -341.353)" fill="#fff"/>
    <path id="Path_293" data-name="Path 293" d="M432.977,577.056l.875-.125.438-.125h.938l.5.063.125.25.125.357v.188l-.063.438-.125.375-.625,1.125-.126.438-.124.063-.125.25v.438l-.125.125-1.5,3.314-1.251,2.3-.563.75-.688.313-.687.438-.376.125h-.491l-.188-.062-.188-.126-.125-.188-.313-.312-.249-.376-.376-.812-.249-.813-.125-.875.249-1.492.063-4.814-.062-.313v-.249l.438-1.108.375-.5,2.8.75,1.313.187Zm-3.752-25.045.125.25.188.25.126.249v.126l-.063.125-.063.25-.125.124-.188.125-.616.188-4.376.866-1.251.5h-.375l-.376.063-.625.188-.126.376-.188-.188-.25-.062-.555.125-.187.125-.249.063-1.251.187-1.188.563-.563.188-.312.063-.313-.062-2.438.875-.375.188-.375.25H412.8l-1.617.563-.438.063-.375-.063-.438-.188-.249-.687v-.625l.062-.313.376-.875,1.188-1.751.25-.617,1.8-1.125,1.751-1.376,4-2.188,2.054-1,2.189-.625m19.489,7.557h.438l.5.062.437.188.188.124.187.188v.251l-.124.25-.251.375-.25.063-.375.375-.126.188-.062.438v.188l-.188.187H443.1l-.063-.124-.125-.187-.125-.126-.688.126-.188.062-.375-.125-.125-.188-.124-.125-.063-.125-.063-.313.063-.375-.063-.437.313-.313.875-.5Zm15.988-6.556-1.438-.625h-.688l-2.867-.25-1.376.062-.625.188-.438.249-1.688,1.688-.813.625-5.743.5-.312-.062-.563-.25-.25-.25-.375-.5-.25-.625-.124-.75v-.187l.063-.251.125-.187.187-.126-.063-.482-.563-1.25-1.125-1.438-2.992-1.563-.437-.313-.376-.438-.25.062-1-.625-.188-.062h-.25l-.188-.25-2.313-1.241h-.5l-.5-.063-.937-.438h-.626l-.241-.062-.062-.062-.063-.124-1.062-.25-2.376-1.064-4.439-1.375-3.43.125-1.126-.125-.125.125v.25l.188.374.188.25.125.375.188.313,1.125,1.251.625.563.25.313.313.679.063.312-.063.313-.124.375-.251.376-.375.375-.124.063-.063.062-.063.188-.062.126-.063.062h-.251l-.5.438-2.188,2.627-.563.5-.562.375-.375.545-.125.125-.188.062h-.313l-.188.188L412,548.7l-.188.188-.063.188h-.376l-.937.188-1.75.751-.563.187-.688.062h-.688l-1.312,1.251-2.931,3.3-.688.626-.063.188-.125.25-.625.875-.062.188-.563.25-.251.188-.124.249-.635,1.126-.75,1-.25.563-.75,3.117-.312.375-.313,1-.25,2.438v.438l-.376,2.126v.438l.5,1.8.125.75.25.75.063.5.124.438.75,1.626.125.437.063.438,1.5,1.8.7.5.375.062.313.125,1.125.75.313.124.687.125.188.062.428-.125.313-.25.251-.312.436-.876.5-.688.374-1.108.251-.5,1-1.438.75-.876,3.439-3.063.125-.5.125-.179.313-.312.187-.063.428-.063,4.064-3.064.375-.187.375-.063h.188l.188.063.124.125.125.187.188,1.063-.063,1.063-.187.438-.063.438v.866l.125.875v1.376l-.187,1.313-.188.813.125.875-.125.313v.732l-.063.563-.062.25-.125.313.125.438-.125,2.438.125.438.063.813-.5,4.055v.75l.187.813-.124,6.242.063.313v.625l-.438,1.25v.313l-.375.813-.063.438v.188l.063.25.375.687.125.439.125.875v.428l-.125.876.188,6.11-.063,3.126.125,3.189-.063,1.429.25,2.877-.063,1.375,2.689,4.555,1.366,1.625.75.688.875.563.938.313h1l1-.125.75-.5,1.251-1.188.5-.75.813-1.563.241-.866.188-1.313v-.437l-.125-.876-.428-1.626.491-2.626.375-.813-.125-.438-.741-.928v-.5l-.125-.375-.625-1.189-.124-.437v-.438l.124-.5-.187-.75-.25-3.672-.188-1.438.375-.563.25-.188.564-.125,2.679.562h.375l.313-.063.375-.124.689-.375,3.563-1.376,3.492-.937.814-.367,1-.25h1l.875.125.625.492.125.375v.438l-.249.25-.188.25-.251.562-.5.751-.25.187-.625.689-.687,1.063-.625.563-.438.251-2,2.42-2.179,2.126-1.125.438-.313.062-.5.25-.251.251-.937,3.429-.125,1.5.063.812.813.625.938.5.625.188.564.25,2.179,1.313.563.25.688.124.313.375.437.25.875.25a22.012,22.012,0,0,0,4.993-.563l.938-1.188.625-.5.375-.188.813-.25.375-.187.313-.25.125-.125.063-.188.125-.188v-.25l-.125-.375-.251-.313-.5-.5-.688-.375-3.055-1.063-2.5-.688-.5-.375v-.179l-.063-.25.125-.312.437-.563,1-.625.313-.25.124-.5.25-.375.375-.375.375-.25.868-.438.75-.563.5-.688,1.75-1.608,1.875-1.563.625-.625.249-.062.188-.188.313-.437.249-.564.375-.375.126-.313.187-.25.929-.875,1.063-.813.563-.742.25-.687.062-.375-.5-.938-.75-.812-1.3-.875-.5-.188h-.25l-.814-.562-.188-.063h-.187l-.188.126-.5-.375-1.126-.563-.313-.125-.25-.188-.375-.125-.376-.062-.375.063-1.126.375-.813.125-.188.188-.741.375-2.063.251-.938.437L437.04,597.9l-4.314,1.126-.812.312-.5.063-1.939.5-.491.062h-.438l-.437-.124-.251-.313-.375-1.188-.126-4.127-.062-.375-.126-.375.063-.188v-.929l.063-.188.125-.187.313-.125.124-.312.188-.25.437-.438,1.116-.625,1.876-.625.562-.313,3,1.313,1.189.25.437.125h1.179l.251.124,2.438-.687,3.064-1.5.75-.5.188-.313.249-.251.626-.5.249-.25.125-.312v-.125l-.062-.188-.063-.124-.188-.188-1.313-.375-1.25-.563-1.313-.375h-.688l-1.125.188-.938.375-.313.062h-.312l-.313-.125-.313-.25-.116-.188-.125-.251v-.375l.063-.179.125-.125.3-.375.813-.563.563-.688L444.6,577.6l1.617-1.733.5-1.062.062-.313v-.313l-.124-.313-.375-.563-.251-.25-1.8-1.25-2.563-.875-.813.125-1.187-.188h-.438l-.375.062-.375.125-.249-.188-.188-.063-.929.25h-.188l-.188-.125-.374.125-1.876.375-.313.126-.5-.063H432.6l-.5.063-2,.5-.625-.125-.616.125-.563.188h-.313l-.249-.063-.313-.125-.188-.188-.188-.251-.375-.687-.125-.491-1.939-2.189-.437-.375-.938-.626-.126-.249-.562-.563-1.376-.688-.375-.25-.178-.188-.126-.188-.125-.563v-.187l.125-.375.867-.814.938-.437,2.125-1.492.5-.25.5-.438,1.126-.688,2.5-1.062.553-.313,2.939-.688,2.752-.875,1.563.5.188.313.929.562.5.5.125.312v.376l-.687.75-.679.438-.25.063.438.125h.428l.938-.188.938-.125h.438l.5.062,2.376-.062,4.493-.375,2.376-.313.376-.188.375-.125.376-.062,2.188.125,1.241.437,1.188.75,2.126,1.867L459.585,564l.813.375.438.062h.813L463.22,564l.689-.375,1.188-1.063,1.054-1.429.313-.188.375-.562.25-1,.25-.625-.062-.75-.375-1.313-.625-1.125-1.242-1.5-.375-.242-.25-.313-.25-.249h-.375l-2.01-1.939L459.46,548.7Z" transform="translate(547.468 -340.44)" fill="#fff"/>
    <path id="Path_294" data-name="Path 294" d="M533.8,582.932a24.414,24.414,0,0,1-1.661,3.139q-1.306,2.678-2.374,4.654-1.543,2.787-1.662,2.9a3.3,3.3,0,0,1-1.662.053,28.146,28.146,0,0,0-3.086-.242q-1.662-.066-1.662-.422s.118-.273.356-.817a1.663,1.663,0,0,0,.475-.931l.593-.57a3.746,3.746,0,0,0,.831-1.509,1.87,1.87,0,0,1,.594-.808.3.3,0,0,0,.356-.342q0-.356.593-.926a8.1,8.1,0,0,0,1.068-1.619q.593-1.046.831-1.392a7.292,7.292,0,0,1,.831-.442,6.928,6.928,0,0,1,1.305-.778,17.706,17.706,0,0,1,1.78-.405q.712-.09,2.018-.157l.712.028Zm24.582-57.392a.67.67,0,0,0-.474.1q-.119.352-.475-.018a1.2,1.2,0,0,0-.474.041c-.079.037-.119.173-.119.411l.238.246-.593-.26a4.338,4.338,0,0,0-1.187-.522s.04.16.118.48a7.388,7.388,0,0,1,.119.955q0,.237-.594-.024c-.158-.323-.237-.4-.237-.246a.808.808,0,0,1-.059.353c-.039.078-.138.114-.3.107s-.4.222-.713.684a4.754,4.754,0,0,0,.475,2.63,12.9,12.9,0,0,1,.534,2.217,29.077,29.077,0,0,1-.059,3.024,11.632,11.632,0,0,1-.118,1.657,9.923,9.923,0,0,0-.118,1.361v.534q-.119,0-2.137.746a19.218,19.218,0,0,1-3.442.694,7.558,7.558,0,0,1-1.305.423,2.6,2.6,0,0,0-1.069.432q-1.187.309-2.136.509-1.068.2-4.392,1.25-2.967.713-3.56.809-.119.231-.356-.015l-1.069-1.111a20.038,20.038,0,0,0-2.017-2.216,3.361,3.361,0,0,0-1.662-1.134,1.453,1.453,0,0,0-1.306-.289c-.158.152-.356.1-.593-.142q-.119-.124-.178-.126c-.04,0-.02.039.059.121l.356.488q0,.119-.356.105a1.64,1.64,0,0,0-.594.333q-.119.469-.356.46c-.158-.085-.277-.011-.356.224a.88.88,0,0,1-.118.351,10.222,10.222,0,0,0,.118,2.616,20.98,20.98,0,0,1,.356,2.27q0,.712-1.543,1.126a8.069,8.069,0,0,1-1.424.3q-.594.214-1.9.637a8.922,8.922,0,0,1-2.018.395,1.615,1.615,0,0,0-.712.09,4.791,4.791,0,0,1-1.544.295,14.281,14.281,0,0,1-3.442-.017,10.115,10.115,0,0,0-2.611-.1,3.379,3.379,0,0,1-.474.337l-.713-.029a.5.5,0,0,0,.118.361q.238.129,0,.474-.237.23-.237.11-.475-.019-.712.565c-.4.46-.633.727-.713.8q-.237.229.831,1.1.475.493.475.73a7.317,7.317,0,0,0,.356,1.082,2.684,2.684,0,0,1,1.187,1.71,2.789,2.789,0,0,0,.3,1.08,4.643,4.643,0,0,0,.416.491,1.385,1.385,0,0,1,1.187.759,3.9,3.9,0,0,0,1.424.294,10.686,10.686,0,0,0,1.543.3,6.208,6.208,0,0,1,1.305.823,3.5,3.5,0,0,0,1.6.716,2.412,2.412,0,0,1,1.365.648,1.931,1.931,0,0,0,.652.263.629.629,0,0,0,.416-.221,2.14,2.14,0,0,1,1.306-.542q1.186-.309,1.305-.542a1.964,1.964,0,0,1,.475-.1,6.329,6.329,0,0,0,1.424-.419,4.148,4.148,0,0,0,1.781-1.116,5.279,5.279,0,0,1,1.068-.195q.238.01,1.068.992a8.014,8.014,0,0,1,1.306,2.069,3.415,3.415,0,0,0,1.78,1.257,7.135,7.135,0,0,0,2.018,1.149,6.1,6.1,0,0,0,1.78.664l1.306.408.83-.442q1.188-.545,1.188-.9.119-.59-.118-.717c-.079-.083-.119-.144-.119-.183s.079-.136.237-.287l.356-.343-.356-2.982a15.786,15.786,0,0,0-1.188-5.032,11,11,0,0,1-.356-1.794.669.669,0,0,1,.119-.471,5.932,5.932,0,0,0,1.187-.9q.712-.684.95-.674a2.291,2.291,0,0,0,1.068-.2,1.41,1.41,0,0,1,.831-.323.985.985,0,0,0,.415-.162,2.373,2.373,0,0,0,.653-.627,5.685,5.685,0,0,1,1.543-.77q1.188-.309,1.188-.665c0-.158.039-.235.118-.233a6.361,6.361,0,0,0,1.306-.3q1.3-.3,1.78-.4a5.454,5.454,0,0,1,1.068-.076q.356.014.238.246,0,.12-.118,1.183a23.629,23.629,0,0,0-.593,2.944q-.238,2.6-.712,5.55a42.983,42.983,0,0,1-.356,4.5q-.119,1.539-.238,3.076-.237,1.178-.474,2.593-.237,1.533-.356,2.241a2.554,2.554,0,0,0-.356.935v.475h0l.356-.579c.158-.47.356-.619.593-.452.158.164.079.439-.237.822v.3q0,.06.237.188a.714.714,0,0,1,.238.484c0,.079.08.122.238.128s.475-.338.949-1.031t.593-1.1q.594-1.1.831-1.57a17.936,17.936,0,0,1,1.424-2.2,4.579,4.579,0,0,1,1.187-1.02,4.683,4.683,0,0,1,.712-.922,4.931,4.931,0,0,0,1.188-1.5,9.8,9.8,0,0,1,1.305-1.492q.95-.912,1.662-1.714a6.5,6.5,0,0,0,1.306-1.966,3.192,3.192,0,0,1,.83-1.748,5.847,5.847,0,0,1,.831-1.273,10.153,10.153,0,0,0,1.544-2.55,15.735,15.735,0,0,0,.832-2.1,6.593,6.593,0,0,0,.712-.922,1.3,1.3,0,0,0,.118-.589,2.757,2.757,0,0,1,.356-.935,2.2,2.2,0,0,1,.119-.707l.356-.46a1.33,1.33,0,0,1,.831-.679,7.746,7.746,0,0,1,2.018.555q1.424.531,2.255.92a5.494,5.494,0,0,0,1.068.28,4.76,4.76,0,0,1,1.306.407,2.12,2.12,0,0,0,1.781.427,4.89,4.89,0,0,1,1.424-.418,1.693,1.693,0,0,0,1.068-1.026V544.31a3.909,3.909,0,0,1-.237-1.434,2.118,2.118,0,0,0-.178-1.016,6.37,6.37,0,0,0-1.484-1.186q-1.543-1.131-2.73-2.127a9.958,9.958,0,0,1-1.543-1.01.537.537,0,0,0-.238-.425,2.165,2.165,0,0,0-.594-.321q-.711-.265-.712-.5,0-.119-.118.114a2.444,2.444,0,0,1-.535.335c-.039,0-.059-.121-.059-.358-.079-.162-.238-.168-.474-.019q-.475.1-.594-.024a3.452,3.452,0,0,0-.594.094,1.741,1.741,0,0,1-.949.319,2.549,2.549,0,0,1-.89.023.786.786,0,0,1-.3-.19,3.19,3.19,0,0,0-.474-1.8,13.868,13.868,0,0,1-1.426-2.43,15.122,15.122,0,0,0-2.729-3.314q-1.663-1.609-2.967-2.729A6.564,6.564,0,0,0,558.387,525.54ZM570.349,567.4a1.832,1.832,0,0,0-1.187.428,2.378,2.378,0,0,1-1.068-.042,1.98,1.98,0,0,0-.831-.271,2.653,2.653,0,0,0-.831.2,3.228,3.228,0,0,1-.712.209q-.119,0-.357.342a6.65,6.65,0,0,0-.118,1.3v.712l-2.849,1.193a8.97,8.97,0,0,0-1.484.713,5.5,5.5,0,0,1-.772.444.75.75,0,0,1-.534.1l-.178-.066a3.768,3.768,0,0,0-.475-1.443,4.113,4.113,0,0,0-1.542-1.486q-1.188-.64-1.425-.531a1.024,1.024,0,0,1-.474.1,3,3,0,0,1-1.068-.161c-.079-.083-.118-.084-.118,0s-.237.109-.713.09q-.474.1-.474.219a1.278,1.278,0,0,0,.238.484,4.112,4.112,0,0,0,.178.6c.04.08-.019.237-.178.467a.623.623,0,0,0-.238.406,1.192,1.192,0,0,0,.238.544,9.849,9.849,0,0,1,.237,2.5,12.01,12.01,0,0,1-.059,1.541,1.934,1.934,0,0,1-.415.814,13.756,13.756,0,0,1-1.9,1.112,5.487,5.487,0,0,1-1.424.655,4.912,4.912,0,0,1-1.187.072,1.933,1.933,0,0,0-.949.081,1.892,1.892,0,0,1-1.068.195q-.474-.018-.474.1v.023q-.488-.123-1.17-.3a6.16,6.16,0,0,0-1.425-.65,1.611,1.611,0,0,1-.949-.75c-.159-.244-.317-.368-.475-.375a1.326,1.326,0,0,1-.653-.322q-.416-.312-.535-.2a1.252,1.252,0,0,1-1.068.195q-.595-.023-.594-.26l-.593-.143a6.725,6.725,0,0,0-1.306-.17,1.278,1.278,0,0,0-.416.043c-.118.034-.178.091-.178.17q0,.475-.357.579-.355.341-.474.219a2.161,2.161,0,0,0-.831-.39,1.406,1.406,0,0,0-1.187.428,3.007,3.007,0,0,0-.593.808q-.356.1-1.662.527l-1.424.3,1.068-1.857a8.524,8.524,0,0,1,1.424-2.673,1.979,1.979,0,0,0,.594-1.045,3.7,3.7,0,0,1,.237-1.059.847.847,0,0,0,.238-.643,3.694,3.694,0,0,0-.356-1.261,2.84,2.84,0,0,0-.534-1.267,13.416,13.416,0,0,0-1.484-1.543,6.828,6.828,0,0,0-2.136-2.1,1.953,1.953,0,0,0-1.188-.283,1,1,0,0,1-1.068-.161l-.119-.124-.059,0c-.039,0-.058.037-.058.116v.356a.219.219,0,0,1-.238-.247h0q0-.119-.237-.128t0,.357c0,.158-.039.255-.118.291a1.205,1.205,0,0,1-.475.04c-.158-.005-.357.224-.593.689a1.651,1.651,0,0,0-.831,1.035,19.866,19.866,0,0,1-1.9,4.316q-1.9,3.368-2.256,3.946l-.119.352a5.271,5.271,0,0,1-.415.874,4.018,4.018,0,0,0-.415.993q-1.424,2.911-2.255,4.54-1.544,3.144-1.662,3.376a23.406,23.406,0,0,0-1.543,3.143q-.95,1.862-1.424,2.911a2.039,2.039,0,0,0-.059.829,3.4,3.4,0,0,0,.534,1.089,10.2,10.2,0,0,1,.832,1.813,7.774,7.774,0,0,1,.593,1.329q.356.845.475,1.087c.078.162.317.17.712.029a.789.789,0,0,1,.831.389q.713.5,1.069.28.237-.11.237-.585t.357-.46a2.452,2.452,0,0,1,.949-.437q.356-.342.475-.337a2.528,2.528,0,0,1,.712.5q.595.617.95.631a11.652,11.652,0,0,1,1.543.892q1.662,1.253,1.424,1.244a8.2,8.2,0,0,1-.593,1.282l-2.138,2.764q-1.185,1.5-3.2,4.028a34.55,34.55,0,0,0-2.493,2.868,20.637,20.637,0,0,1-2.255,2.048,31.1,31.1,0,0,0-3.561,3.182q-1.9,1.706-1.9,1.943t-.593.451a5.891,5.891,0,0,0-1.187.9,1.635,1.635,0,0,0-.118,1c.079.2.158.243.238.128a.516.516,0,0,1,.474-.159q.475.019.475.2c0,.119-.1.213-.3.285s-.178.112.059.121a2.212,2.212,0,0,0,.712-.091,3.96,3.96,0,0,1,1.425-.893q.713-.8,1.068-.788.475.138,1.662-.766a7.878,7.878,0,0,1,2.018-1.225.887.887,0,0,0,.83-.323q.237-.346.237-.168a1.866,1.866,0,0,1-.118.529q-.12-.006.593-.333a1.921,1.921,0,0,0,.594-.57,16.5,16.5,0,0,0,1.543-.889,1.832,1.832,0,0,1,.712-.565l.712-.446c0-.08.079-.116.237-.11.08,0,.119.025.119.065v.059l-.119.114.237-.109q.119-.232.593-.1.237.128,1.069-.315a7.522,7.522,0,0,0,1.306-.422,6.859,6.859,0,0,1,1.424-.774q1.187-.547,1.187-.9,0-.119.712-.328a2.271,2.271,0,0,0,1.305-.661l.713-.684a.667.667,0,0,1,.475-.1.67.67,0,0,0,.594-.333,8.03,8.03,0,0,1,.83-.561,2.209,2.209,0,0,1,1.068-.432,11.134,11.134,0,0,0,2.255-1.987,20.355,20.355,0,0,1,2.67-2.387,2.049,2.049,0,0,1,1.009-.375,5.117,5.117,0,0,0,1.305-.424,2.774,2.774,0,0,0,.653-.508,4.952,4.952,0,0,0,.653-.746l.356-.876q.119-.292-.238-.425a3.07,3.07,0,0,0-.593-1.092,7.77,7.77,0,0,0-.238-1.078,1.515,1.515,0,0,1,.356-1.173,12.429,12.429,0,0,0,.83-1.392,1.522,1.522,0,0,1,.712-1.04,7.453,7.453,0,0,0,1.306-1.372q.713-1.159.831-1.154a.95.95,0,0,1,.356.133q0,.119.238-.228l.119,0a12.605,12.605,0,0,1,1.305-2.56,10.779,10.779,0,0,0,1.306-2.915,6.872,6.872,0,0,1,1.187-2.089,8.209,8.209,0,0,0,1.234-1.909,3.611,3.611,0,0,0,1.124.216,2.84,2.84,0,0,0,1.068-.194,2.446,2.446,0,0,0,.415-.043,2.859,2.859,0,0,1,.356-.045l.059,0,.119,0a.957.957,0,0,0,.3-.048,1.1,1.1,0,0,0,.415-.28l.831-.2-.118.945-.238,2.245a20.041,20.041,0,0,1-.474,2.355q-.356,1.411-.474,2.118a5.375,5.375,0,0,1-.475,1.88v10.386a3.175,3.175,0,0,0,.357,1.617,22.206,22.206,0,0,0,1.067,2.416,5.338,5.338,0,0,0,.95,1.343,11.051,11.051,0,0,1,.95,1.106,20.882,20.882,0,0,0,1.9,1.975,14.33,14.33,0,0,1,1.247,1.236,8.4,8.4,0,0,0,1.72.78q1.307,1,2.019,1.623.83.626,1.068.4.119-.114,1.662.778a9,9,0,0,0,2.255,1.039q.832.152,3.087.478a25.4,25.4,0,0,0,2.849.35,3.762,3.762,0,0,1,.712.266q.475.138,7.359.41a54.686,54.686,0,0,0,7.478.059q.83-.087,1.9-.281a3.17,3.17,0,0,0,1.663-.289,21.1,21.1,0,0,1,2.373-.5q1.663-.409,2.019-.514.118-.233,1.305-.364a3.211,3.211,0,0,0,1.246-.248q.06-.116.474-.1c.277.011.573-.2.891-.617a1.906,1.906,0,0,1,.83-.738.679.679,0,0,0,.475-.456c.079-.313.158-.428.238-.347a.229.229,0,0,0,.356-.1,3.192,3.192,0,0,0,.118-.708,2,2,0,0,1,.594-.926,1.526,1.526,0,0,0,.238-.881,1.161,1.161,0,0,1,.356-.876,2.419,2.419,0,0,0,.119-.411c0-.039-.04-.1-.119-.182q-.356-.252-.356-.014a.2.2,0,0,1-.238.227q-.119,0,0-.711v-.832q.119,0,.118-.826v-.712a.22.22,0,0,0-.237-.247l-.593-.023q-.119,0-.119-.48v-.238h0q-.355.224-.355-.014a.765.765,0,0,1,0-.594.55.55,0,0,0-.119-.6q-.119-.124,0-.594c.079-.313.04-.513-.118-.6q-.475-.257-.237-.6a1.431,1.431,0,0,0-.475-.969,2.585,2.585,0,0,1-.237-1.315v-1.781a5.2,5.2,0,0,1,1.187-2.209A21.559,21.559,0,0,0,602.4,594.9q.475-.931.594-1.164v-.119l-.119,0c0,.079-.02.118-.059.117l-.059,0h0a.879.879,0,0,1,.118-.352c.079-.393.119-.588.119-.588q-.12,0-.832.679a16.236,16.236,0,0,0-2.018,1.462q-.83.8-1.78,1.591-1.188.785-3.205,2.366a30.228,30.228,0,0,1-3.679,2.466,24.335,24.335,0,0,1-4.511,1.839,32.8,32.8,0,0,1-3.917,1.15,19.8,19.8,0,0,0-3.68.685,20.874,20.874,0,0,1-6.528.572q-3.8-.151-7.716-.187a28.363,28.363,0,0,1-5.1-.321q-1.07-.4-2.374-.925a6.3,6.3,0,0,1-1.9-1.856,4.187,4.187,0,0,1-1.068-1.229q0-.594-.238-2.621-.119-2.379-.118-4.278a15.888,15.888,0,0,1,.474-3.9,18,18,0,0,0,.949-3.761q.237-1.651.475-3.067a10.769,10.769,0,0,1,.593-1.758,2.332,2.332,0,0,0,.475-.93,5.919,5.919,0,0,1,.238-1.653,6.23,6.23,0,0,1,1.305-1.372q1.069-.671,3.205-1.772,2.374-1.094,2.492-1.207.712-.209,1.662-.409,1.069-.077,1.068.042s-.039.711-.118,2.132a32.269,32.269,0,0,1-1.187,6.6q-.712,4.482-.712,4.957a.7.7,0,0,1-.178.527,1.385,1.385,0,0,1-.653.271,5.551,5.551,0,0,1-1.068.077c-.237-.01-.435.161-.593.51a.762.762,0,0,1-.772.5c-.356-.015-.534.019-.534.1-.079.234-.079.393,0,.474a1.827,1.827,0,0,0,.949.038l.238.009q.119,0,0,.118t.356.489l.356.371-.356.223a1.639,1.639,0,0,1-.949.2,1.213,1.213,0,0,0-.475.041c-.079.036-.039.136.118.3a1.812,1.812,0,0,0,1.069.4,1.482,1.482,0,0,1,.949.334,2.489,2.489,0,0,1,.593.8,2.389,2.389,0,0,1,.593.973c0,.158.159.362.475.612a4.429,4.429,0,0,1,.831.983.956.956,0,0,0,.118.361q.119.242.713.384l.712.029a.534.534,0,0,0,.832.152.891.891,0,0,1,.831.507q.119.361.83.152a5.7,5.7,0,0,1,.713-.091.954.954,0,0,1,.356-.935,6.826,6.826,0,0,0,.653-.33q.178-.112.772.148l.712.148.594-1.164q.712-1.039.475-1.523,0-.119.83-3.173.831-2.934,1.424-4.454a15.054,15.054,0,0,1,.713-2.346,2.465,2.465,0,0,0,.594-1.282q0-.237.356-2.478a7.272,7.272,0,0,1,.415-1.527q.178-.349.89-.44a3.451,3.451,0,0,0,.534-.394,1.548,1.548,0,0,0,.3-.76,2.792,2.792,0,0,0-.238-1.553,8.723,8.723,0,0,1-.593-1.685.585.585,0,0,1-.415-.372c-.04-.16-.079-.339-.119-.539s-.058-.3-.058-.3a1.072,1.072,0,0,1,0-.712l-.06-.062c-.039-.041-.059-.022-.059.057a9.335,9.335,0,0,1-2.137-.915q-2.018-1.149-2.136-1.272a6.573,6.573,0,0,1-1.068-.754,1.254,1.254,0,0,1-.949-.631,1.955,1.955,0,0,0-.534-.14,4.892,4.892,0,0,1-1.128-.52Q570.7,567.415,570.349,567.4Z" transform="translate(510.814 -336.802)" fill="#fff"/>
    <path id="Path_295" data-name="Path 295" d="M164.018,601.813V597.6h11.567V591.47h6.806V597.6h11.568v4.216H182.391q1.768,12.525,12.247,17.148v3.676Q182.8,618.961,179.122,611.2q-4.355,8.17-15.784,11.433v-3.676q10.75-4.756,12.114-17.148Zm11.689-29.974V555.1H163.454v-4.088h12.252V540.539h6.533v10.476h12.247V555.1H182.24v16.736Z" transform="translate(625.467 -341.823)" fill="#fff"/>
  </g>
</svg>
