<svg xmlns="http://www.w3.org/2000/svg" xmlns:xlink="http://www.w3.org/1999/xlink" width="750" height="476" viewBox="0 0 750 476">
  <defs>
    <clipPath id="clip-bg-quality-3-text-2x">
      <rect width="750" height="476"/>
    </clipPath>
  </defs>
  <g id="bg-quality-3-text-2x" clip-path="url(#clip-bg-quality-3-text-2x)">
    <g id="Group_76" data-name="Group 76" transform="translate(-11880 -4685)">
      <g id="Group_73" data-name="Group 73" transform="translate(11913.5 5089.371)">
        <rect id="Rectangle_44" data-name="Rectangle 44" width="241.189" height="38.688" fill="#26a792"/>
        <path id="Path_58" data-name="Path 58" d="M563.13,0V28.073h3.734V17.991a3.361,3.361,0,0,1,3.209-3.191,3.2,3.2,0,0,1,3.209,3.191V28.073h3.638V16.36c-.411-3.27-2.625-5.621-5.834-5.621a5.892,5.892,0,0,0-4.227,1.731V0Z" transform="translate(-398.851)" fill="#fff" fill-rule="evenodd"/>
        <path id="Path_59" data-name="Path 59" d="M160.52,0V28.116h3.737V18.033a3.359,3.359,0,0,1,3.209-3.191,3.2,3.2,0,0,1,3.209,3.191V28.116h3.632V16.4c-.411-3.27-2.625-5.621-5.834-5.621a5.887,5.887,0,0,0-4.23,1.734V0Z" transform="translate(-113.693)" fill="#fff" fill-rule="evenodd"/>
        <path id="Path_60" data-name="Path 60" d="M227.034,39.446a4.855,4.855,0,1,0,4.481,4.842A4.673,4.673,0,0,0,227.034,39.446Zm8.154,13.273V35.866h-3.647v1.776c-1.415-1.3-2.529-2.093-4.533-2.093-4.469,0-8.218,3.954-8.218,8.766s3.749,8.757,8.218,8.757a6.042,6.042,0,0,0,4.522-2V52.72Z" transform="translate(-154.964 -24.737)" fill="#fff" fill-rule="evenodd"/>
        <path id="Path_61" data-name="Path 61" d="M302.287,52.6l-.026-11.19A6.126,6.126,0,0,0,291.686,37.3V35.742H288.2V52.6h3.734l.018-9.9a3.327,3.327,0,0,1,6.651,0v9.9Z" transform="translate(-204.125 -24.619)" fill="#fff" fill-rule="evenodd"/>
        <path id="Path_62" data-name="Path 62" d="M358.324,47.28c0-2.67-1.861-4.143-4.469-4.629l-2.48-.541c-1.059-.179-2.366-.508-2.366-1.652,0-.833,1.056-1.521,2.36-1.521s2.553,1.055,2.553,1.889h4.084a6.427,6.427,0,0,0-6.535-5.225c-3.644,0-6.237,2.375-6.141,5.752.07,2.415,2.558,3.829,5.3,4.435l.9.182c1.928.274,3,.7,3.057,1.685.064,1.217-1,1.98-2.567,1.977A2.8,2.8,0,0,1,349,47.173h-3.9c.047,3.318,3.3,5.992,6.934,5.992S358.324,50.625,358.324,47.28Z" transform="translate(-244.427 -24.772)" fill="#fff" fill-rule="evenodd"/>
        <path id="Path_63" data-name="Path 63" d="M411.184,44.071a4.449,4.449,0,1,1-4.44-4.778,4.617,4.617,0,0,1,4.44,4.778Zm3.556-8.334h-3.4v1.682a6.3,6.3,0,0,0-4.857-2.059c-4.285,0-7.914,4.118-7.914,8.6,0,4.748,3.541,8.6,7.914,8.6a6.748,6.748,0,0,0,4.886-2.591v.3a5.172,5.172,0,0,1-3.2,4.9,4.826,4.826,0,0,1-5.512-1.448l-3.9.018a8.073,8.073,0,0,0,7.745,5.3c4.148,0,8.2-4.054,8.212-7.549v-.164Z" transform="translate(-282.298 -24.605)" fill="#fff" fill-rule="evenodd"/>
        <path id="Path_64" data-name="Path 64" d="M475.422,39.063V35.34a4.881,4.881,0,0,0-4.1,1.825V35.723h-3.5v16.85h3.822V42.05C471.709,40.441,473.36,39.139,475.422,39.063Z" transform="translate(-331.348 -24.59)" fill="#fff" fill-rule="evenodd"/>
        <path id="Path_65" data-name="Path 65" d="M504.722,39.383a4.887,4.887,0,1,0,4.437,4.866A4.665,4.665,0,0,0,504.722,39.383Zm8.151,4.866c0-4.836-3.638-8.76-8.121-8.76s-8.122,3.924-8.122,8.76,3.638,8.76,8.122,8.76,8.121-3.936,8.121-8.772Z" transform="translate(-351.752 -24.695)" fill="#fff" fill-rule="evenodd"/>
        <path id="Path_66" data-name="Path 66" d="M620.86,44.24c0,4.845,3.594,8.772,8.025,8.772a8.068,8.068,0,0,0,7.489-5.6H632.4a4.408,4.408,0,0,1-7.844-1.633h12.3a9.482,9.482,0,0,0,.055-1.521c0-4.845-3.591-8.775-8.022-8.775S620.86,39.394,620.86,44.24Zm8.086-5a4.369,4.369,0,0,0-4.139,2.984h8.3a4.307,4.307,0,0,0-4.16-2.984Z" transform="translate(-439.741 -24.689)" fill="#fff" fill-rule="evenodd"/>
      </g>
      <text id="頂尖工藝五金" transform="translate(11913.5 5062.453)" fill="#fff" font-size="25" font-family="YuGothicUI-Regular, Yu Gothic UI" letter-spacing="0.024em"><tspan x="0" y="0">頂尖工藝五金</tspan></text>
    </g>
  </g>
</svg>
