<svg xmlns="http://www.w3.org/2000/svg" xmlns:xlink="http://www.w3.org/1999/xlink" width="750" height="476" viewBox="0 0 750 476">
  <defs>
    <filter id="極靜質感生活" x="23.052" y="343" width="171" height="51" filterUnits="userSpaceOnUse">
      <feOffset dy="5" input="SourceAlpha"/>
      <feGaussianBlur stdDeviation="3" result="blur"/>
      <feFlood flood-opacity="0.6"/>
      <feComposite operator="in" in2="blur"/>
      <feComposite in="SourceGraphic"/>
    </filter>
    <clipPath id="clip-bg-quality-1-text-2x">
      <rect width="750" height="476"/>
    </clipPath>
  </defs>
  <g id="bg-quality-1-text-2x" clip-path="url(#clip-bg-quality-1-text-2x)">
    <g id="kronotex-logo" transform="translate(6 364.18)">
      <g id="Group_18" data-name="Group 18" transform="translate(0 0)">
        <rect id="Rectangle_45" data-name="Rectangle 45" width="267.228" height="112.098" fill="none"/>
      </g>
      <path id="Path_67" data-name="Path 67" d="M187.925,383.214V358.952H180.2V352.2h23.289v6.752h-7.725v24.262Z" transform="translate(-14.828 -324.047)" fill="#fff"/>
      <g id="Group_19" data-name="Group 19" transform="translate(27.81 27.638)">
        <path id="Path_68" data-name="Path 68" d="M225.8,383.1V352.2h17.8l3.891,6.409H233.7v5.379h10.414v6.352H233.7v6.409h13.1l-3.948,6.352Z" transform="translate(-62.145 -351.685)" fill="#fff"/>
        <path id="Path_69" data-name="Path 69" d="M281.413,383.1l-5.493-9.785-5.493,9.785H261.5l9.671-15.965L262.3,352.2h8.812l4.921,8.755,4.807-8.755H289.6l-8.869,14.935L290.4,383.1Z" transform="translate(-77.416 -351.685)" fill="#fff"/>
        <path id="Path_70" data-name="Path 70" d="M-44.063,383c-3.719-4.921-8.641-12.589-8.641-12.589h-.057V383H-60.2V352.5h7.439v12.474h.057l8.183-12.474h8.583L-46.3,367.149s4.921,7.267,11.559,15.851h-9.327Z" transform="translate(60.2 -351.813)" fill="#fff"/>
        <path id="Path_71" data-name="Path 71" d="M-1.3,358.337H-4.561v7.782h3.147c3.2,0,4.692-1.545,4.692-4.006,0-2.4-1.2-3.777-4.578-3.777M3.622,383,.188,374.359c-.629-1.659-1.431-2.518-2.632-2.518H-4.561V383H-12V352.5H-.727c6.581,0,11.387,2.289,11.387,8.984,0,4.349-3.033,6.867-5.951,7.9v.057s1.488.4,2.747,3.147l4.578,10.472H3.622Z" transform="translate(39.581 -351.813)" fill="#fff"/>
        <path id="Path_72" data-name="Path 72" d="M50.311,365.434c0-5.608-1.717-8.183-5.379-8.183-3.6,0-5.436,2.575-5.436,8.183V369.1c0,5.608,1.717,8.183,5.379,8.183,3.605,0,5.436-2.575,5.436-8.183ZM44.7,383.23c-10.758,0-12.7-6.066-12.7-16.022,0-9.842,2.346-15.908,13.161-15.908,10.758,0,12.7,6.066,12.7,15.908.057,9.9-2.289,16.022-13.161,16.022" transform="translate(20.759 -351.3)" fill="#fff"/>
      </g>
      <path id="Path_73" data-name="Path 73" d="M100.209,383,89.795,363.658h-.057L89.795,383H83.1V352.5H91l10.357,19.341h.114L101.3,352.5h6.809V383Z" transform="translate(26.709 -324.175)" fill="#fff"/>
      <g id="Group_20" data-name="Group 20" transform="translate(27.753 27.638)">
        <path id="Path_74" data-name="Path 74" d="M151.011,365.434c0-5.608-1.717-8.183-5.379-8.183-3.6,0-5.436,2.575-5.436,8.183V369.1c0,5.608,1.717,8.183,5.379,8.183,3.605,0,5.436-2.575,5.436-8.183Zm-5.608,17.8c-10.758,0-12.7-6.066-12.7-16.022,0-9.842,2.346-15.908,13.161-15.908,10.758,0,12.7,6.066,12.7,15.908,0,9.9-2.346,16.022-13.161,16.022" transform="translate(-22.261 -351.3)" fill="#fff"/>
        <path id="Path_75" data-name="Path 75" d="M151.308,440.287v-5.779h-3.891v1.774h1.717v2.747a3.206,3.206,0,0,1-1.717.4c-1.431,0-2.4-.858-2.4-3.433v-1.545c0-2.174.916-3.433,2.976-3.433a7.916,7.916,0,0,1,3.033.687l.057-1.946a7.1,7.1,0,0,0-3.262-.687c-4.12,0-5.207,2.575-5.207,6.18s.687,6.066,4.578,6.066a7.725,7.725,0,0,0,4.12-1.03m-14.477.8V429.3h-2.174l.057,8.183h0L130.25,429.3h-2.518v11.788h2.174v-8.183h0l4.463,8.183ZM121.323,429.3h-2.346v11.788h2.346Zm-8.011,0h-2.346l-2.632,9.728h0l-2.575-9.671h-2.518l3.6,11.788h2.976Zm-15.736,0H95.23v11.788h2.346Zm-8.068,11.788V439.2H85.159v-9.9H82.813v11.788Zm-24.491-8.24c0,1.087-.687,1.774-2.117,1.774H61.469v-3.491h1.545c1.431,0,2,.629,2,1.717m2.976,8.24-1.774-4.234c-.4-.8-.858-1.087-1.03-1.087h0a3.153,3.153,0,0,0,2.346-3.033c0-2.518-1.659-3.433-4.234-3.433H59.237v11.788h2.346v-4.521h1.144c.572,0,.916.4,1.144,1.03l1.431,3.491Zm-17.109-5.15c0,2.289-.8,3.433-2.518,3.433-1.659,0-2.4-1.144-2.4-3.433v-1.545c0-2.289.858-3.433,2.518-3.433s2.4,1.144,2.4,3.433Zm2.346-.744c0-3.662-.687-6.18-4.749-6.18-4.006,0-4.921,2.4-4.921,6.18,0,3.662.687,6.18,4.749,6.18,4.063-.057,4.921-2.518,4.921-6.18m-14.992-3.948v-1.888H31.656v11.788H34v-4.578h3.891v-1.946H34v-3.376Zm-21.63,6.466c0-1.888-1.087-2.861-2.976-3.6l-.458-.172c-1.087-.4-1.717-.8-1.717-1.659,0-.916.687-1.431,1.774-1.431a7.437,7.437,0,0,1,2.747.687l.057-2a8.225,8.225,0,0,0-2.976-.629c-2.575,0-4.063,1.43-4.063,3.262,0,2,1.03,2.976,2.861,3.662l.458.172c1.03.4,1.774.858,1.774,1.659,0,.858-.629,1.545-2.117,1.545A6.444,6.444,0,0,1,9,438.342l-.172,2.174a7.655,7.655,0,0,0,3.262.687c3.033.114,4.521-1.488,4.521-3.491M.642,432.848c0,1.087-.687,1.774-2.117,1.774H-2.906v-3.491h1.545c1.431,0,2,.629,2,1.717m2.918,8.24-1.774-4.234c-.4-.8-.858-1.087-1.03-1.087h0A3.153,3.153,0,0,0,3.1,432.734c0-2.518-1.659-3.433-4.234-3.433H-5.2v11.788h2.346v-4.521H-1.7c.572,0,.916.4,1.144,1.03l1.431,3.491Zm-17.167-5.15c0,2.289-.8,3.433-2.518,3.433-1.659,0-2.4-1.144-2.4-3.433v-1.545c0-2.289.858-3.433,2.518-3.433s2.4,1.144,2.4,3.433Zm2.461-.744c0-3.662-.687-6.18-4.749-6.18-4.006,0-4.921,2.4-4.921,6.18,0,3.662.687,6.18,4.749,6.18,4.063-.057,4.921-2.518,4.921-6.18m-17.567.744c0,2.289-.8,3.433-2.518,3.433-1.659,0-2.4-1.144-2.4-3.433v-1.545c0-2.289.858-3.433,2.518-3.433s2.4,1.144,2.4,3.433Zm2.4-.744c0-3.662-.687-6.18-4.749-6.18s-4.921,2.4-4.921,6.18c0,3.662.687,6.18,4.749,6.18,4.063-.057,4.921-2.518,4.921-6.18m-14.821,5.894V439.2h-4.349v-9.9h-2.346v11.788Zm-12.589-9.842v-1.888H-60.3v11.788h2.346v-4.578h3.891v-1.946h-3.891v-3.376Z" transform="translate(60.3 -384.496)" fill="#fff"/>
      </g>
    </g>
    <g transform="matrix(1, 0, 0, 1, 0, 0)" filter="url(#極靜質感生活)">
      <text id="極靜質感生活-2" data-name="極靜質感生活" transform="translate(32.05 374)" fill="#fff" font-size="25" font-family="YuGothicUI-Regular, Yu Gothic UI" letter-spacing="0.024em"><tspan x="0" y="0">極靜質感生活</tspan></text>
    </g>
  </g>
</svg>
