<svg xmlns="http://www.w3.org/2000/svg" xmlns:xlink="http://www.w3.org/1999/xlink" width="108" height="214" viewBox="0 0 108 214">
  <defs>
    <clipPath id="clip-banner-2-text-4">
      <rect width="108" height="214"/>
    </clipPath>
  </defs>
  <g id="banner-2-text-4" clip-path="url(#clip-banner-2-text-4)">
    <g id="_04" data-name="04" transform="translate(0 28.235)" style="mix-blend-mode: multiply;isolation: isolate">
      <path id="Path_356" data-name="Path 356" d="M1800.883,1391h.356l.483.495a4.861,4.861,0,0,1,.517.609,1.022,1.022,0,0,1,.184.6,2.159,2.159,0,0,1-.022.3l-.38,1.252-.7.173v-.276l-.747-1.574.092-.092a.521.521,0,0,0,.126-.367v-.541l-.161-.333.253-.092Zm.31-4.527h.633l1.263.586.323,1.241-.253.252-.851-.367-.552.207-.39-1.229.322-.115v-.15Zm7.067,18.006v-.368l-.988-1.563.528-.23.092-3.137-.069-1-.672,1.017q-.294.442-.563.775a7.682,7.682,0,0,1-.638.69,4.745,4.745,0,0,0-.707.15,2.793,2.793,0,0,0-.569.241q-.575.31-1.218.678l-1.068.609.838-.9q1.08-1.149,2.149-2.355a6.894,6.894,0,0,0,1.356-2.241,2.314,2.314,0,0,1-.839.241,8.689,8.689,0,0,0-.988.161l-.953-1.229-.633-.506.38-.08a5.242,5.242,0,0,0,1.379-.437c.053-.031.1-.062.149-.092v-.276h.828l1.494.368.218-.046-.368-.378-.437-1.011.183-.07a.281.281,0,0,0,.173-.253,3.775,3.775,0,0,0,.045-.563v-.184h.368v-.184l1.516.2.333.356.208.908-.219.678h.161l.54-.3.288-.39h.735l1.494.46.367.333v.54h-.1l.173.172q-.562.185-.828.253-.551.15-1.189.258t-1.385.281l-.023.058a14.647,14.647,0,0,0,2.27,2.258,14.8,14.8,0,0,0,2.659,1.695l2.3.931.2.54-1.781.218-.437-.092-.8.092a6.267,6.267,0,0,1-2.086-.965,20.446,20.446,0,0,1-1.856-1.482l-1.023-1.448-.356,5.838.127.586Zm4.62-11.675v-.333l.528-1.068-.069-.495h-.873q-2.138.46-4.31.724t-4.447.448l-1.115-.38.333-.333-.184-.138.667-.275.207-.413h1.183l.552.092q1.931-.161,3.78-.437a34.476,34.476,0,0,1,3.85-.345l.505.069.541-.126v-.126h.666a4.884,4.884,0,0,0,.942.4,2.761,2.761,0,0,1,.988.505l.046.035.264.793-.368.1-.1.207h-.115v.31a4.67,4.67,0,0,0-.7.333,6.22,6.22,0,0,0-.586.4,1.618,1.618,0,0,1-1.033.345,1.812,1.812,0,0,1-.483-.069Zm-9.043-6.389c0-.137,0-.275-.012-.413l-.54-.77h.678l-.552-.46h.632l.988.368h1.482l1.287.287.138,1.011-1.229.23-.322-.172-.873.378-.07.69c.3.046.6.08.919.1a2.007,2.007,0,0,1,1.115.425l.058.046.149.747h-.643q-.345-.275-.643-.47v.126l-.529.276-.8-.413-.3.7-.85.253v.058h-.276l-.563.793-.3-.208a5.548,5.548,0,0,0,.851-1.885A7.017,7.017,0,0,0,1803.837,1386.42Zm2.149-.873-.552-.126.07.851.264-.518-.022-.172Zm2.987-1.39v-.184h.39l-.3-.437h.483l.873.506.241-.081.345.173.2,1.631-.035.311.506-.943a.9.9,0,0,1,.54-.31,3.554,3.554,0,0,1,.575-.046h.023l1.378.31.138,1.011-.172.035a6.878,6.878,0,0,0-1.609.471l-1.482.632-.219.495.092.356-.689,1.31a6.687,6.687,0,0,0-1.252.448c-.384.184-.781.36-1.2.529l-.47.2.448-.85a3.391,3.391,0,0,0,.925-.689,2.269,2.269,0,0,0,.523-.908l.183-2.056a7.509,7.509,0,0,1-.31-.885A3.768,3.768,0,0,1,1808.973,1384.157Zm-1.241,3.034v-.46h.425l-.39-.391,1.333-.15.1.288h.23v.8h-.506l-.138-.07v.093l-.552.287Zm4.826,1.425a2.211,2.211,0,0,1-1.3-.4l-.034-.022-.173-.3.4-.54h1.011l1.47.4.23,1.137h-.437A2.584,2.584,0,0,0,1812.558,1388.615Z" transform="translate(-1797.872 -1383.536)" fill="#3f3b34"/>
      <path id="Path_357" data-name="Path 357" d="M1811.625,1428.5v.207h-.39l-.138-.3h-.207l-.069-.69h-.127a17.352,17.352,0,0,1-2.275.62,12.705,12.705,0,0,1-2.471.23h-.092l-.552-.793-.288-.115-.092-.965-.38-.368v-.126l-.437-.218-.023-.092a2.913,2.913,0,0,0-.775-1.516q-.627-.667-1.328-1.368l-.483-.758h.437l1.838.735,1.551-1.241.322-.138.093-.252q1.677-.391,2.878-.65t2-.454q.8-.2,1.66-.448l2.632,1.034.31.643-.873.9q-.231,1.564-.575,3.132a11.114,11.114,0,0,1-1.115,2.971l-.046.08-.6.08-.368-.149Zm-2.666-10.136a5.058,5.058,0,0,1-2.241.552c-.161,0-.33-.007-.506-.022l-.907-.253a10.206,10.206,0,0,1-.621-1q-.253-.472-.517-.885h-.218l-.023-.161a2.077,2.077,0,0,0-.528-1.178,10.929,10.929,0,0,1-.851-1.12l-.3-.093v-.712h.448l.62.264.173-.137.16.08a16.374,16.374,0,0,1,3.333-1.425,27.56,27.56,0,0,1,3.6-.828,3.46,3.46,0,0,1,1.448.425q.621.357,1.334.69l.1.7-.989.39a22.629,22.629,0,0,0-.879,2.437,10.446,10.446,0,0,1-1.074,2.413l-.08.138-.253-.1-.241.322-.322-.184-.437.977v-1.218l-.023-.07Zm2.206,5.056v.322l-.46.069v.207l-4.608,1.16-.011.046a2.238,2.238,0,0,1,.385.822q.108.454.27.948l-.046.184.322.092,3.746-.816.092-.207.333-.08.207-1.379q-.068-.908-.1-1.851a7.822,7.822,0,0,0-.23-1.643l-.08-.023q-1.966.6-3.9,1.218l-1-.46a2.913,2.913,0,0,0-.656.2,1.209,1.209,0,0,0-.23.218l-.126.46.092.575-.483.16.15.08.62.426,2.229-.586a16.177,16.177,0,0,1,2.448-.46l1.034.161Zm-1.793-9.17h.035l.023.012.057-.586-.115-.735h-.127l-2.171.781-.426-.276-.264-.345h-.322l-.368.184-.54,1.172.1.46h-.276v.012l.437.161q.874-.311,1.85-.563A8.021,8.021,0,0,1,1809.373,1414.25Zm-.184,2.861v-.39l.207-1.482h-.207a6.538,6.538,0,0,1-1.644.528,10.594,10.594,0,0,0-1.573.4v.207l.4,1.161h.54Z" transform="translate(-1797.974 -1386.579)" fill="#3f3b34"/>
      <path id="Path_358" data-name="Path 358" d="M1800.922,1455.214h-.207v-.39l.437-.138v-.15a3.579,3.579,0,0,0,.46-.207,2.407,2.407,0,0,0,.793-.69l.057-.08h.115l.069-.23h.253v-.023a4.421,4.421,0,0,0-.655-1.448,8.236,8.236,0,0,0-1.172-1.378l-.333-.322h.563l.907.344,1.011-.93v-.2l1.517-.667v-.034l-.173-1.034a7.657,7.657,0,0,0,.747-1.654,13.981,13.981,0,0,0,.4-1.7l-.08-.172-.241-.035-.908.31-.265-.253a13.325,13.325,0,0,1-.413,1.965,4.186,4.186,0,0,1-1.379,2.034l-.655.275v-.39a6.546,6.546,0,0,0,.713-2.414q.114-1.252.207-2.6a2.649,2.649,0,0,1-.356-1.218,3.414,3.414,0,0,0-.252-1.172l-.1-.253h.368l.069.011-.265-.667.85.609.391.426.54.034-.345-.8h.563l.046.058a.541.541,0,0,0,.367.172h.552l2.425-.781v-.2l-.241-.368-.183-.08q-.162-.54-.328-.96a4.254,4.254,0,0,1-.247-.971l.333-.437h.505a.583.583,0,0,0,.276.092.454.454,0,0,0,.12-.017.466.466,0,0,1,.58.35l.713,2.08h.288l1.022-.471,2.011.586v.39h-.1l-.092.46h-.16l-.081.2-2.367.677v.127a47.511,47.511,0,0,0,2.379,5.9l.058-2.046-.368-1.034-.609-.482,1.334-.138,1.068.494a1.962,1.962,0,0,1,.38.839,4.674,4.674,0,0,1,.08.827v.023l-.816,3.528a21.129,21.129,0,0,1,1.511,3.137,16.624,16.624,0,0,0,1.58,3.1l.08.012.563-1.632.172.506a3.8,3.8,0,0,1,.207,1.063,9.94,9.94,0,0,0,.138,1.155l-.1.23.1.643-.379.38-.9-.356-.506-.425a32.854,32.854,0,0,1-1.7-3.01l-1.482-2.965-.035-.012-.391.506-1.08,1.344q-2.31.919-4.671,1.827t-4.866,1.815Zm2.356-4.332a7.242,7.242,0,0,1,1.31,2.309h.138l.242-.1v-.218a5.164,5.164,0,0,1-.161-1.287v-1.115l-1.045-.368-.414.46Zm1.068-9.342a1.425,1.425,0,0,1,.23.9v.012l-.057.426h.2l1.379-.656.31-.413.965-.16,1.081.551-.391-.931h-.379q-.679.138-1.3.322a3.243,3.243,0,0,1-.988.15,4.129,4.129,0,0,1-.517-.035l-.529-.207Zm1.678,9.825q-.08.39-.183.781a2.04,2.04,0,0,1-.333.7l.322-.137A4.465,4.465,0,0,0,1806.023,1451.365Zm-.022-1.311.022.184v-.218Zm3.171-2.792h.241a3.02,3.02,0,0,1,.885.288,4.763,4.763,0,0,0,.518.23,13.064,13.064,0,0,1-1.063-2.269q-.421-1.179-.914-2.374l-.045.241h-.656a16.213,16.213,0,0,0-1.068,2.465,17.166,17.166,0,0,1-1.011,2.4l2.309-.633v-.057l.77-.288Zm-1.608,2.034a.626.626,0,0,1,.184.46v.609q-.138.551-.253,1.057a2.206,2.206,0,0,1-.483.943l1.058-.4v-.115l.161-2.436-.138-.2h-.333Zm2.378,2.092.7.1v-.012l.035-.046a4.374,4.374,0,0,0,.592-1.115,5.42,5.42,0,0,0,.281-1.206l-.138-.115a.761.761,0,0,1-.483.265.42.42,0,0,0-.3.172Zm5.136-10.239a1.3,1.3,0,0,0-.62-.241.79.79,0,0,0-.23.035l-.23.045v-.23a5.062,5.062,0,0,0-.109-1.074q-.111-.5-.248-.983l-.471-.23-.137-.609h.919a1.951,1.951,0,0,1,1.092.333,4.937,4.937,0,0,1,.885.724l.207.666h.207v.919h-.3l-.138.322-.747.368Z" transform="translate(-1797.888 -1389.302)" fill="#3f3b34"/>
      <path id="Path_359" data-name="Path 359" d="M1802.2,1473.557c-.108,0-.226,0-.356-.012l-.862-.252-.229-.333-.644-.23-.31-.747c.276.023.448.035.517.035a1.824,1.824,0,0,0,1.034-.3,2.459,2.459,0,0,1,1.4-.425h.011l1.011.08.022-.115-.437-1.425.345-.115.058.172.747.528.505.575h.126q.862-.23,1.678-.413a14.7,14.7,0,0,1,1.678-.276v-.264q-.3-.77-.563-1.54a5.267,5.267,0,0,1-.287-1.782v-.184h.368l.908,1.7,1.01.873.426.885.908.058.218-.035v-.241l-.322-.23v-.069h-.07v-.368a5.492,5.492,0,0,0,.1-.661,1.832,1.832,0,0,1,.184-.648l-.07-.322.138-.322h.184l.092-1.1h.356l.184.356.218.092.322.609.655.172.2,1.2-.184.31h-.08l-.115,1.195h.31l.816-.264a6.165,6.165,0,0,0,1.643.3,3.68,3.68,0,0,1,1.643.448l.092.057v.333l-.092-.092v.276h-.207l.092.575-.815.207a13.024,13.024,0,0,0-1.787-.2q-.879-.035-1.741-.093l-.552,4.321-1.034.218-.333-.575h-.264l-.414.092-.253-.045.173.85-.885.23-.391-.356v-.057l-.252-.15-.713-1.609.046-.08a2.112,2.112,0,0,0,.264-1.068c0-.038-.005-.192-.017-.46s-.018-.628-.018-1.081l-.034-.1h-.011l-2.414.666v.15l.781,2.344v3.976a14,14,0,0,1,2.747-.495q.907-.069,1.678-.069.988,0,1.368.022l.919.093,1.092-.161a9.111,9.111,0,0,0,1.643.31,6.254,6.254,0,0,1,1.7.391l.931.356h-.977v.16l-.241.183.241.426c-.192.092-.326.153-.4.184a1.852,1.852,0,0,1-.506.12,6.537,6.537,0,0,1-.678.029h-.022a14.278,14.278,0,0,0-2.862-.356q-1.471-.035-2.953-.2a9.62,9.62,0,0,1-2.276.505,4.7,4.7,0,0,0-2.1.736l-.081.046-.574-.23c-.023-.1-.041-.167-.052-.2s-.025-.07-.041-.109a1.046,1.046,0,0,0-.137-.173c-.108-.1-.173-.16-.2-.184a1.887,1.887,0,0,1-.355-.494l-.081-.15.781-.494.058-.379q-.231-1.459-.385-2.97a10.276,10.276,0,0,0-.661-2.775h-.069q-.541.23-1.1.431A3.3,3.3,0,0,1,1802.2,1473.557Zm8.48-2.033a3.352,3.352,0,0,0-.253,1.3q0,.69-.057,1.39l.413.069.333-.115a14.837,14.837,0,0,0,.275-2.643Z" transform="translate(-1797.788 -1392.533)" fill="#3f3b34"/>
      <path id="Path_360" data-name="Path 360" d="M1802.46,1508.945v-.253l-.828-.839-.264-.942a11.137,11.137,0,0,0,.345-2.511q.035-1.316.034-2.626l-.425-2.287q-.735,1.425-1.54,2.8a16.951,16.951,0,0,1-1.919,2.637l-.322.355v-.608a36.208,36.208,0,0,0,2.631-4.728,23.225,23.225,0,0,0,1.655-5.039l-.46-1.493.39-1,.529-1.286h.367l.69.713h.586a.931.931,0,0,1,.7.287l.034.035.127.413a18.971,18.971,0,0,1-.885,2.787q-.54,1.327-1.183,2.694l-.518.506v.344a5.927,5.927,0,0,1,.891,1.844,7.653,7.653,0,0,1,.281,2.1v.012l-.08.518.08.218v.034a9.157,9.157,0,0,1-.161,1.781,14.622,14.622,0,0,0-.23,1.736l.173,1.608Zm7.562-17.639a.864.864,0,0,1-.2-.563c0-.038,0-.084.006-.137s.005-.115.005-.184a1.486,1.486,0,0,0-.045-.379l-.023-.138.643-.345v-.368h.345a1.507,1.507,0,0,0,.1.126.374.374,0,0,0,.276.1h.723v.161H1812l.16,1.241h.035l.552-.208a1.028,1.028,0,0,1,.518-.218,4.6,4.6,0,0,1,.528-.034h.045l.046.023a1.068,1.068,0,0,0,.552.149,1.619,1.619,0,0,0,.253-.023,2.222,2.222,0,0,1,.333-.022,2.107,2.107,0,0,1,.69.115l.126.046v.173h.39v.367l-.1.046a4.693,4.693,0,0,1-2.079.54,7.754,7.754,0,0,0-1.942.31l-.058.689h.391a1.309,1.309,0,0,0,.465-.247.71.71,0,0,1,.466-.167h.011v-.138h.448a5.789,5.789,0,0,0,1.31.31,3.518,3.518,0,0,1,1.321.4l.069.034.115.414-.322.413-.4.207a11.726,11.726,0,0,1-.54,2.172,11.236,11.236,0,0,0-.529,2.114l.518.218.1.931h-.207l-.092.322h-.38l-.873-.07.3.656-.023.069,1.149.057,2.666-.3,2.034.425v.184l.69.3-.506.138a10.959,10.959,0,0,1-2.993.4,30.4,30.4,0,0,0-3.051.15,6.2,6.2,0,0,1-.252,1.138,4.119,4.119,0,0,0-.184,1.263l.138,3.355-.068,1.379.137.437h-.241l.322.471-1.529-.528v-.356l-.322-.253a1.3,1.3,0,0,0,.046-.253.492.492,0,0,0-.08-.264,2.909,2.909,0,0,0-.345-.437l-.426-.414,1.229.23.15-2.976-.241-2.551h-.333q-3.286.965-6.423,2.033l-.495-.207v-.137l-1.574-.333,1.413-.495v-.425a19.836,19.836,0,0,0,2.552-.471q.575-.138,1.126-.322a28.6,28.6,0,0,1,3.332-.9v-.322l-.115-.839h-.023l-4.286,2.092-.252-.713.207-.6q.69-.287,1.206-.54a5.054,5.054,0,0,0,1.034-.69l.08-.31a1.764,1.764,0,0,1-.7.138h-.942l-.023-.161a2.071,2.071,0,0,0-.345-.931,3.8,3.8,0,0,1-.517-1.115l.069-.24a1.037,1.037,0,0,0-.224-.437,2.71,2.71,0,0,1-.315-.47h-.23v-.241l-.828-.518h.644q.356,0,.574-.017c.145-.012.236-.021.27-.029a.746.746,0,0,0,.1-.028.982.982,0,0,0,.092-.04.631.631,0,0,0,.092-.058,1.156,1.156,0,0,0,.2-.138l.092-.241h.345l.471,1.276.632.058.69-.184.068-.988-.632.23-.575-.552h-.276v-.563l.218.035a.967.967,0,0,0,.208.022,1.254,1.254,0,0,0,.47-.092q.334-.126.609-.253l.046-.815-.345-.058-2.632.873-.08-.08a.728.728,0,0,0-.471-.207.829.829,0,0,1-.632-.345l-.161-.23.908-.183v-.115l.08-.046a3.181,3.181,0,0,1,1.644-.54,7.513,7.513,0,0,0,1.471-.23Zm-2.505,12.618h1.011l2.586,1.195.425.713h-.3v.149l-1.379.1a5.284,5.284,0,0,1-1.006-.46,4.362,4.362,0,0,1-.913-.724ZM1810,1496.8h-.207v-.23l-.506.058v.356l.207.85h.437l.184-.1.057-.265Zm3.217,2.494v-.138l.126-.31a4.115,4.115,0,0,0-.552-.483.758.758,0,0,0-.3-.092l-.735.276-.126.367,1.172-.367v.448l-.127.287-.058.011.07.012.425-.08Zm-1.287-5.413-.229.988.379.093.943-.093.287.058.069-.747-.253-.426-.563-.08Zm.046,3.494,1.126-.356a2.22,2.22,0,0,0,.15-.666q.023-.345.034-.712a1.864,1.864,0,0,1-.827.39q-.357.07-.736.126v.046l.23.792-.057.38Z" transform="translate(-1797.542 -1395.056)" fill="#3f3b34"/>
      <path id="Path_361" data-name="Path 361" d="M1808.3,1534.9l.012.39a.855.855,0,0,1-.528.8l-.115.057-.093-.092a5.957,5.957,0,0,1-.585-.655,1.465,1.465,0,0,1-.3-.9v-.138l.311-.092q.275-2.666.287-5.746h-.1l-1.7.311-1.206-.656,2.654-1.4.08-.6h-.115l-1.125.241-.9-.655v-.39l.16-.023a2.1,2.1,0,0,0,.983-.351,5.858,5.858,0,0,1,.925-.511l.046-.172-.035-.207h-.528l-.633.1-.287-.138.012.023-.758.413-.208.724.07.275v.023a7.011,7.011,0,0,1-1.276,4.143,27.261,27.261,0,0,1-2.884,3.441l-.758.495v-.483a21.82,21.82,0,0,0,2.068-3.654,8.273,8.273,0,0,0,.69-3.379c0-.23-.007-.46-.023-.689l-.115-.333-.115-.034-.528.413a1.313,1.313,0,0,1-.8.264h-.046l-.356-.2-.356-.333h-.253v-.39l.207-.437h.138l.058-.184a6.983,6.983,0,0,1,.712-.264q.277-.082.471-.127a1.955,1.955,0,0,0,.816-.368,1.1,1.1,0,0,1,.793-.31c.03,0,.132.005.3.017s.377.017.615.017h.022l.781.184v-.207l1.747-.46v-1.2h.528l1.011-2.206a6.915,6.915,0,0,1-1.241.495,4.8,4.8,0,0,1-.6.115l-.092-.069-1.138.23-.069-.069a.892.892,0,0,0-.575-.276,1.865,1.865,0,0,1-.77-.218l-.057-.034-.15-.471.77-.265.069-.241,2.126-.39.506.068a9.075,9.075,0,0,1,2.734-.46v-.069h.345l2.137.495v.7a21.7,21.7,0,0,1-2.39,1.529q-1.161.632-2.252,1.3l-.035.08a2.566,2.566,0,0,0,.965.184h.276a2.534,2.534,0,0,1,1.3.356l.069.046.115.517-1.483,1.011-.023.081h.862l2.184-2.126.4-1.057.989-.08c.3.046.552.078.758.1a4.337,4.337,0,0,1,.442.058,1.265,1.265,0,0,1,.259.086,1.919,1.919,0,0,1,.459.252l.058.046.092.494-.115.264a12.766,12.766,0,0,1-2.321,1.184,9.47,9.47,0,0,0-2.149,1.137l-.035.161.724.793a8.805,8.805,0,0,0,1.35,2.758,28.036,28.036,0,0,0,2.005,2.425l3.194,1.62v.184l.6.459-1.241.115a6.581,6.581,0,0,1-2.626-.66,9.814,9.814,0,0,1-2.224-1.511l-2.229-3.207h-.092l-1.459.69-.287,4.573.138,1.621A4.086,4.086,0,0,0,1808.3,1534.9Zm.368-8.63.873.069a3.166,3.166,0,0,0-.518-.735.578.578,0,0,0-.092-.058l-.207.161Z" transform="translate(-1797.778 -1398.156)" fill="#3f3b34"/>
      <path id="Path_362" data-name="Path 362" d="M1808.961,1560.16v.275h-.712v-.149a2.144,2.144,0,0,1-.546-.937,3.934,3.934,0,0,1-.143-1.051v-.035a4.645,4.645,0,0,0,.276-1.6v-1.758a11.871,11.871,0,0,0-.208-1.368,1.943,1.943,0,0,0-.6-1.034l-.115-.034-2.229,3.114h-.161l-.643.942-.161.046v.161l-.31.08-.057.2h-.414v-.069h-.069a.915.915,0,0,1-.448.235,3.1,3.1,0,0,1-.54.04h-.391l.253-.3a15.958,15.958,0,0,0,1.276-1.746h.149l.575-.828.4-.437a16.982,16.982,0,0,1,1.1-1.672,4.376,4.376,0,0,0,.793-1.718l.022-.1.23-.08a14.841,14.841,0,0,1,.626-1.385,4.437,4.437,0,0,0,.454-1.546l.022-.161h.161v-.16h-.058a27.467,27.467,0,0,1-4.929,1.321l-1.471-.655v-.356l.93-.528.093-.2q2.435-.458,4.677-1.005a24.121,24.121,0,0,1,4.688-.649l.138-.275h.8v-.161h.093v-.16h.425l1.734.758v.149l1.126.621.161.7h-.23c-.069,0-.145.061-.23.183a.542.542,0,0,1-.46.276.51.51,0,0,1-.183-.035,13.753,13.753,0,0,0-2.856-.288q-1.5,0-3.005-.069a2.491,2.491,0,0,1-.38.092l1,.241.1.517a19.757,19.757,0,0,1-1,2.012q-.505.873-.93,1.735a3.125,3.125,0,0,1,.838.8,8,8,0,0,1,.655,1.051l.15.919-.069,1.184.092.275-.092.1V1559l.172,1h-.172v.161Zm7.332-5.631q-1.4-.781-2.717-1.672t-2.592-1.856l-.437-.7.851-.138a12.769,12.769,0,0,1,2.941.948,12.052,12.052,0,0,1,2.632,1.7l.413.827-.1.425-.586.265Z" transform="translate(-1797.93 -1401.078)" fill="#3f3b34"/>
      <path id="Path_363" data-name="Path 363" d="M1803.768,1583.249v-.241l-.034-.081h-.07l-.437-1.252.345-1.414h.035v-.034a13.017,13.017,0,0,0-.678-3.022,5.943,5.943,0,0,0-1.85-2.552l-.39-.322h.643c.329.168.659.326.988.471a2.276,2.276,0,0,0,.863.218l.908-1.068-.115.667a.851.851,0,0,0-.023.2.719.719,0,0,0,.08.345,1.4,1.4,0,0,1,.173.713v.022l-.035.161.31.08a11.044,11.044,0,0,0,1.626-.6,5.157,5.157,0,0,1,1.787-.448l.2-.012v.4l-.356.632-.241.081-.126.172-.172.288q-.69.183-1.3.333a3.994,3.994,0,0,1-.919.1c-.077,0-.158,0-.241-.011v.908h.011a11.343,11.343,0,0,1,1.6-.495q.839-.2,1.908-.39v.448l-.23.275v.288a6.512,6.512,0,0,1-.833.4,5.841,5.841,0,0,1-.775.241,5.562,5.562,0,0,0-1.4.517l-.045.276.183.988-.138.08.253.2v.3h.011l3.367-1.173.069-2.161a12.757,12.757,0,0,0-.322-2.166,15.672,15.672,0,0,1-.356-2.223h-.092a2.747,2.747,0,0,0-.816.482,4.571,4.571,0,0,1-.885.575l-.183.092-.632-1.8.126-.15a.912.912,0,0,1,.31-.213.825.825,0,0,1,.3-.063.715.715,0,0,1,.276.058l.322.057a4.561,4.561,0,0,0,1.16-.465,2.336,2.336,0,0,1,1.184-.3c.084,0,.184,0,.3.011l2.276.885v.518l-1,1.068-.31,1.827.229,1.5-.137,3.632-.241.149-.08.6h-.323l-.437-.356-.322-.494-.2.08-.161-.448h-.034l-.506.471v.379l-2.114,1.058v.138c-.223.03-.387.057-.494.08a2.808,2.808,0,0,0-.575.184,3.061,3.061,0,0,1-1,.288Zm-1.769,3.677v-.012l.161-1.954-.184-1.115.483-.2c.138.138.247.255.328.35s.159.194.235.293a1.267,1.267,0,0,1,.253.6l.39.161.093.919a.641.641,0,0,0-.161.1.321.321,0,0,0-.046.1,1.305,1.305,0,0,0-.034.287l.23,1.781-.126.322h-.241v.6h-.356l-.368-.38-.3-.575-.057-.057a.924.924,0,0,1-.253-.552A5.147,5.147,0,0,1,1802,1586.926Zm3.092-17.662h.23a1.552,1.552,0,0,1,.953.3l.069.057v.115l.208.069.092.528a2.533,2.533,0,0,1-.138.488c-.053.127-.108.24-.161.339a7.432,7.432,0,0,1-.482.712h-.115l-.345.667-.161-.057-.045.379-.023.161h-.322l-.2-.276-.219-.115h-.092l-1.655,2.012v-.621l1.069-2.482-.15-.528.322-2.011h.38l.057.035A1.152,1.152,0,0,0,1805.09,1569.265Zm-.15,15.639h.012a4.7,4.7,0,0,1,2.781,1.5,2.906,2.906,0,0,0,2.206.989,2.772,2.772,0,0,0,.437-.035l1.632-.356.138-1.551h.448v.069h.069v-.471l.4,1h.288v.092l1.275.218.311.448h.23v.425l-1.011,1.011a18.219,18.219,0,0,1-2.074.356q-1.029.115-2.04.253a5.737,5.737,0,0,1-3.126-1.207,16,16,0,0,1-2.5-2.447l-.253-.3Zm3.447-1.218h-.207v-.23l-.437-.218-.138-.609h.471l.356.069.379-.069a7.54,7.54,0,0,1,2.62.781l.735.575h-.345l.506.391h-.425v.069h-.276l.15.08.218.54h-.276a1.421,1.421,0,0,0-.643.1,1.327,1.327,0,0,0-.172.126l-.15-.057.115.126-.494.275c-.085-.092-.145-.155-.184-.19l-.138-.12a1.191,1.191,0,0,0-.3-.172,3.064,3.064,0,0,1-.713-.391l-.218-.505-.31-.081Zm8.688-2.712v.172l.252.058.333.9-.827.275-.241.241-.506-.08-.183.092-1.034-.494-1.528-1.724.965-.15.311.081.355-.081a2.848,2.848,0,0,1,1.034.368,2.19,2.19,0,0,0,.908.322Z" transform="translate(-1797.885 -1403.758)" fill="#3f3b34"/>
    </g>
  </g>
</svg>
