<svg xmlns="http://www.w3.org/2000/svg" xmlns:xlink="http://www.w3.org/1999/xlink" width="108" height="214" viewBox="0 0 108 214">
  <defs>
    <clipPath id="clip-banner-2-text-1">
      <rect width="108" height="214"/>
    </clipPath>
  </defs>
  <g id="banner-2-text-1" clip-path="url(#clip-banner-2-text-1)">
    <g id="_01" data-name="01" transform="translate(85.562)" style="mix-blend-mode: multiply;isolation: isolate">
      <path id="Path_332" data-name="Path 332" d="M1913.61,1370.588a.208.208,0,0,0-.173.078l-.3-.173h-.2l-.11-.536-.347-.142v-.2h-.126l-.221-.725-.078-.063h-.268V1367.4h-.126v-.568h.189l.173-.52-1.371-.079-5.3,1.325v.126l-.22.032a18.026,18.026,0,0,0-4.225,1.064,16.135,16.135,0,0,1-4.256,1v.11h-.725l-.142-.568-.426-.158a2.954,2.954,0,0,1-.914-1.466l-.441-.331v-.615c.073-.062.115-.1.126-.11a1.529,1.529,0,0,0,.449-.954c.037-.372.055-.775.055-1.205a3.184,3.184,0,0,1-.457-.891q-.158-.481-.394-1.049l.126-.992-.331-.662.126-.126a.516.516,0,0,0,.158-.379.5.5,0,0,0-.015-.109,5.109,5.109,0,0,1-.063-.789l-.142-.615.709-.2.363.441,1.5.426a18.744,18.744,0,0,0,.724,2.6,5.828,5.828,0,0,1,.348,2.018q0,.315-.032.646l-.078,1.624h.788q1.12-.41,2.286-.725a12.805,12.805,0,0,1,2.207-.441v-.016l-.442-.284-.031-.047a1.991,1.991,0,0,1-.252-1.009,1.449,1.449,0,0,0-.189-.756l-.158-.268.473-.142a13.379,13.379,0,0,0,.157-2.049v-2.349q.016-.22.016-.441a4.414,4.414,0,0,0-.3-1.639q-.364-.914-.82-1.813h-.41l.11-.331a.5.5,0,0,0-.094-.5,1.492,1.492,0,0,1-.3-.9v-.252h.6l.189.094.158-.441,1.23-.268,1.309.693.031.1a11.628,11.628,0,0,1,.473,2.995,15.329,15.329,0,0,0,.363,2.9q-.222,1.733-.268,3.42a15.814,15.814,0,0,1-.394,3.168l4.918-1.2v-.221l1.545-.284v.11h.22l.11-.031.142-.441h.489q.378.378.662.63a.522.522,0,0,0,.332.11h.078l.079-1.828-.268-.158-.252-.631.095-.379-.379-.189-.11-.883.284-1.119h.173l.221-1.371.347.347a1.921,1.921,0,0,0,1.041.536,6.424,6.424,0,0,1,1.418.441,2.454,2.454,0,0,1,.307.654,2.336,2.336,0,0,1,.087.639v1.2l-.094.867.094,1.308q-.317,1.781-.52,3.633a29.3,29.3,0,0,1-.662,3.729Z" transform="translate(-1893.575 -1351.845)" fill="#3f3b34"/>
      <path id="Path_333" data-name="Path 333" d="M1904.051,1397.254v.275h-.713v-.149a2.141,2.141,0,0,1-.545-.937,3.937,3.937,0,0,1-.144-1.051v-.034a4.626,4.626,0,0,0,.276-1.6V1392a12.033,12.033,0,0,0-.207-1.368,1.944,1.944,0,0,0-.6-1.034l-.115-.035-2.229,3.115h-.16l-.644.942-.16.046v.16l-.31.081-.058.2h-.413v-.069h-.069a.906.906,0,0,1-.448.236,3.166,3.166,0,0,1-.54.04h-.39l.252-.3a15.844,15.844,0,0,0,1.276-1.747h.15l.575-.827.4-.437a16.984,16.984,0,0,1,1.1-1.672,4.37,4.37,0,0,0,.793-1.718l.023-.1.23-.081a15.057,15.057,0,0,1,.626-1.385,4.411,4.411,0,0,0,.453-1.545l.023-.161h.16v-.16h-.057a27.493,27.493,0,0,1-4.93,1.321l-1.471-.655v-.356l.931-.529.092-.2q2.436-.46,4.677-1a24.066,24.066,0,0,1,4.688-.65l.138-.276h.8v-.16h.092v-.161h.425l1.736.759v.149l1.126.621.16.7h-.23q-.1,0-.23.184a.52.52,0,0,1-.643.241,13.746,13.746,0,0,0-2.855-.288q-1.5,0-3-.069a2.521,2.521,0,0,1-.38.092l1,.241.1.517a19.451,19.451,0,0,1-1,2.011q-.506.874-.931,1.736a3.113,3.113,0,0,1,.839.8,8.018,8.018,0,0,1,.655,1.051l.15.919-.07,1.183.092.276-.092.1v3.355l.173,1h-.173v.161Zm7.331-5.631q-1.4-.782-2.717-1.672t-2.591-1.855l-.437-.7.85-.138a12.781,12.781,0,0,1,2.942.948,12.026,12.026,0,0,1,2.631,1.695l.414.828-.1.425-.586.265Z" transform="translate(-1893.86 -1355.08)" fill="#3f3b34"/>
      <path id="Path_334" data-name="Path 334" d="M1899.105,1425v-.391h-.1l-.391-1.126a5.748,5.748,0,0,0,.219-1.115c.029-.352.045-.724.045-1.115l-.494-.988-.012-.012a4.657,4.657,0,0,1-1.011,1.436,5.823,5.823,0,0,1-.77.643h-.081l-.045.161-.989.735v-.517a28.178,28.178,0,0,0,2.512-4.895,31.894,31.894,0,0,0,1.533-5.091h-.3l-2.011.495-2.114-1.333.816-.345q.355-.172.643-.333a2.742,2.742,0,0,1,1.31-.345h.011l.62.092.46-.115.069.08a.3.3,0,0,0,.149.087.717.717,0,0,0,.15.018h.46l.2-.15a23.264,23.264,0,0,0,.345-2.356,13.5,13.5,0,0,1,.448-2.391l.035-.138h.4l.46.713h.276l.747-.127v.943q-.069.78-.11,1.511a4.716,4.716,0,0,1-.258,1.338l1.069-.4.172-.517,1.172-.081a3.426,3.426,0,0,0,1.068.173q.2,0,.425-.023c.153-.015.318-.023.495-.023a5.12,5.12,0,0,1,1.023.1l.138.035v.839l-.356.1-.069.126-.287.288-5.55,1.321a27.3,27.3,0,0,0-1.408,3.562,34.585,34.585,0,0,1-1.351,3.574,2.78,2.78,0,0,0,.781.575,1.647,1.647,0,0,1,.828.908l.1.6-.413,3.332h-.736l-.023-.035Zm2-2.827h-.183v-.563l.735-.173.1-.252h.138l.069-.391h.391l.931.07.827-.07.218.058.173-.035a6.24,6.24,0,0,0,.368-2c0-.161-.008-.322-.023-.483l-.035-.092h-.54l-.265.069a2.57,2.57,0,0,1-1.723-1.022l-.551-1h.482a8.222,8.222,0,0,0,.885.293,3.3,3.3,0,0,0,.862.121l.724-.265v-.207a1.691,1.691,0,0,1-.253-.9,2.549,2.549,0,0,1,.018-.281,3.056,3.056,0,0,0,.017-.339,2.7,2.7,0,0,0-.092-.7l-.035-.08.276-.379h.2l.2-.495.391.23.218.414,1.08.172.08,1.126-.069.241.012.1h.828a6.885,6.885,0,0,0,1.137.092,1.8,1.8,0,0,1,1.1.333l.069.058v.585l-.575.541-2.356.758-.069.494-.046.046a1.557,1.557,0,0,0-.413.965,4.3,4.3,0,0,1-.345,1.287l-.046.08,2.219-.253v-.345h.275a16.375,16.375,0,0,0,2.109.368,7.576,7.576,0,0,1,2.051.518l.115.045v.69l-.058.057a2.125,2.125,0,0,1-1,.552,5.236,5.236,0,0,1-1.1.114h-.023q-1.183-.229-2.333-.47a8.161,8.161,0,0,0-1.689-.173q-.321,0-.655.023l-3.815,1.034a2.657,2.657,0,0,0-.218-.276A1.06,1.06,0,0,0,1901.1,1422.17Z" transform="translate(-1893.741 -1357.749)" fill="#3f3b34"/>
      <path id="Path_335" data-name="Path 335" d="M1907.943,1449.172c0-.07.008-.188.023-.356l.437-.069.31-1.4V1445l-.218-1.138-.125-.1v-.183h-.138v-.345l.069-.058a18.716,18.716,0,0,0-3.447.771l-3.436,1.126-.115.114h-.3l-.264-.022-1.172.8v.011a2.736,2.736,0,0,1,.655.908,2.626,2.626,0,0,1,.265,1.149v.115l-.678.322-1.138-.781v-.1l-.172-.092-.023-.058a4.012,4.012,0,0,0-.793-1.195q-.529-.562-1.31-1.425h.46l1.344.425,1.54-.793-.643-.23q2.815-.747,5.073-1.328a27.108,27.108,0,0,1,4.763-.764l.207.046.31-.046.161.023.034-.093h.333a3.679,3.679,0,0,0,1.121.345,2.616,2.616,0,0,1,1.1.426l.034.022.356.633-1.046.413-.252.69c-.077.015-.119.023-.126.023a1.4,1.4,0,0,1,.011.183.645.645,0,0,1-.058.241q-.345,1.355-.723,2.7a21.614,21.614,0,0,1-.954,2.711l-.563.1v.552l-.333-.46a3.638,3.638,0,0,1-.42-.718A1.9,1.9,0,0,1,1907.943,1449.172Zm.494-12.87v.322a1.084,1.084,0,0,1-.15.2.99.99,0,0,1-.465.248,2.066,2.066,0,0,1-.455.062q-.183,0-.31-.011l-.8-.046-1.1.046-.437-.046q-2.264.8-3.516,1.115-.61.15-1.287.276l-.655-.288a1.474,1.474,0,0,1-.6-.471l-.16-.218q2.16-.482,4.114-.873t3.987-.713l.4.069.77-.069Zm-6,5.941h-.058l-.793-.518a3.133,3.133,0,0,1-.575-.706,2.286,2.286,0,0,1-.287-.775l-.54-.333-.495-.495h.69l.574.08.724-.563v-.172l2.54-.873.115-.2h.379l.138.035v-.035h.322l1.287.265.437.495v.333l-.9.85a16.82,16.82,0,0,1-.7,1.9q-.15.31-.345.678l-.54.161-.413-.218-.15-.276h-.035a1.391,1.391,0,0,1-.609.31A4.328,4.328,0,0,1,1902.439,1442.243Zm-1.069,5.4c.015-.131.023-.215.023-.253v-.1a.457.457,0,0,0-.012-.092l-.023-.1a.4.4,0,0,0-.035-.092.81.81,0,0,0-.045-.08.827.827,0,0,0-.126-.161,3.167,3.167,0,0,1-.563-.815l-.115-.265h.38l1.068.265.288-.1q.4.287.592.419c.126.088.2.14.224.155s.046.033.069.052.045.041.069.063a2.471,2.471,0,0,1,.437.494l.023.092.7.046v-.092l-.138-1.344h-.023l-.873.275-.8-.724v-.495h.184a3.14,3.14,0,0,0,1.092-.241l.115-.045.23-.356h.241v-.023h.748l.08.012v-.012h.4l.046.035a1.51,1.51,0,0,0,.707.258,6.417,6.417,0,0,1,.948.2l.173.632-.115.127a.9.9,0,0,1-.46.241c-.131.022-.268.053-.414.092a11.082,11.082,0,0,0-.356,1.091,2.567,2.567,0,0,1-.69,1.172l-.023.034-.85.288-.322-.069c-.215.069-.388.128-.518.178s-.224.085-.281.1-.117.037-.178.052a3.527,3.527,0,0,1-.414.081Zm.7-13.1v-.035l-.908-.609h.816l2.263.529.035.034a1.592,1.592,0,0,1,.322.546,1.75,1.75,0,0,1,.092.546c0,.038,0,.118-.011.24l-.609.253-.368-.15-1.631-1.263Zm1.115,6.653v.012h.045l.426-.15a3.674,3.674,0,0,0,.2-.96q.035-.5.08-1.005l-.115-.023-.505.2-.081.1-.459.093-.391-.115-.057.252q.286.345.574.724A1.406,1.406,0,0,1,1903.186,1441.2Z" transform="translate(-1893.88 -1360.792)" fill="#3f3b34"/>
      <path id="Path_336" data-name="Path 336" d="M1894.515,1471.4v-.345l1.678-1.264.735-.666h.115q.885-1.092,1.631-2.223a8.957,8.957,0,0,0,1.115-2.35h-.022l-3.092,1.1-.207-.39c-.237-.138-.46-.255-.667-.351a2.552,2.552,0,0,0-.678-.2l-.15-.035v-.38l.816-.242a.87.87,0,0,1,.632-.482,4.977,4.977,0,0,0,.759-.218l.712.069a5.449,5.449,0,0,0,1.264-.287q.61-.219,1.241-.426l.138-.781-.173-.942a7.4,7.4,0,0,0,.471-2.712v-.184h.495l.4.471,1.31.149v1.046l-.9,2.574q1.6-.367,3.344-.592t3.46-.593l.2.035.045-.126h.311a5.01,5.01,0,0,0,1.27.161,3.037,3.037,0,0,1,1.212.241l.081.034.333.989-1.862.16-1.516-.069q-1.965.16-3.867.419a12.828,12.828,0,0,0-3.522.983,12.052,12.052,0,0,1-1.368,3.011,18.438,18.438,0,0,1-2.138,2.77,2.894,2.894,0,0,0-.241.241l-.322.3a3.534,3.534,0,0,1-1.31.827,4.493,4.493,0,0,1-1.551.276Zm11.123,5.01v-.908q-.23-1.907-.373-3.78t-.35-3.642q-.334.413-.448.528a1.564,1.564,0,0,1-.483.345l-1.115.413-.126,1.183,2.206-.563v.368l-.149.345.08.276-.08.069a2.5,2.5,0,0,1-1.149.666,7.66,7.66,0,0,0-1.08.333q-.162,1.161-.271,2.361a6.61,6.61,0,0,1-.66,2.327l-.31.483-.586.575-.506.16v-.355a15.149,15.149,0,0,0,.713-3.167q.183-1.613.276-3.292.011-.23.011-.505a6.705,6.705,0,0,0-.2-1.609,11.118,11.118,0,0,1-.345-2.206l-.012-.2h.23l.15-.241v-.288l.241.081a.7.7,0,0,0,.218.034.511.511,0,0,0,.23-.057,1.107,1.107,0,0,0,.4-.276l.345-.667.575-.183.3.068,1.414-.551v-.138l.39-.16v-.08l.724-.219q.528.254,1,.443a4.149,4.149,0,0,0,.983.258l.115.011.23.736-.4.517-.586.138a7.043,7.043,0,0,0-.414,2.43,24.592,24.592,0,0,1-.137,2.592,7.748,7.748,0,0,1,.137,1.493,6.674,6.674,0,0,0,.161,1.483l-.069.31q.138.966.252,1.954a18.006,18.006,0,0,1,.115,2.08v.069l-.379.46-.563.137a10.135,10.135,0,0,1-.621-.89,2.467,2.467,0,0,1-.322-.9l-.011-.057.035-.057A1.368,1.368,0,0,0,1905.638,1476.412Zm-.85-9.687a.972.972,0,0,0-.127-.494h-.161a1.7,1.7,0,0,1-.712.3,4.946,4.946,0,0,0-.759.2,1.465,1.465,0,0,0-.218.275.224.224,0,0,0-.045.1.394.394,0,0,0,.045.173l.046.322h.023a7.612,7.612,0,0,1,1.39-.563q.253-.07.529-.127A1.5,1.5,0,0,1,1904.788,1466.726Z" transform="translate(-1893.677 -1363.43)" fill="#3f3b34"/>
      <path id="Path_337" data-name="Path 337" d="M1899.413,1495.62v3.3l-.4,4.964-.62.138-.092-.311-.356-.149-.023-.023a2.138,2.138,0,0,1-.552-1.448,2.723,2.723,0,0,1,.046-.483,26.1,26.1,0,0,0,.3-3.838q-.07-.551-.109-1.131a2.092,2.092,0,0,0-.293-.983l-.034-.012-.747,1.034-.322.069-.413.495-.724,1.459h-.16l-.241.54-.333-.172a23.235,23.235,0,0,0,2.413-5.711,39.162,39.162,0,0,0,1.126-6.194l.011-.138.586-.1a1.061,1.061,0,0,1,.54.4,1.105,1.105,0,0,1,.058.137h1.045l.38,1.034a6.881,6.881,0,0,1-.885,2.792,8.854,8.854,0,0,0-.931,2.275l.356.057.046.093a2.908,2.908,0,0,1,.207.93A7.264,7.264,0,0,0,1899.413,1495.62Zm2,3.286a1.557,1.557,0,0,1,.034-.287,2.486,2.486,0,0,0,.276-1.126c0-.046-.006-.2-.017-.448s-.018-.609-.018-1.069l-.345-2.516h.448l.046.057a5.579,5.579,0,0,1,1.494,2.562,9.678,9.678,0,0,1,.287,2.367c0,.146,0,.291-.012.437h.173l1.631-.356v-.058l-.172-.885a4.98,4.98,0,0,0,.333-1.787q0-.913.069-1.844a30.353,30.353,0,0,0-.621-3.166,29.948,29.948,0,0,1-.62-3.189l-.023-.207h.333a2.664,2.664,0,0,0,.431.27,2.962,2.962,0,0,0,.42.167,3.545,3.545,0,0,0,.885.115h.126l.046.115a4.517,4.517,0,0,1,.356,1.58q.045.869.115,1.661l-.391,5.516.081,1.379h.275l2.333-.322,1.311.253.264.77q-2,.517-3.786.851a30.554,30.554,0,0,0-3.488.862v.15l-.517.218-.6-.3-.069-.207-.448-.057c-.183-.315-.338-.578-.46-.793A1.407,1.407,0,0,1,1901.413,1498.906Zm10.319-5.7h.034a6.492,6.492,0,0,0,.851.288,2.186,2.186,0,0,1,.77.367l.069.058v3.068q-.517,2.953-.77,5.389l-.448.241-.735-.655h-.23l-.495-1.563.4-.08.138-.839-.092-.23.161-1.884-.3-2.482.138-1.31-.161-.368Z" transform="translate(-1893.658 -1366.573)" fill="#3f3b34"/>
      <path id="Path_338" data-name="Path 338" d="M1897.183,1515.371h.058c.168.131.322.241.46.333a.38.38,0,0,0,.207.058.315.315,0,0,0,.08-.012l.988-.885h.07l.137-.471.115-.012a3.067,3.067,0,0,0,1.224-.379,6.409,6.409,0,0,1,1.12-.506v-.264l.241.08a.52.52,0,0,0,.138.023.407.407,0,0,0,.126-.023,1.787,1.787,0,0,0,.3-.15h.046a2.887,2.887,0,0,1,1.091.2,10.308,10.308,0,0,1,.943.437l.057.15h.184v.667l-.265.448-.471.173h.046v.137h.712l-1.011.471q-.2,1.08-.459,2.2a12.743,12.743,0,0,0-.345,2.321l.126,1.678h.081l.069,4.022h-.62l-.437-.379v-.08a.379.379,0,0,1-.241-.241l-.081-.241a1.179,1.179,0,0,1-.275-.528,1.517,1.517,0,0,0-.115-.356l-.046-.012-3.757,2.425-.23.471-.506.1a1.6,1.6,0,0,1-.275-.208.9.9,0,0,1-.265-.6,1.653,1.653,0,0,0-.137-.6l-.035-.068.1-.333h.333l.161-.3a2.289,2.289,0,0,0,.482-.752q.15-.4.345-.8l-.322-1.068a4.637,4.637,0,0,0,.528-2.1q.035-1.184.1-2.333a1.893,1.893,0,0,0-.505-1.115,2.755,2.755,0,0,1-.666-1.356l-.035-.218Zm.276,14.559v-.942l.345-1.011a2.16,2.16,0,0,0,.115-.7.908.908,0,0,0-.012-.138h-.15v-.47l.07-.058a.883.883,0,0,1,.574-.218,1.188,1.188,0,0,1,.2.017,1.122,1.122,0,0,0,.184.018.752.752,0,0,0,.322-.069l.115-.069.633.655.069,1.138-1.206,1.287h-.15l-.069.208h-.518a.356.356,0,0,0-.218.092Zm1.931-14.329a1.145,1.145,0,0,0-.437.954l.069.448-.058.333.276.816a11.656,11.656,0,0,1,1.086-.5,3.637,3.637,0,0,1,1.155-.259v-.23l-.322-1.5-.138-.046-.575.333-.448.288-.552-.633Zm-.011,8.263,2.309-1.379v-1.264l-.035-.437a3.977,3.977,0,0,1-1.229.448q-.585.1-1.206.15l-.057,1.471Zm-.07-3.585a6.8,6.8,0,0,1,2.241-.656v-.218l.069-.781q-.541.2-1.092.437a3.453,3.453,0,0,1-1.172.265Zm1.506,6.745v-.333l1.264-.08,1.482.793.3.839-.184.471-.632.058a3.893,3.893,0,0,1-1.655-1.046l-.575-.632Zm6.274-7.227v.413a14.425,14.425,0,0,0,.127,1.884l-.781.6-.38-.517-.2-.07a2.363,2.363,0,0,1-.552-.942,3.878,3.878,0,0,1-.15-1.1V1520l.035-.046a.851.851,0,0,0,.1-.459v-.656a1.435,1.435,0,0,0-.23-.747q-.23-.379-.609-.976h.471l1.574.724.023.046A3.21,3.21,0,0,1,1907.089,1519.8Zm3.125,8.837v-.437h.38l.126-.54q-.3-3.138-.54-6.361t-.586-6.383l.069-.851-.276-.827h.253a.936.936,0,0,0,.495-.127,1.253,1.253,0,0,1,.678-.173h.034l1.2.414.08.988-.07.505.07.575-.207,1.218.045.31a7.816,7.816,0,0,0-.275,1.459q-.069.747-.069,1.541.253,4.538.713,10.1l-.368.851-.517-.23-.173-.265h-.137l-.345-.46-.184-.528h-.149l-.138-.781Z" transform="translate(-1893.865 -1369.41)" fill="#3f3b34"/>
      <path id="Path_339" data-name="Path 339" d="M1897.145,1553.449v-.16h.241a16.448,16.448,0,0,1,1.143-1.586,3.555,3.555,0,0,0,.775-1.712l.023-.149h.276a17.816,17.816,0,0,1,1.023-1.9,7.758,7.758,0,0,0,.862-1.793q-.529-.139-1.023-.311a2.857,2.857,0,0,1-1.126-.712,1.677,1.677,0,0,0-.27-.339.559.559,0,0,1-.178-.408.521.521,0,0,1,.035-.184l.035-.126h.54a13.372,13.372,0,0,1,1.4.213q.695.144,1.35.293a19.987,19.987,0,0,0,.873-1.931,9.476,9.476,0,0,0,.541-1.976,6.673,6.673,0,0,1-.713-.081,1.2,1.2,0,0,1-.758-.448l-.138-.183.207-.092a4.1,4.1,0,0,1,1.028-.351q.545-.108,1.006-.247v-.172l.39-.069v-.2h.748l1.551.609v.333l-.46.54-.345.138-.069.47-.7.241a10.945,10.945,0,0,1-.833,2.08q-.512.965-1.051,1.941l.207.575-.333.092-.173.426h-.24q-.517.942-1.1,1.941a11.957,11.957,0,0,0-.9,1.839,2.348,2.348,0,0,0,1.092-.643,1.873,1.873,0,0,0,.252-.288l.333-.425v.713l-.057.045a.973.973,0,0,0-.356.609.412.412,0,0,0,.023.137l.253.184v.092a3.431,3.431,0,0,0,.47,1.753,5.583,5.583,0,0,1,.656,1.741l2.516.092.678-.127v-.666l-.1-.253.172-.563v-3.034h-.034l-1.3.208v.137l-.425.127-.31-.149v-.023l-.46-.081-.838-.838h-.311l-.115-.885,1.058-.08.919.069a10.312,10.312,0,0,0,1.77-.293q.873-.224,1.793-.477l.069.035a4.3,4.3,0,0,0,1.264.505,4.948,4.948,0,0,1,1.356.552l.069.046.115.517-.77.517-.15.208a3.359,3.359,0,0,0-.747,1.47,5.754,5.754,0,0,1-.678,1.655l-.218.367-.15.839.1.287h.2v.483l-.23.069v.3h.16v.609l-.4.161-.713-.161-.241.253-.126-.183-.035-.046a.305.305,0,0,0-.207-.069c-.023,0-.091.005-.2.017a4.044,4.044,0,0,1-.408.017l-1.908.322-.08-.252h-.471l-1.253.16-.264-.1a16.9,16.9,0,0,1-1.241-2.356,7.326,7.326,0,0,0-1.356-2.091l-.126-.035-2.183,3.011-.656.276-.885-.265.793-.8Zm1.275-9.985a8.1,8.1,0,0,0,1.057-2.367q.068-.265.127-.528l-.081-.241.345-1.138.495-.138,1.746.919.115.494a1.692,1.692,0,0,0-.252.219,1.488,1.488,0,0,0-.253.333,2.142,2.142,0,0,0-.207.585l-.023.115-.575.15-.609.828-2.345,1.47Z" transform="translate(-1893.871 -1372.234)" fill="#3f3b34"/>
    </g>
  </g>
</svg>
