<svg xmlns="http://www.w3.org/2000/svg" xmlns:xlink="http://www.w3.org/1999/xlink" width="108" height="214" viewBox="0 0 108 214">
  <defs>
    <clipPath id="clip-banner-2-text-3">
      <rect width="108" height="214"/>
    </clipPath>
  </defs>
  <g id="banner-2-text-3" clip-path="url(#clip-banner-2-text-3)">
    <g id="_03" data-name="03" transform="translate(26.974)" style="mix-blend-mode: multiply;isolation: isolate">
      <path id="Path_348" data-name="Path 348" d="M1828.225,1371.217v-.575l.59-.347a20.385,20.385,0,0,0,2.064-3.9,13.439,13.439,0,0,0,.93-4.234l-1.165.861-.771.121-.241-.332-.666-.106-.091-.393h-.241l-.817-1.346,3.977-1.769.106-.2.59-.211.106-.257h.393a13.543,13.543,0,0,0,1.5.167,1.808,1.808,0,0,1,1.467.846l.03.03.166.711-.953.726a8.2,8.2,0,0,1-.507,2.125q-.4,1.052-.854,2.2h-.226l-1.271,2.4-.968.681-.091.272-2.162,2.209Zm7.5.469v-.241h.575v.181h.076a20.461,20.461,0,0,0,.258-3.3q0-1.724.166-3.463l-.076-.121v-5.535l-.09-.846.09-.379c-.061-.313-.108-.617-.143-.915a3.015,3.015,0,0,0-.174-.748h-.2l-.091-4.476h.454a1.373,1.373,0,0,0,.189.227.957.957,0,0,0,.219.143.885.885,0,0,0,.332.083,7.247,7.247,0,0,0,.953.061h.091l1.059,1.013v.817l-.3,3.463.091.317-.167,1.013.923.136,1.165-1.345a3.412,3.412,0,0,0,.771-1.392l-.983-.726,1.165-.272.091-.2.937-.287v-.242h.529l.045.03a2.184,2.184,0,0,0,.991.317,3.865,3.865,0,0,1,1.067.242l.135.045.151,1.165q-.877,1.073-1.679,2.132a7.685,7.685,0,0,1-2,1.83,6.194,6.194,0,0,0-.893.257,1.744,1.744,0,0,0-.393.258l-.046.121,1.754,2.9a14.313,14.313,0,0,0,2.147,2.722,22.542,22.542,0,0,0,4.1,2.125q2.132.839,4.37,1.822v.453l-.151-.151v.394H1850.3v.181H1848.9q-1.648-.71-3.221-1.255a6.2,6.2,0,0,1-2.9-2.133,25,25,0,0,1-2-2.729q-.893-1.414-1.739-2.775h-.166l-.182,1.648.121.62-.212.907.091.379-.091.711.091,1.1-.091.408.091.378-.091,2.1.091,2.162-.015.061a1.068,1.068,0,0,0-.106.484,1.612,1.612,0,0,0,.023.28,1.352,1.352,0,0,1,.022.234.645.645,0,0,1-.2.5.693.693,0,0,1-.408.212l-.151.03a2.632,2.632,0,0,0-.226-.288.314.314,0,0,0-.167-.091,1.128,1.128,0,0,1-.182-.045c-.12-.03-.281-.075-.484-.135q-.349-.682-.681-1.21A2.472,2.472,0,0,1,1835.726,1371.686Z" transform="translate(-1827.817 -1351.845)" fill="#3f3b34"/>
      <path id="Path_349" data-name="Path 349" d="M1840.658,1397.254v.275h-.713v-.149a2.142,2.142,0,0,1-.545-.937,3.932,3.932,0,0,1-.144-1.051v-.034a4.626,4.626,0,0,0,.276-1.6V1392a12.033,12.033,0,0,0-.207-1.368,1.945,1.945,0,0,0-.6-1.034l-.115-.035-2.229,3.115h-.161l-.644.942-.16.046v.16l-.31.081-.058.2h-.413v-.069h-.069a.906.906,0,0,1-.448.236,3.167,3.167,0,0,1-.54.04h-.39l.252-.3a15.749,15.749,0,0,0,1.276-1.747h.15l.575-.827.4-.437a16.984,16.984,0,0,1,1.1-1.672,4.369,4.369,0,0,0,.793-1.718l.023-.1.23-.081a15.057,15.057,0,0,1,.626-1.385,4.411,4.411,0,0,0,.453-1.545l.023-.161h.16v-.16h-.057a27.5,27.5,0,0,1-4.93,1.321l-1.471-.655v-.356l.931-.529.092-.2q2.436-.46,4.677-1a24.066,24.066,0,0,1,4.688-.65l.138-.276h.8v-.16h.092v-.161h.425l1.736.759v.149l1.126.621.16.7h-.23q-.1,0-.23.184a.539.539,0,0,1-.459.275.533.533,0,0,1-.184-.034,13.748,13.748,0,0,0-2.856-.288q-1.5,0-3-.069a2.521,2.521,0,0,1-.38.092l1,.241.1.517a19.476,19.476,0,0,1-1,2.011q-.506.874-.931,1.736a3.114,3.114,0,0,1,.839.8,8.018,8.018,0,0,1,.655,1.051l.15.919-.07,1.183.092.276-.092.1v3.355l.173,1h-.173v.161Zm7.331-5.631q-1.4-.782-2.717-1.672t-2.591-1.855l-.437-.7.85-.138a12.787,12.787,0,0,1,2.942.948,12.032,12.032,0,0,1,2.631,1.695l.414.828-.1.425-.586.265Z" transform="translate(-1828.36 -1355.08)" fill="#3f3b34"/>
      <path id="Path_350" data-name="Path 350" d="M1835.712,1425v-.391h-.1l-.391-1.126a5.738,5.738,0,0,0,.219-1.115c.029-.352.045-.724.045-1.115l-.494-.988-.012-.012a4.656,4.656,0,0,1-1.011,1.436,5.83,5.83,0,0,1-.77.643h-.081l-.045.161-.988.735v-.517a28.241,28.241,0,0,0,2.511-4.895,31.906,31.906,0,0,0,1.533-5.091h-.3l-2.011.495-2.114-1.333.816-.345q.355-.172.643-.333a2.742,2.742,0,0,1,1.31-.345h.011l.621.092.459-.115.07.08a.294.294,0,0,0,.149.087.715.715,0,0,0,.15.018h.46l.2-.15a23.229,23.229,0,0,0,.345-2.356,13.506,13.506,0,0,1,.448-2.391l.035-.138h.4l.46.713h.276l.747-.127v.943q-.07.78-.109,1.511a4.75,4.75,0,0,1-.259,1.338l1.069-.4.172-.517,1.172-.081a3.426,3.426,0,0,0,1.068.173q.2,0,.425-.023c.153-.015.318-.023.495-.023a5.12,5.12,0,0,1,1.023.1l.138.035v.839l-.356.1-.069.126-.287.288-5.55,1.321a27.336,27.336,0,0,0-1.408,3.562,34.612,34.612,0,0,1-1.351,3.574,2.78,2.78,0,0,0,.781.575,1.646,1.646,0,0,1,.828.908l.1.6-.413,3.332h-.736l-.023-.035Zm2-2.827h-.184v-.563l.735-.173.1-.252h.138l.068-.391h.391l.931.07.827-.07.218.058.173-.035a6.24,6.24,0,0,0,.368-2c0-.161-.008-.322-.023-.483l-.035-.092h-.54l-.265.069a2.57,2.57,0,0,1-1.723-1.022l-.552-1h.482a8.2,8.2,0,0,0,.885.293,3.3,3.3,0,0,0,.862.121l.723-.265v-.207a1.691,1.691,0,0,1-.253-.9,2.549,2.549,0,0,1,.018-.281,3.056,3.056,0,0,0,.017-.339,2.7,2.7,0,0,0-.092-.7l-.035-.08.276-.379h.2l.2-.495.391.23.218.414,1.08.172.08,1.126-.069.241.012.1h.828a6.886,6.886,0,0,0,1.137.092,1.8,1.8,0,0,1,1.1.333l.069.058v.585l-.575.541-2.356.758-.068.494-.046.046a1.558,1.558,0,0,0-.413.965,4.3,4.3,0,0,1-.345,1.287l-.046.08,2.219-.253v-.345h.275a16.367,16.367,0,0,0,2.109.368,7.577,7.577,0,0,1,2.051.518l.115.045v.69l-.058.057a2.125,2.125,0,0,1-1,.552,5.235,5.235,0,0,1-1.1.114h-.023q-1.183-.229-2.332-.47a8.162,8.162,0,0,0-1.689-.173q-.321,0-.655.023l-3.815,1.034a2.64,2.64,0,0,0-.218-.276A1.059,1.059,0,0,0,1837.712,1422.17Z" transform="translate(-1828.241 -1357.749)" fill="#3f3b34"/>
      <path id="Path_351" data-name="Path 351" d="M1833.653,1444.425a6.418,6.418,0,0,1-.793,3.194q-.838,1.482-1.735,2.93l-.345.552v-.908a7.959,7.959,0,0,1-.471-1.574l.207-.482h.183q.656-1.081,1.322-2.276t1.631-2.976v1.54Zm.391-4.1a6.71,6.71,0,0,0-1.115-.781,2.434,2.434,0,0,1-1-1.115l-.1-.207.575-.126a4.9,4.9,0,0,1,1.207.276,3.865,3.865,0,0,1,1.034.586l.046.046.126.506-.207.643-.471.253Zm-1.311-5.676h-.172l-.241-1.126h.437a6.4,6.4,0,0,0,1.149.506,3.357,3.357,0,0,1,1.195.689l.058.046.115.575-.563,1.183-.173-.275a1.743,1.743,0,0,0-.69-.632,4.827,4.827,0,0,1-.919-.575Zm7.677,14.858a2.047,2.047,0,0,1,.034-.333l.2-.287.252-.2.093-2.471-.046-.3a7.484,7.484,0,0,0-.655.793,2.181,2.181,0,0,1-.954.793,4.524,4.524,0,0,0-1.574,1.1,9.022,9.022,0,0,1-1.585,1.311l-.288.184v-.471a29.791,29.791,0,0,0,2.391-3.079,14.049,14.049,0,0,0,1.551-3.057h-.069a20.145,20.145,0,0,1-2.069.793c-.246.077-.548.153-.908.23l-.241-.655a3.137,3.137,0,0,1-.345-.058.784.784,0,0,1-.218-.075.847.847,0,0,1-.109-.074.4.4,0,0,1-.058-.058.194.194,0,0,1-.028-.052c-.007-.019-.016-.038-.023-.057s-.015-.041-.022-.063a.556.556,0,0,1-.011-.115v-.126l1.344-.483.172-.356,1.528-.069.345.15,1.551-.471-.379-1.081.356-1.08.4.518,1.413.241.115.931-.022.1h.034a2.471,2.471,0,0,1,.828-.138.787.787,0,0,0,.575-.241l.172-.38h1.379l1.976.505v.495l-.482.678h-.621l-.827-.092-3.218.505-.092.276,1.206,1.793a5.694,5.694,0,0,0,1.678,1.6,8.977,8.977,0,0,0,2.855,1.276,11.762,11.762,0,0,1,2.9,1.149l.08.045.126,1.126h-.368a2.517,2.517,0,0,1-1.23-.322,2.187,2.187,0,0,0-1.023-.275l-.241.08q-.931-.218-1.563-.408t-1-.322a4.825,4.825,0,0,1-.667-.293,4.936,4.936,0,0,1-1.563-1.333l-1.24-1.506-.208,2.448.093,2.378-.241,1.149-1.081-1.286q-.172-.322-.275-.529A1,1,0,0,1,1840.41,1449.5Zm-1.736-11.433h-.322l-.6-.426a3.2,3.2,0,0,1-.54-1.31,3.13,3.13,0,0,0-.414-1.161l-.218-.355,1.448.3.77-.3.127,1.5h-.172v.643l.126.621,1.3.23.184,1.16-.368,1.161h-.137a.937.937,0,0,0-.46.15,1.975,1.975,0,0,1-.609.3l-.115.035-.275-.288a4.058,4.058,0,0,0,.287-.4,1.441,1.441,0,0,0,.126-.276,1.575,1.575,0,0,0,.1-.6Zm2.655-2.437h-.6l-1.666-.976.356-.138q1.23-.46,2.528-.8a10.571,10.571,0,0,1,2.781-.355h.046l1.7.9.218.494-.23.655h-.126a6.474,6.474,0,0,0-1.7.218,3.256,3.256,0,0,0-1.459.874l-.241-.265a2.691,2.691,0,0,0,.758-1,3.049,3.049,0,0,0,.253-1.046h-.322a6.115,6.115,0,0,0-.713.224,1.723,1.723,0,0,0-.609.4l-.115.183-.609.31Zm.022,1.586v-.012l.092-.528-.287-1.023h.586l.885.528.218,1.632a11.319,11.319,0,0,0,1.23.115,2.59,2.59,0,0,1,1.391.425l.045.046a.811.811,0,0,1,.213.437,3.134,3.134,0,0,1,.04.494v.115l-.908.471-1.206-.2v-.15a3.918,3.918,0,0,0-.523-.087c-.143-.012-.243-.022-.3-.034a1.015,1.015,0,0,1-.178-.052,1.3,1.3,0,0,1-.167-.081,2.1,2.1,0,0,1-.345-.252l-.011-.046a2.275,2.275,0,0,0-.413-.781A1.543,1.543,0,0,1,1841.352,1437.219Z" transform="translate(-1828.089 -1360.733)" fill="#3f3b34"/>
      <path id="Path_352" data-name="Path 352" d="M1831.122,1471.4v-.345l1.678-1.264.735-.666h.115q.885-1.092,1.631-2.223a8.958,8.958,0,0,0,1.115-2.35h-.022l-3.092,1.1-.207-.39c-.237-.138-.46-.255-.666-.351a2.556,2.556,0,0,0-.678-.2l-.15-.035v-.38l.816-.242a.87.87,0,0,1,.632-.482,4.969,4.969,0,0,0,.759-.218l.712.069a5.452,5.452,0,0,0,1.264-.287q.609-.219,1.241-.426l.138-.781-.173-.942a7.4,7.4,0,0,0,.471-2.712v-.184h.495l.4.471,1.31.149v1.046l-.9,2.574q1.6-.367,3.344-.592t3.46-.593l.2.035.045-.126h.311a5.012,5.012,0,0,0,1.27.161,3.037,3.037,0,0,1,1.212.241l.081.034.333.989-1.862.16-1.516-.069q-1.965.16-3.867.419a12.829,12.829,0,0,0-3.522.983,12.044,12.044,0,0,1-1.368,3.011,18.436,18.436,0,0,1-2.137,2.77,2.857,2.857,0,0,0-.241.241l-.322.3a3.535,3.535,0,0,1-1.31.827,4.492,4.492,0,0,1-1.551.276Zm11.123,5.01v-.908q-.23-1.907-.373-3.78t-.35-3.642q-.334.413-.448.528a1.565,1.565,0,0,1-.483.345l-1.115.413-.127,1.183,2.206-.563v.368l-.149.345.08.276-.08.069a2.5,2.5,0,0,1-1.149.666,7.656,7.656,0,0,0-1.08.333q-.162,1.161-.271,2.361a6.613,6.613,0,0,1-.66,2.327l-.31.483-.586.575-.506.16v-.355a15.141,15.141,0,0,0,.713-3.167q.183-1.613.276-3.292.011-.23.011-.505a6.705,6.705,0,0,0-.2-1.609,11.109,11.109,0,0,1-.345-2.206l-.012-.2h.23l.15-.241v-.288l.241.081a.7.7,0,0,0,.218.034.511.511,0,0,0,.23-.057,1.109,1.109,0,0,0,.4-.276l.345-.667.575-.183.3.068,1.414-.551v-.138l.39-.16v-.08l.724-.219q.528.254,1.005.443a4.148,4.148,0,0,0,.983.258l.115.011.23.736-.4.517-.586.138a7.045,7.045,0,0,0-.414,2.43,24.56,24.56,0,0,1-.137,2.592,7.738,7.738,0,0,1,.137,1.493,6.667,6.667,0,0,0,.161,1.483l-.069.31q.138.966.252,1.954a18.006,18.006,0,0,1,.115,2.08v.069l-.379.46-.563.137a10.139,10.139,0,0,1-.621-.89,2.467,2.467,0,0,1-.322-.9l-.012-.057.035-.057A1.368,1.368,0,0,0,1842.245,1476.412Zm-.85-9.687a.972.972,0,0,0-.126-.494h-.161a1.7,1.7,0,0,1-.712.3,4.948,4.948,0,0,0-.759.2,1.465,1.465,0,0,0-.218.275.224.224,0,0,0-.045.1.394.394,0,0,0,.045.173l.046.322h.023a7.617,7.617,0,0,1,1.39-.563q.253-.07.529-.127A1.5,1.5,0,0,1,1841.395,1466.726Z" transform="translate(-1828.177 -1363.43)" fill="#3f3b34"/>
      <path id="Path_353" data-name="Path 353" d="M1830.348,1494.161v-.31l1.275-.471.081-.275h.115v-.15l.172-.012a6.223,6.223,0,0,0,2.431-.6,24.892,24.892,0,0,1,2.3-.977,2.008,2.008,0,0,0,.275-.908q.035-.573.035-1.172v-.184h.471l1.057.667.092.517-.3.793h-.1v.1l-.609.218h.471a1.234,1.234,0,0,1,.931.356l.035.035.137.448q-2.01.6-3.815,1.252t-3.642,1.3Zm7.262-6.791a5.553,5.553,0,0,0,.62.035,1.586,1.586,0,0,1,.966.333l.068.057v.311l-.241.344a6.269,6.269,0,0,0-1.483.38,6.206,6.206,0,0,0-.643.31,4.589,4.589,0,0,1-2.276.563h-.069l-.505-.413v-.115l-.989-.46.828-.3a10.549,10.549,0,0,0,2.85-.793v-.253a2.978,2.978,0,0,0-.208-.735q-.16-.322-.367-.69l-.873-.713-.161-.517h.46l2.068,1.023.023.034a.964.964,0,0,1,.224.454,2.652,2.652,0,0,1,.052.511v.046Zm-3.172,8.7a.563.563,0,0,1-.172-.413.628.628,0,0,1,.017-.143.718.718,0,0,0,.017-.161.4.4,0,0,0-.069-.2l-.046-.081.15-.355h.126a4.236,4.236,0,0,0,.552-.035.7.7,0,0,0,.38-.184l.092-.241h.183l.241-.414.38.081.552-.184.092-.3,1.091-.333v.23h.069l.2.275.724.38.1.471-.115.253-.62.459a2.81,2.81,0,0,0-.2,1.069v1.344l.069,1.54-.138,1.7c.03.406.046.765.046,1.075s0,.533-.006.666-.005.228-.005.282a4.712,4.712,0,0,0,.275,1.574l-.114.494H1838l-.712-.678-.7-1.918h.39l.15-1.506v-2.689a1.475,1.475,0,0,1-.368.425,1.259,1.259,0,0,0-.425.494l-.035.057-.183.081v.2h-.517l-.276-.046a13.64,13.64,0,0,1-.3,1.9,6.935,6.935,0,0,1-.695,1.821l-.057.092h-.77v-.666q.389-1.62.667-3.194A19.521,19.521,0,0,0,1834.438,1496.069Zm-.322-6.021v-.183h.391l.77.437.022.035a1.009,1.009,0,0,1,.2.6v.77h-.586a3.929,3.929,0,0,1-.58-.77A1.767,1.767,0,0,1,1834.117,1490.047Zm2.011,7.044a.492.492,0,0,1-.207-.034l-.23-.1-.035.38h.15l1.08-.437a.3.3,0,0,0,.081-.2v-.173a3.457,3.457,0,0,0-.3.288l-.046.057A.682.682,0,0,1,1836.128,1497.091Zm-.253-1.919.035.093-.023-.127Zm.506.138h-.448l.115.241.333-.2.356-.184v-.275Zm6.688-7.527a.993.993,0,0,1,.77-.345c.03,0,.092,0,.184.012.252.016.528.023.827.023h.046l.643.391.161.528h-.253l-.081.265q-.861.253-1.6.442a4.568,4.568,0,0,0-1.373.6l-.069.23h.585l1.874-.31,1.586.747.23.552-.219.323-.39.448-.425.677-.3.058v.15l-.643.172-.057.506-.093.034a4.755,4.755,0,0,1-1,.368c-.26.054-.525.1-.792.15l.2.149v.333l-.023.15.138-.183h1.5l.873.345.15.505-.575.655-.655.08-.838-.252-.4-.38-.367-.183q-.127,1.1-.311,2.223a14.8,14.8,0,0,0-.184,2.385l.275,1.206a3.073,3.073,0,0,0,1.311.368q.758.034,1.528.126l2-.367.345-1.218-.127-.414h.448l.333.863a3.849,3.849,0,0,1,1.046.3,1.806,1.806,0,0,0,.77.16c.085,0,.237-.011.46-.034v.54l-.276.632-1.08.483-.1.253q-1.012.16-1.919.39a6.62,6.62,0,0,1-1.516.173c-.154,0-.311,0-.471-.012a4.655,4.655,0,0,1-1.488-.236,11.289,11.289,0,0,1-1.351-.545l-.322-.23v-.15l-.322-.183a2.469,2.469,0,0,1-.6-.879,4.62,4.62,0,0,1-.23-1.028v-3.4l.07-1.034-.07-.16.07-1.138-.425-.758h.355v-.38l.173-.012a8.381,8.381,0,0,0,1.413-.252,5.376,5.376,0,0,1,1.356-.208l-.23-.4.1-.092a.546.546,0,0,0,.173-.368v-.379h-.276a2.439,2.439,0,0,0-.93.177q-.438.179-1.034.478l-.092-.138a2.1,2.1,0,0,1-.351-.845q-.075-.442-.178-.983l.218-.31.288-.207.126-1.414-.747-2.666h.586l1.436.828.1.678-.092.356Zm-.46,11.067h-.265v-.586l1.9-.173q.655.162,1.206.276a2.029,2.029,0,0,1,1.149.712l.022.023.138.437-.172.058a3.6,3.6,0,0,1-.931.207,3.889,3.889,0,0,0-.908.207l-1.7-.735Zm.518-2.034v-.092l-.46-.161v-.356l.08.08-.023-.264,1.058-.161q.413.092.8.173a1.343,1.343,0,0,1,.771.437l.022.023.208.517h-.288l-.068.287-.954.081-.827-.253Z" transform="translate(-1828.093 -1366.333)" fill="#3f3b34"/>
      <path id="Path_354" data-name="Path 354" d="M1833.79,1515.371h.058c.168.131.322.241.46.333a.382.382,0,0,0,.207.058.316.316,0,0,0,.08-.012l.988-.885h.07l.137-.471.115-.012a3.067,3.067,0,0,0,1.224-.379,6.389,6.389,0,0,1,1.121-.506v-.264l.241.08a.518.518,0,0,0,.138.023.407.407,0,0,0,.126-.023,1.786,1.786,0,0,0,.3-.15h.046a2.887,2.887,0,0,1,1.091.2,10.31,10.31,0,0,1,.943.437l.057.15h.184v.667l-.265.448-.471.173h.046v.137h.712l-1.011.471q-.2,1.08-.459,2.2a12.754,12.754,0,0,0-.345,2.321l.126,1.678h.081l.069,4.022h-.62l-.437-.379v-.08a.378.378,0,0,1-.241-.241l-.081-.241a1.179,1.179,0,0,1-.275-.528,1.507,1.507,0,0,0-.115-.356l-.046-.012-3.757,2.425-.23.471-.506.1a1.61,1.61,0,0,1-.275-.208.9.9,0,0,1-.265-.6,1.653,1.653,0,0,0-.137-.6l-.035-.068.1-.333h.333l.161-.3a2.289,2.289,0,0,0,.482-.752q.15-.4.345-.8l-.322-1.068a4.632,4.632,0,0,0,.528-2.1q.035-1.184.1-2.333a1.893,1.893,0,0,0-.505-1.115,2.754,2.754,0,0,1-.666-1.356l-.035-.218Zm.276,14.559v-.942l.345-1.011a2.163,2.163,0,0,0,.115-.7.893.893,0,0,0-.012-.138h-.15v-.47l.07-.058a.883.883,0,0,1,.574-.218,1.189,1.189,0,0,1,.2.017,1.121,1.121,0,0,0,.183.018.753.753,0,0,0,.322-.069l.115-.069.633.655.069,1.138-1.206,1.287h-.15l-.069.208h-.518a.355.355,0,0,0-.218.092ZM1836,1515.6a1.145,1.145,0,0,0-.437.954l.069.448-.058.333.276.816a11.63,11.63,0,0,1,1.086-.5,3.636,3.636,0,0,1,1.155-.259v-.23l-.322-1.5-.138-.046-.575.333-.448.288-.552-.633Zm-.012,8.263,2.309-1.379v-1.264l-.035-.437a3.975,3.975,0,0,1-1.229.448q-.585.1-1.206.15l-.057,1.471Zm-.069-3.585a6.8,6.8,0,0,1,2.241-.656v-.218l.069-.781q-.541.2-1.092.437a3.454,3.454,0,0,1-1.172.265Zm1.506,6.745v-.333l1.264-.08,1.482.793.3.839-.184.471-.632.058a3.894,3.894,0,0,1-1.655-1.046l-.575-.632Zm6.274-7.227v.413a14.425,14.425,0,0,0,.127,1.884l-.781.6-.38-.517-.2-.07a2.362,2.362,0,0,1-.552-.942,3.874,3.874,0,0,1-.15-1.1V1520l.035-.046a.851.851,0,0,0,.1-.459v-.656a1.436,1.436,0,0,0-.23-.747q-.23-.379-.609-.976h.471l1.574.724.023.046A3.21,3.21,0,0,1,1843.7,1519.8Zm3.125,8.837v-.437h.38l.126-.54q-.3-3.138-.54-6.361t-.586-6.383l.069-.851-.276-.827h.253a.936.936,0,0,0,.495-.127,1.253,1.253,0,0,1,.678-.173h.034l1.2.414.08.988-.07.505.07.575-.207,1.218.045.31a7.807,7.807,0,0,0-.275,1.459q-.069.747-.069,1.541.253,4.538.713,10.1l-.368.851-.517-.23-.173-.265h-.137l-.345-.46-.184-.528h-.149l-.138-.781Z" transform="translate(-1828.364 -1369.41)" fill="#3f3b34"/>
      <path id="Path_355" data-name="Path 355" d="M1831.418,1542.24h.528l.3.506,1.643.885.379,1.391-.391,1.195-.655.265-.08-.093a3.752,3.752,0,0,1-1.081-1.918,14.91,14.91,0,0,0-.552-1.989Zm7.527,13.066v-.8l.184-.976q-.092-.507-.172-.943a2.082,2.082,0,0,0-.356-.828,3.324,3.324,0,0,1-1.413-.333q-.621-.31-1.253-.655l-.506-.275.575-.069q1.679-.183,3.31-.448a19.424,19.424,0,0,0,3.182-.793l1.344.208v.517l-.092.057a5.156,5.156,0,0,1-1.465.626,5.037,5.037,0,0,0-1.385.569l-.16.885.092.828a3.6,3.6,0,0,0-.31,1.229q-.035.6-.035,1.287l.035.183h1.08l1.344-.092,1.414.092.505-.08a.509.509,0,0,1,.46-.23c.03,0,.07,0,.12.006s.105.01.167.017c.131.008.253.012.368.012h.046l.045.023a2.108,2.108,0,0,0,.758.207,1.826,1.826,0,0,1,.943.356l.046.046.08.356h.218v.448a2.515,2.515,0,0,1-.368.3,2.787,2.787,0,0,1-.333.184,1.812,1.812,0,0,1-.723.149h-.012q-1.713-.275-3.4-.448a21.423,21.423,0,0,0-2.218-.115q-.6,0-1.206.035a11.625,11.625,0,0,0-2.643.609,9.7,9.7,0,0,1-2.689.54l-.149.012-.173-.586-1.3-.6,1.161-.172.252-.333.586-.126.413.183a8.869,8.869,0,0,1,1.977-.477q1-.12,2.056-.2Zm-4.068-9.848v-.173l1.747-.115.137.931-.827.368-2.161-1.011Zm-.46,2.39h.23l1.2.678.137.563h.093l.241-.127.288-.965-2.069-.356,3.137-.425.495.265v.552h-.253l-.862,1.586-1.229.31-.115-.322-.6-.173-1.023-1.586Zm1.483-4h1.161l.149.563a1.4,1.4,0,0,1-.149.2.823.823,0,0,1-.126.1.56.56,0,0,1-.138.069.888.888,0,0,1-.322.057,1.9,1.9,0,0,0-.575.081l-.1.034-.023-.023-.057.069-1.115-.828.3-.126A2.588,2.588,0,0,1,1835.9,1543.849Zm1.091-2.574v-.46l.1-.4-1.723-.4-.322-.608.517-.173.724.093a14.079,14.079,0,0,0,2.114-.7,4.867,4.867,0,0,1,1.907-.368c.145,0,.306,0,.482.011l.724.413.126.713a3.275,3.275,0,0,1-.368.293,2.078,2.078,0,0,1-.31.167,2.438,2.438,0,0,1-.69.2,10.956,10.956,0,0,0-1.218.218l.356.736-.069.367h.38a20.294,20.294,0,0,1,2.724-.367q1.378-.092,2.814-.253l1.138.092.368-.092a3.688,3.688,0,0,1,1.115.379,7.209,7.209,0,0,0,1.068.46l.241.7-.322.552-.8.437a1.358,1.358,0,0,1-.54.563q-.31.172-.7.38h-.724l-.495-.368v-.368l.173-.85-.1-.183h-.253v-.759l-.425-.045a11.12,11.12,0,0,1-2.942.483,7.17,7.17,0,0,0-2.781.62,10.249,10.249,0,0,0-.4,2.149,6.627,6.627,0,0,1-.541,2.229l-.2.413-.62-1.816.184-1.068-.161-1.333h-.069l-.943.287-.723-.437-.4.08-.633-1.115.253-.057a2.768,2.768,0,0,0,.747-.253q.356-.183.758-.379l.839.126Zm-.655,13.273a1.037,1.037,0,0,1-.667.241.68.68,0,0,0-.483.2l-.218.23-.2-.736.046-.069a4.791,4.791,0,0,0,.505-1.058,2.487,2.487,0,0,0,.115-.77,3.048,3.048,0,0,0-.034-.437l-.023-.207h.413l1.023.494.1.862-.046.127.828.333.126.6-.265.529h-.528Zm2.54-6.975H1839l.345.9h.011l.4-.207.069-.518-.495-.425h-.3v-.46h.3l.333.092.506-.1.069.069a.23.23,0,0,0,.167.069.509.509,0,0,0,.167-.023.537.537,0,0,1,.265-.029.477.477,0,0,1,.069.017.319.319,0,0,1,.069.035c.023.016.045.033.069.052a.2.2,0,0,1,.052.063c.011.023.023.048.035.075s.02.052.028.075a1.026,1.026,0,0,1,.012.16v.046l-.678,1.344-1.218.4-.563-.448-.253-1.183h.414Zm3.355-2.827.126.873-.585.552h-.368l-1.528-.862-.208-.563Zm-2.115-1.333v-.356l1.908-.1.46.241.138.552q-.172.162-.27.235a.967.967,0,0,1-.2.121,1.149,1.149,0,0,1-.54.115h-.046l-1.448-.69Zm3.183,4.608a.965.965,0,0,0,.08-.391v-.448l-1.241-.345v-.459l.218.046a1.833,1.833,0,0,0,.363.035,1.053,1.053,0,0,0,.355-.058l.3-.1q.253-.08.552-.149l1.333.31v.655l-.3.08-.54,1.391a1.563,1.563,0,0,1-.46.264,1.435,1.435,0,0,1-.483.081,4,4,0,0,0-.85.092l-.161.035-.1-.333-.528-.093-.747-1.93h.39l1.2.494.08.77Zm-2.034,6.148v-.528a2.71,2.71,0,0,0,.46-.724,1.5,1.5,0,0,0,.115-.356,5.13,5.13,0,0,0,.138-1.241v-.183h.667l.575.333v.92l-.069.413,1.138.528.115.816-.46.413-1.218-.85h-.368Z" transform="translate(-1828.21 -1372.17)" fill="#3f3b34"/>
    </g>
  </g>
</svg>
