<svg id="立即預約_hover" xmlns="http://www.w3.org/2000/svg" width="192" height="61" viewBox="0 0 192 61">
  <g id="立即預約" transform="translate(-864 -745)">
    <path id="Path_118" data-name="Path 118" d="M30.5,0h131a30.5,30.5,0,0,1,0,61H30.5a30.5,30.5,0,0,1,0-61Z" transform="translate(864 745)" fill="#d6b686"/>
    <path id="Path_109" data-name="Path 109" d="M-58.608-30.6a16.5,16.5,0,0,1,3.024,6.912c4.9,3.564,9.432-5.832-2.772-7.092Zm19.656,9.108c.54,0,.936-.18,1.044-.576-1.944-1.656-5.22-4.1-5.22-4.1l-2.88,3.672H-69.8l.288,1.008ZM-65.088-19.26c1.8,5.076,3.564,10.944,3.744,16.272,5.58,5.328,9.576-7.128-3.312-16.416ZM-45.036-.108h-6.8a111.456,111.456,0,0,0,9-17.028c.936,0,1.332-.4,1.476-.864l-7.38-1.836A196.525,196.525,0,0,1-52.992-.108H-71.208L-70.92.9h33.156c.54,0,.972-.18,1.08-.576-2.016-1.692-5.4-4.212-5.4-4.212ZM-27.9-14.652v-5.58h4.932v5.58Zm0-6.588V-26.6h4.932v5.364Zm4.572-6.372H-27.4l-5.292-1.98V-5.328c0,.972-.18,1.368-1.26,2.124L-30.78,2.3a3.652,3.652,0,0,0,1.4-1.656C-26.6-1.764-24.3-4-22.572-5.8a19.164,19.164,0,0,1,.54,5.112c4.32,4.248,8.928-5.328-2.2-10.692l-.36.18A23.705,23.705,0,0,1-23-7.308c-1.728.756-3.384,1.476-4.9,2.088v-8.424h4.932v2.088h.828a8.542,8.542,0,0,0,4.068-1.152v-13.1a2.558,2.558,0,0,0,1.44-.756l-4.5-3.456Zm17.676-2.34L-7.776-27.54h-3.456l-5-2.088V3.384h.828c2.2,0,4.032-1.224,4.032-1.836v-28.08h3.96v17.6c0,.432-.108.648-.612.648-.576,0-2.844-.144-2.844-.144v.468A2.93,2.93,0,0,1-8.6-6.336,9.61,9.61,0,0,1-8.064-2.7C-3.2-3.132-2.556-5-2.556-8.316v-17.5a2.194,2.194,0,0,0,1.332-.72Zm33.48,8.64v4.356h-5.9v-4.356ZM21.924-6.12v-4.392h5.9V-6.12Zm0-9.828h5.9v4.428h-5.9Zm6.192-11.52H15.7L12.78-30.24l-2.556,2.52H1.368l.324,1.008H10.26a36.393,36.393,0,0,1-1.728,3.276A13.387,13.387,0,0,0,3.1-24.552l-.252.216a12.9,12.9,0,0,1,4.248,6.48c3.2,1.908,5.724-1.944,2.952-4.572a31.224,31.224,0,0,0,5.616-3.24c.756-.072,1.152-.144,1.44-.468l-.324-.324h5.94c0,1.368,0,3.024-.036,4.14H22.1l-5.148-2.052v7.632l-2.88-2.736-2.412,2.412H.9l.324,1.008H5.58V-2.448c0,.36-.144.612-.648.612-.72,0-3.78-.18-3.78-.18v.432C2.844-1.26,3.528-.72,3.96,0a6.492,6.492,0,0,1,.684,3.42C9.684,3.06,10.4.828,10.4-2.34V-16.056h1.62c-.144,2.016-.4,4.86-.684,6.7l.288.216a41.722,41.722,0,0,0,5.184-5.9h.144V-3.06h.756a6.669,6.669,0,0,0,2.268-.4A27.748,27.748,0,0,1,12.2,2.916l.216.432C16.812,2.772,22.176.936,24.84-.864c.612.144.972.072,1.152-.216L21.24-4.032c.432-.252.684-.5.684-.684v-.4h5.9v1.224a21.511,21.511,0,0,0-2.772-.18l-.252.252a23.743,23.743,0,0,1,5.652,6.84c4.32,1.908,6.552-5.04-1.692-6.732,1.728-.036,4.068-.972,4.1-1.26v-15.7a2.018,2.018,0,0,0,1.224-.648L29.7-24.7,27.5-22.32H23.832a33.622,33.622,0,0,0,4.428-4.14h6.192c.5,0,.936-.18,1.008-.576-1.764-1.548-4.716-3.852-4.716-3.852ZM40.536-6.876c.216,1.62-1.044,3.528-1.872,4.32a2.784,2.784,0,0,0-1.3,3.528,2.552,2.552,0,0,0,4.032.684C42.624.108,42.7-2.88,41-6.876Zm3.6-.468A18.159,18.159,0,0,1,43.992-.4c2.988,3.888,8.316-2.34.54-7.056Zm4.248-.5a12.329,12.329,0,0,1,1.656,6.12c3.456,3.24,7.812-3.744-1.332-6.3ZM67.284-26.5l-2.628,2.664H59.148c.684-1.512,1.3-3.132,1.872-4.824.828-.036,1.26-.36,1.4-.828l-6.8-1.656a73.038,73.038,0,0,1-1.908,10.512L48.348-24.3a23.714,23.714,0,0,1-2.124,3.852c-2.052.036-4,.072-5.616.072a38.308,38.308,0,0,0,7.668-6.768,1.2,1.2,0,0,0,1.26-.468L43.668-30.78c-.72,2.952-3.42,8.316-5.328,9.864a4.776,4.776,0,0,1-1.26.5l2.16,5.184a2.324,2.324,0,0,0,1.044-1.008c1.548-.612,2.988-1.224,4.248-1.8a25.447,25.447,0,0,1-5.868,5.94,7.009,7.009,0,0,1-1.548.5L39.132-6.3a2.154,2.154,0,0,0,1.008-.828C43.668-8.5,46.764-9.9,48.96-10.944a11.772,11.772,0,0,1,.18,1.908c3.42,3.2,7.74-3.564-1.3-6.552l-.36.18a21.094,21.094,0,0,1,1.188,3.24c-2.628.18-5.184.324-7.2.432a49.066,49.066,0,0,0,10.908-8.5,1.431,1.431,0,0,0,1.3-.216,51.479,51.479,0,0,1-1.944,6.12l.432.252a28.716,28.716,0,0,0,6.48-8.748h6.408C64.584-10.368,63.828-3.708,62.28-2.412a1.876,1.876,0,0,1-1.4.5c-.936,0-3.132-.144-4.68-.252v.432A6.227,6.227,0,0,1,59.652.036a5.69,5.69,0,0,1,.72,3.42,7.359,7.359,0,0,0,5.652-1.98C68.436-.792,69.336-6.768,69.84-21.96a2.751,2.751,0,0,0,1.692-.72Zm-10.836,9a20.755,20.755,0,0,1,2.124,8.568c4.176,3.96,8.892-4.572-1.764-8.748Z" transform="translate(960 791)" fill="#00323d"/>
  </g>
</svg>
