<svg xmlns="http://www.w3.org/2000/svg" width="36" height="36" viewBox="0 0 36 36">
  <path id="FB-logo" d="M1205.864,638.1c-.012-.251-.029-.43-.029-.609,0-3.878.009-7.755-.005-11.633,0-.446.1-.608.576-.6,1.231.032,2.463.014,3.694.009a.884.884,0,0,0,1.02-.9q.216-1.8.432-3.6c.116-.96-.2-1.31-1.189-1.312-1.342,0-2.684-.011-4.026.006-.37,0-.522-.089-.513-.49.024-1.1-.005-2.206.013-3.308a2.01,2.01,0,0,1,2.192-2.2c.735-.019,1.47-.005,2.206-.01.866-.006,1.177-.3,1.184-1.148.009-1.01.011-2.021,0-3.032-.009-.635-.29-1.015-.854-1.007a41.135,41.135,0,0,0-5.162.195,5.946,5.946,0,0,0-5.129,5.363,46.363,46.363,0,0,0-.129,5c0,.512-.142.665-.648.641-.825-.04-1.654-.016-2.481-.009a.928.928,0,0,0-1.057,1.046q-.007,1.874.028,3.749c.015.755.3,1.014,1.054,1.016.882,0,1.765.012,2.647,0,.325-.006.455.086.454.433q-.016,5.982,0,11.964c0,.342-.118.44-.448.44-4.246-.009-8.493.021-12.738-.02a4.777,4.777,0,0,1-4.6-4.719q-.013-13.26,0-26.52a4.8,4.8,0,0,1,4.71-4.731q13.29-.016,26.58,0a4.8,4.8,0,0,1,4.7,4.8q.016,10.724,0,21.447c0,1.617,0,3.235,0,4.852a4.824,4.824,0,0,1-4.9,4.883c-2.334.007-4.669,0-7,0Z" transform="translate(-1182.338 -602.109)" fill="#d6b686"/>
</svg>
