<svg id="Scroll" xmlns="http://www.w3.org/2000/svg" width="40" height="88.006" viewBox="0 0 40 88.006">
  <path id="mouse" d="M962.623-115.39a20.023,20.023,0,0,1-20-20v-19.048a20.023,20.023,0,0,1,20-20,20.023,20.023,0,0,1,20,20v19.048A20.023,20.023,0,0,1,962.623-115.39Zm0-57.143a18.116,18.116,0,0,0-18.1,18.1v19.048a18.116,18.116,0,0,0,18.1,18.1,18.116,18.116,0,0,0,18.1-18.1v-19.048A18.116,18.116,0,0,0,962.623-172.533Zm-.162,21.155a3.686,3.686,0,0,1-3.683-3.683v-5.968a3.686,3.686,0,0,1,3.683-3.683,3.687,3.687,0,0,1,3.683,3.683v5.968A3.686,3.686,0,0,1,962.461-151.378Zm0-11.429a1.78,1.78,0,0,0-1.778,1.778v5.968a1.78,1.78,0,0,0,1.778,1.778,1.78,1.78,0,0,0,1.778-1.778v-5.968A1.78,1.78,0,0,0,962.461-162.807Zm.864,76.065,9.266-10.112a.953.953,0,0,0-.059-1.346.952.952,0,0,0-1.345.059l-8.564,9.346-8.564-9.346a.952.952,0,0,0-1.345-.059.953.953,0,0,0-.059,1.346l9.266,10.112a.953.953,0,0,0,.7.309A.953.953,0,0,0,963.325-86.741Zm0-10.112,9.266-10.113a.952.952,0,0,0-.059-1.345.952.952,0,0,0-1.345.059l-8.564,9.346-8.564-9.346a.952.952,0,0,0-1.345-.059.952.952,0,0,0-.059,1.345l9.266,10.113a.953.953,0,0,0,.7.309A.953.953,0,0,0,963.325-96.854Z" transform="translate(-942.623 174.438)" fill="rgba(255,255,255,0.6)"/>
  <path id="mouse-hover" d="M962.623-115.39a20.023,20.023,0,0,1-20-20v-19.048a20.023,20.023,0,0,1,20-20,20.023,20.023,0,0,1,20,20v19.048A20.023,20.023,0,0,1,962.623-115.39Zm0-57.143a18.116,18.116,0,0,0-18.1,18.1v19.048a18.116,18.116,0,0,0,18.1,18.1,18.116,18.116,0,0,0,18.1-18.1v-19.048A18.116,18.116,0,0,0,962.623-172.533Zm-.162,21.155a3.686,3.686,0,0,1-3.683-3.683v-5.968a3.686,3.686,0,0,1,3.683-3.683,3.687,3.687,0,0,1,3.683,3.683v5.968A3.686,3.686,0,0,1,962.461-151.378Zm0-11.429a1.78,1.78,0,0,0-1.778,1.778v5.968a1.78,1.78,0,0,0,1.778,1.778,1.78,1.78,0,0,0,1.778-1.778v-5.968A1.78,1.78,0,0,0,962.461-162.807Zm.864,76.065,9.266-10.112a.953.953,0,0,0-.059-1.346.952.952,0,0,0-1.345.059l-8.564,9.346-8.564-9.346a.952.952,0,0,0-1.345-.059.953.953,0,0,0-.059,1.346l9.266,10.112a.953.953,0,0,0,.7.309A.953.953,0,0,0,963.325-86.741Zm0-10.112,9.266-10.113a.952.952,0,0,0-.059-1.345.952.952,0,0,0-1.345.059l-8.564,9.346-8.564-9.346a.952.952,0,0,0-1.345-.059.952.952,0,0,0-.059,1.345l9.266,10.113a.953.953,0,0,0,.7.309A.953.953,0,0,0,963.325-96.854Z" transform="translate(-942.623 174.438)" fill="rgba(255,255,255,0.6)" opacity="0"/>
</svg>
