<svg id="圖層_1" data-name="圖層 1" xmlns="http://www.w3.org/2000/svg" xmlns:xlink="http://www.w3.org/1999/xlink" width="32" height="32" viewBox="0 0 32 32"><defs><style>.cls-1{fill:none;}.cls-2{clip-path:url(#clip-path);}.cls-3{fill:#05494e;}.cls-4{fill:#dcbb88;}</style><clipPath id="clip-path"><rect class="cls-1" width="32" height="32"/></clipPath></defs><g class="cls-2"><rect class="cls-3" width="32" height="32"/><path class="cls-4" d="M23.7064,26.6819a12.9,12.9,0,0,0,0-20.6856ZM8.2936,5.9966a12.8988,12.8988,0,0,0,0,20.685ZM15.3529,29.22V26.2645H9.5878v1.2674A12.8224,12.8224,0,0,0,15.3529,29.22Zm1.2942-2.9559V29.22a12.8208,12.8208,0,0,0,5.7648-1.6885V26.2645ZM15.3529,6.4137V3.4577A12.8238,12.8238,0,0,0,9.5878,5.1463V6.4137Zm1.2942-2.956v2.956h5.7648V5.1463A12.8222,12.8222,0,0,0,16.6471,3.4577ZM12.3235,24.97V17.7856L14.74,16.3391l-2.4163-1.4465V7.7079H9.5878V24.97Zm6.0588,0v-6.451L16,17.0932l-2.3825,1.426V24.97ZM19.6765,7.7079v7.1847L17.26,16.3391l2.4165,1.4465V24.97h2.7354V7.7079Zm-6.059,0V14.159L16,15.585l2.3823-1.426V7.7079ZM16,2.1476A14.1915,14.1915,0,1,1,1.8085,16.3391,14.1913,14.1913,0,0,1,16,2.1476Z"/></g></svg>